<?xml version="1.0" encoding="UTF-8" standalone="yes"?>
<svg id="elevation" viewBox="0 -445.19999999999834 3722.5 445.19999999999834" xmlns="http://www.w3.org/2000/svg" xmlns:xlink="http://www.w3.org/1999/xlink" version="1.1">
  <defs>
    <style>.way { fill: #333333; fill-opacity: 1; stroke:#333333; stroke-opacity: 1; stroke-width:1;}</style>
  </defs>
  <g>
    <path id="P1" class="way" d="M0,0l0,-155.8l0.5,0l0.5,0l0.5,0l0.5,0l0.5,0l0.5,0l0.5,0l0.5,0l0.5,0l0.5,0l0.5,0l0.5,0l0.5,0l0.5,0l0.5,0l0.5,0l0.5,0l0.5,0l0.5,0l0.5,0l0.5,0l0.5,0l0.5,0l0.5,0l0.5,0l0.5,0l0.5,0.2l0.5,0.2l0.5,0.2l0.5,0.4l0.5,0.4l0.5,0.4l0.5,0.4l0.5,0.4l0.5,0.2l0.5,0.4l0.5,0.4l0.5,0.2l0.5,0.2l0.5,0.2l0.5,0l0.5,0.2l0.5,0l0.5,0l0.5,0l0.5,0l0.5,-0.2l0.5,0l0.5,-0.2l0.5,0l0.5,0l0.5,0l0.5,0l0.5,0l0.5,0l0.5,0l0.5,0l0.5,0l0.5,0l0.5,0.2l0.5,0l0.5,0l0.5,0l0.5,0.2l0.5,0l0.5,0l0.5,0.4l0.5,0.2l0.5,0.2l0.5,0.2l0.5,0.2l0.5,0.4l0.5,0.2l0.5,0.2l0.5,0.2l0.5,0.2l0.5,0.2l0.5,0l0.5,0.2l0.5,0.4l0.5,0.2l0.5,0.2l0.5,0.4l0.5,0.2l0.5,0l0.5,0.2l0.5,0l0.5,0l0.5,0.4l0.5,0l0.5,0.2l0.5,0l0.5,0l0.5,0l0.5,-0.2l0.5,0l0.5,-0.2l0.5,0l0.5,-0.2l0.5,-0.2l0.5,-0.2l0.5,-0.2l0.5,-0.4l0.5,-0.4l0.5,-0.4l0.5,-0.6l0.5,-0.2l0.5,-0.4l0.5,-0.2l0.5,-0.4l0.5,-0.2l0.5,-0.2l0.5,-0.2l0.5,0l0.5,-0.2l0.5,-0.2l0.5,-0.2l0.5,-0.2l0.5,-0.2l0.5,-0.2l0.5,-0.2l0.5,-0.2l0.5,-0.2l0.5,-0.2l0.5,-0.2l0.5,-0.2l0.5,-0.2l0.5,-0.2l0.5,-0.2l0.5,-0.4l0.5,-0.2l0.5,-0.2l0.5,-0.4l0.5,-0.2l0.5,-0.4l0.5,-0.4l0.5,-0.2l0.5,-0.4l0.5,-0.2l0.5,-0.4l0.5,-0.2l0.5,-0.4l0.5,-0.4l0.5,-0.4l0.5,-0.4l0.5,-0.4l0.5,-0.4l0.5,-0.4l0.5,-0.4l0.5,-0.4l0.5,-0.4l0.5,-0.4l0.5,-0.4l0.5,-0.4l0.5,-0.4l0.5,-0.4l0.5,-0.2l0.5,-0.4l0.5,-0.2l0.5,-0.4l0.5,-0.4l0.5,-0.2l0.5,-0.4l0.5,-0.2l0.5,-0.4l0.5,-0.2l0.5,-0.2l0.5,-0.4l0.5,-0.2l0.5,-0.2l0.5,-0.4l0.5,-0.2l0.5,-0.2l0.5,-0.4l0.5,-0.2l0.5,-0.2l0.5,-0.4l0.5,-0.2l0.5,-0.2l0.5,-0.4l0.5,-0.2l0.5,-0.2l0.5,-0.4l0.5,-0.2l0.5,-0.2l0.5,-0.2l0.5,-0.2l0.5,-0.2l0.5,-0.2l0.5,-0.2l0.5,-0.4l0.5,-0.2l0.5,-0.4l0.5,-0.2l0.5,-0.2l0.5,-0.2l0.5,-0.4l0.5,-0.2l0.5,0l0.5,-0.2l0.5,-0.2l0.5,-0.2l0.5,0l0.5,-0.2l0.5,-0.4l0.5,0l0.5,-0.2l0.5,0.2l0.5,0l0.5,0l0.5,0l0.5,-0.2l0.5,-0.2l0.5,-0.4l0.5,-0.2l0.5,-0.2l0.5,-0.2l0.5,-0.4l0.5,-0.2l0.5,-0.2l0.5,-0.2l0.5,-0.2l0.5,0l0.5,0l0.5,-0.2l0.5,-0.2l0.5,-0.2l0.5,-0.2l0.5,0l0.5,-0.2l0.5,-0.2l0.5,-0.2l0.5,-0.2l0.5,-0.2l0.5,-0.2l0.5,-0.2l0.5,-0.2l0.5,-0.2l0.5,0l0.5,-0.2l0.5,-0.2l0.5,-0.2l0.5,-0.2l0.5,-0.2l0.5,-0.2l0.5,-0.2l0.5,-0.2l0.5,-0.2l0.5,-0.2l0.5,-0.2l0.5,-0.2l0.5,-0.2l0.5,-0.2l0.5,-0.2l0.5,-0.2l0.5,-0.2l0.5,0l0.5,-0.2l0.5,-0.4l0.5,-0.2l0.5,-0.2l0.5,-0.2l0.5,-0.2l0.5,-0.2l0.5,-0.2l0.5,-0.2l0.5,-0.2l0.5,-0.2l0.5,0l0.5,-0.2l0.5,0l0.5,0l0.5,0l0.5,0l0.5,0.2l0.5,0l0.5,0l0.5,0l0.5,0l0.5,0.2l0.5,0l0.5,0l0.5,0l0.5,0l0.5,-0.2l0.5,-0.2l0.5,0.2l0.5,-0.2l0.5,0l0.5,0l0.5,0l0.5,0l0.5,0l0.5,-0.2l0.5,0l0.5,0l0.5,0l0.5,-0.2l0.5,-0.2l0.5,-0.2l0.5,0l0.5,-0.2l0.5,-0.2l0.5,-0.2l0.5,0l0.5,0l0.5,-0.2l0.5,0l0.5,0l0.5,0l0.5,-0.2l0.5,0l0.5,0.2l0.5,0l0.5,0.2l0.5,0l0.5,0.2l0.5,0.2l0.5,0l0.5,0l0.5,0l0.5,-0.2l0.5,0.2l0.5,0.2l0.5,0.2l0.5,0l0.5,0l0.5,0.2l0.5,0l0.5,0.2l0.5,0.2l0.5,0.2l0.5,0.2l0.5,0.2l0.5,0.2l0.5,0.2l0.5,0.4l0.5,-0.2l0.5,0l0.5,0l0.5,0.4l0.5,0.2l0.5,0.2l0.5,0.2l0.5,0.2l0.5,0.2l0.5,0.2l0.5,0l0.5,0l0.5,0l0.5,0.2l0.5,0l0.5,0l0.5,0.2l0.5,0l0.5,-0.2l0.5,-0.2l0.5,0l0.5,-0.2l0.5,0.2l0.5,0.2l0.5,0.2l0.5,0.2l0.5,0.2l0.5,0l0.5,0l0.5,0l0.5,0l0.5,0.2l0.5,-0.2l0.5,0.2l0.5,0.4l0.5,0.4l0.5,0.4l0.5,0.6l0.5,0.2l0.5,0.2l0.5,0.2l0.5,0.4l0.5,0.4l0.5,1l0.5,0.8l0.5,0.6l0.5,0.2l0.5,1.2l0.5,0.8l0.5,0.8l0.5,1l0.5,1l0.5,1.2l0.5,1l0.5,1l0.5,0.8l0.5,1l0.5,1.2l0.5,1l0.5,0.8l0.5,0.8l0.5,0.6l0.5,0.6l0.5,0.6l0.5,0.4l0.5,0.4l0.5,0.2l0.5,0.2l0.5,0.2l0.5,0l0.5,0l0.5,0l0.5,0l0.5,0l0.5,0.2l0.5,0l0.5,0.2l0.5,0.2l0.5,0.4l0.5,0.4l0.5,0.4l0.5,0.6l0.5,0.6l0.5,0.6l0.5,0.6l0.5,0.4l0.5,0.4l0.5,0.2l0.5,0.2l0.5,0.2l0.5,0.2l0.5,0.4l0.5,0.2l0.5,0.2l0.5,0.4l0.5,-0.2l0.5,-0.2l0.5,0.2l0.5,0l0.5,0.2l0.5,0l0.5,0l0.5,0l0.5,0l0.5,0l0.5,0.2l0.5,0.2l0.5,0.2l0.5,0l0.5,0.4l0.5,0.4l0.5,0.6l0.5,0.6l0.5,0.8l0.5,0.6l0.5,0.6l0.5,0.4l0.5,0.2l0.5,0.2l0.5,0l0.5,0.2l0.5,-0.2l0.5,-0.2l0.5,0l0.5,-0.2l0.5,0l0.5,-0.2l0.5,-0.2l0.5,0l0.5,-0.2l0.5,-0.2l0.5,-0.4l0.5,-0.4l0.5,-0.4l0.5,-0.2l0.5,-0.4l0.5,-0.2l0.5,-0.4l0.5,-0.2l0.5,-0.4l0.5,-0.4l0.5,-0.4l0.5,-0.4l0.5,-0.4l0.5,-0.4l0.5,-0.4l0.5,-0.4l0.5,-0.4l0.5,-0.4l0.5,-0.2l0.5,-0.4l0.5,-0.4l0.5,-0.2l0.5,-0.4l0.5,-0.2l0.5,-0.4l0.5,-0.4l0.5,-0.2l0.5,-0.2l0.5,-0.4l0.5,-0.4l0.5,-0.2l0.5,-0.4l0.5,-0.4l0.5,-0.2l0.5,-0.4l0.5,-0.2l0.5,-0.4l0.5,-0.4l0.5,-0.4l0.5,-0.2l0.5,-0.4l0.5,-0.2l0.5,-0.4l0.5,-0.4l0.5,-0.2l0.5,-0.4l0.5,-0.4l0.5,-0.4l0.5,-0.4l0.5,-0.4l0.5,-0.4l0.5,-0.2l0.5,-0.4l0.5,-0.4l0.5,-0.4l0.5,-0.4l0.5,-0.2l0.5,-0.4l0.5,-0.2l0.5,-0.4l0.5,-0.2l0.5,-0.4l0.5,-0.2l0.5,-0.2l0.5,-0.4l0.5,-0.4l0.5,-0.2l0.5,-0.4l0.5,-0.4l0.5,-0.2l0.5,-0.4l0.5,-0.2l0.5,-0.4l0.5,-0.4l0.5,-0.2l0.5,-0.2l0.5,-0.4l0.5,-0.2l0.5,-0.4l0.5,-0.2l0.5,-0.2l0.5,-0.4l0.5,-0.2l0.5,-0.2l0.5,-0.2l0.5,-0.4l0.5,-0.2l0.5,-0.2l0.5,-0.2l0.5,-0.2l0.5,-0.2l0.5,-0.4l0.5,-0.2l0.5,-0.4l0.5,-0.2l0.5,-0.2l0.5,-0.2l0.5,-0.2l0.5,-0.4l0.5,-0.2l0.5,-0.2l0.5,-0.2l0.5,-0.2l0.5,-0.4l0.5,-0.2l0.5,-0.4l0.5,-0.2l0.5,-0.4l0.5,-0.2l0.5,-0.4l0.5,-0.2l0.5,-0.4l0.5,-0.4l0.5,-0.2l0.5,-0.4l0.5,-0.2l0.5,-0.4l0.5,-0.2l0.5,-0.4l0.5,-0.4l0.5,-0.4l0.5,-0.4l0.5,-0.4l0.5,-0.2l0.5,-0.2l0.5,-0.2l0.5,-0.4l0.5,-0.2l0.5,-0.4l0.5,-0.4l0.5,-0.2l0.5,-0.4l0.5,-0.4l0.5,-0.2l0.5,-0.4l0.5,-0.4l0.5,-0.2l0.5,-0.4l0.5,-0.4l0.5,-0.2l0.5,-0.4l0.5,-0.2l0.5,-0.4l0.5,-0.2l0.5,-0.4l0.5,-0.4l0.5,-0.2l0.5,-0.2l0.5,-0.2l0.5,-0.2l0.5,-0.2l0.5,-0.2l0.5,-0.2l0.5,-0.4l0.5,-0.4l0.5,-0.2l0.5,-0.4l0.5,-0.2l0.5,-0.4l0.5,-0.2l0.5,-0.4l0.5,-0.2l0.5,-0.4l0.5,-0.2l0.5,-0.4l0.5,-0.2l0.5,-0.4l0.5,-0.2l0.5,-0.4l0.5,-0.2l0.5,-0.4l0.5,-0.2l0.5,-0.4l0.5,-0.2l0.5,-0.2l0.5,-0.4l0.5,-0.2l0.5,-0.2l0.5,-0.4l0.5,-0.2l0.5,-0.2l0.5,-0.2l0.5,-0.4l0.5,-0.2l0.5,-0.2l0.5,-0.4l0.5,-0.2l0.5,-0.2l0.5,-0.4l0.5,-0.2l0.5,-0.2l0.5,-0.4l0.5,-0.2l0.5,-0.2l0.5,-0.4l0.5,-0.2l0.5,-0.4l0.5,-0.2l0.5,-0.4l0.5,-0.2l0.5,-0.2l0.5,-0.4l0.5,-0.2l0.5,-0.2l0.5,-0.4l0.5,-0.2l0.5,-0.4l0.5,-0.2l0.5,-0.2l0.5,-0.4l0.5,-0.2l0.5,-0.4l0.5,-0.2l0.5,-0.2l0.5,-0.4l0.5,-0.2l0.5,-0.4l0.5,-0.2l0.5,-0.2l0.5,-0.4l0.5,-0.2l0.5,-0.4l0.5,-0.2l0.5,-0.4l0.5,-0.2l0.5,-0.4l0.5,-0.2l0.5,-0.4l0.5,-0.2l0.5,-0.4l0.5,-0.2l0.5,-0.4l0.5,-0.2l0.5,-0.4l0.5,-0.2l0.5,-0.4l0.5,-0.2l0.5,-0.4l0.5,-0.2l0.5,-0.4l0.5,-0.4l0.5,-0.2l0.5,-0.4l0.5,-0.2l0.5,-0.4l0.5,-0.4l0.5,-0.2l0.5,-0.4l0.5,-0.2l0.5,-0.4l0.5,-0.2l0.5,-0.4l0.5,-0.2l0.5,-0.4l0.5,-0.2l0.5,-0.4l0.5,-0.4l0.5,-0.2l0.5,-0.4l0.5,-0.2l0.5,-0.4l0.5,-0.2l0.5,-0.4l0.5,-0.2l0.5,-0.4l0.5,-0.4l0.5,-0.2l0.5,-0.4l0.5,-0.4l0.5,-0.2l0.5,-0.4l0.5,-0.4l0.5,-0.2l0.5,-0.4l0.5,-0.4l0.5,-0.2l0.5,-0.4l0.5,-0.2l0.5,-0.4l0.5,-0.4l0.5,-0.2l0.5,-0.4l0.5,-0.2l0.5,-0.4l0.5,-0.4l0.5,-0.2l0.5,-0.4l0.5,-0.2l0.5,-0.4l0.5,-0.4l0.5,-0.2l0.5,-0.4l0.5,-0.2l0.5,-0.4l0.5,-0.2l0.5,-0.4l0.5,-0.2l0.5,-0.4l0.5,-0.4l0.5,-0.2l0.5,-0.4l0.5,-0.4l0.5,-0.2l0.5,-0.4l0.5,-0.2l0.5,-0.4l0.5,-0.4l0.5,-0.2l0.5,-0.4l0.5,-0.2l0.5,-0.4l0.5,-0.4l0.5,-0.4l0.5,-0.2l0.5,-0.2l0.5,-0.4l0.5,-0.2l0.5,-0.2l0.5,-0.2l0.5,-0.4l0.5,-0.2l0.5,-0.4l0.5,-0.4l0.5,-0.2l0.5,-0.2l0.5,-0.2l0.5,-0.4l0.5,-0.4l0.5,-0.4l0.5,-0.4l0.5,-0.2l0.5,-0.4l0.5,-0.4l0.5,-0.2l0.5,-0.2l0.5,-0.2l0.5,-0.4l0.5,-0.2l0.5,-0.2l0.5,-0.2l0.5,-0.4l0.5,-0.2l0.5,-0.4l0.5,-0.4l0.5,-0.2l0.5,-0.4l0.5,-0.2l0.5,-0.2l0.5,-0.2l0.5,-0.2l0.5,-0.2l0.5,-0.2l0.5,-0.2l0.5,-0.2l0.5,0l0.5,-0.2l0.5,-0.2l0.5,-0.2l0.5,-0.2l0.5,-0.2l0.5,-0.2l0.5,-0.2l0.5,-0.2l0.5,-0.2l0.5,-0.2l0.5,-0.2l0.5,-0.2l0.5,-0.4l0.5,-0.2l0.5,-0.2l0.5,0l0.5,-0.2l0.5,0l0.5,-0.2l0.5,0l0.5,-0.2l0.5,0l0.5,-0.2l0.5,-0.2l0.5,-0.2l0.5,-0.2l0.5,-0.2l0.5,-0.2l0.5,-0.4l0.5,-0.2l0.5,-0.2l0.5,-0.4l0.5,-0.2l0.5,-0.4l0.5,-0.2l0.5,-0.4l0.5,-0.2l0.5,-0.4l0.5,-0.2l0.5,-0.4l0.5,-0.2l0.5,-0.4l0.5,-0.2l0.5,-0.4l0.5,-0.2l0.5,-0.4l0.5,-0.2l0.5,-0.2l0.5,-0.4l0.5,-0.2l0.5,-0.2l0.5,-0.4l0.5,-0.2l0.5,-0.2l0.5,-0.2l0.5,-0.2l0.5,-0.2l0.5,0l0.5,-0.2l0.5,0l0.5,-0.2l0.5,-0.2l0.5,0l0.5,0l0.5,-0.2l0.5,-0.2l0.5,0l0.5,-0.2l0.5,-0.2l0.5,0l0.5,-0.2l0.5,-0.2l0.5,-0.2l0.5,0l0.5,-0.2l0.5,-0.2l0.5,-0.2l0.5,-0.4l0.5,-0.2l0.5,-0.2l0.5,-0.4l0.5,-0.2l0.5,-0.2l0.5,-0.4l0.5,-0.2l0.5,-0.2l0.5,-0.2l0.5,-0.2l0.5,-0.2l0.5,-0.2l0.5,-0.2l0.5,-0.2l0.5,-0.2l0.5,-0.2l0.5,-0.2l0.5,-0.2l0.5,-0.2l0.5,-0.2l0.5,-0.2l0.5,0l0.5,-0.2l0.5,-0.2l0.5,0l0.5,-0.2l0.5,-0.2l0.5,-0.2l0.5,0l0.5,-0.2l0.5,0l0.5,0l0.5,0l0.5,0l0.5,0l0.5,0l0.5,0.2l0.5,0l0.5,0.2l0.5,0.2l0.5,0l0.5,0.2l0.5,0l0.5,0l0.5,-0.2l0.5,0l0.5,0l0.5,0l0.5,0.4l0.5,0l0.5,0l0.5,0.2l0.5,0l0.5,0.2l0.5,0l0.5,0.2l0.5,0l0.5,0.2l0.5,0l0.5,0.2l0.5,0l0.5,0.2l0.5,0.2l0.5,0l0.5,0l0.5,0.2l0.5,0l0.5,0l0.5,0l0.5,0l0.5,0l0.5,0.2l0.5,0l0.5,0.2l0.5,0l0.5,0.2l0.5,0l0.5,0.2l0.5,0l0.5,0.2l0.5,0l0.5,0l0.5,-0.2l0.5,0.2l0.5,0l0.5,0l0.5,0.2l0.5,0l0.5,0.2l0.5,0l0.5,0.2l0.5,0l0.5,0.2l0.5,0l0.5,0.2l0.5,0l0.5,0.2l0.5,0l0.5,0l0.5,0l0.5,0l0.5,0l0.5,0l0.5,0l0.5,0l0.5,0l0.5,0.2l0.5,-0.2l0.5,0.2l0.5,0l0.5,0l0.5,0l0.5,0l0.5,0l0.5,0l0.5,0l0.5,0l0.5,-0.2l0.5,0l0.5,0l0.5,-0.2l0.5,-0.2l0.5,0l0.5,-0.2l0.5,-0.2l0.5,0l0.5,-0.2l0.5,0l0.5,-0.2l0.5,0l0.5,-0.2l0.5,-0.2l0.5,-0.2l0.5,0l0.5,0l0.5,-0.2l0.5,-0.2l0.5,-0.2l0.5,0l0.5,-0.2l0.5,0l0.5,0l0.5,0l0.5,0l0.5,-0.2l0.5,0l0.5,0l0.5,-0.2l0.5,0l0.5,0l0.5,-0.2l0.5,-0.2l0.5,-0.2l0.5,0l0.5,-0.2l0.5,-0.2l0.5,0l0.5,-0.2l0.5,0l0.5,-0.2l0.5,-0.2l0.5,-0.2l0.5,-0.2l0.5,0l0.5,-0.2l0.5,-0.2l0.5,-0.2l0.5,0l0.5,-0.2l0.5,-0.2l0.5,0l0.5,-0.2l0.5,-0.2l0.5,-0.2l0.5,-0.2l0.5,0l0.5,-0.4l0.5,-0.2l0.5,-0.2l0.5,0l0.5,0l0.5,0l0.5,0.2l0.5,0.2l0.5,0.2l0.5,0l0.5,0.2l0.5,0.4l0.5,0.2l0.5,0.2l0.5,0.4l0.5,0.2l0.5,0.4l0.5,0.2l0.5,0.2l0.5,0.2l0.5,0.4l0.5,0.2l0.5,0.4l0.5,0.2l0.5,0.2l0.5,0.2l0.5,0.2l0.5,0.2l0.5,0.2l0.5,0l0.5,0.4l0.5,0l0.5,0l0.5,0l0.5,0l0.5,0l0.5,0.2l0.5,0l0.5,0.2l0.5,0.2l0.5,0.2l0.5,0.4l0.5,0.2l0.5,0.2l0.5,0.2l0.5,0.4l0.5,0.2l0.5,0.4l0.5,0.2l0.5,0.2l0.5,0.2l0.5,0.4l0.5,0.2l0.5,0.6l0.5,0.4l0.5,0.8l0.5,0.8l0.5,0.8l0.5,0.8l0.5,0.4l0.5,0.4l0.5,0.6l0.5,0.6l0.5,0.4l0.5,0.4l0.5,0.6l0.5,0.4l0.5,0.4l0.5,0.4l0.5,0.4l0.5,0.4l0.5,0.6l0.5,0.6l0.5,0.4l0.5,0.6l0.5,0.6l0.5,0.6l0.5,0.8l0.5,0.6l0.5,0.6l0.5,0.8l0.5,0.8l0.5,1l0.5,0.6l0.5,0.4l0.5,0.2l0.5,0.2l0.5,0.4l0.5,0.4l0.5,0.6l0.5,0.6l0.5,0.6l0.5,0.6l0.5,0.6l0.5,0.6l0.5,0.6l0.5,0.6l0.5,0.2l0.5,0.2l0.5,0.4l0.5,0.6l0.5,0.4l0.5,0.4l0.5,0.6l0.5,0.8l0.5,1l0.5,1l0.5,0.6l0.5,0.6l0.5,0.4l0.5,0.2l0.5,0.2l0.5,0.6l0.5,0.8l0.5,0.8l0.5,0.8l0.5,0.6l0.5,0.6l0.5,1l0.5,0.8l0.5,0.8l0.5,0.6l0.5,0.6l0.5,0.6l0.5,0.8l0.5,0.8l0.5,0.8l0.5,0.4l0.5,0.4l0.5,0.4l0.5,0.6l0.5,0.8l0.5,0.2l0.5,0.6l0.5,0.4l0.5,0.4l0.5,0.4l0.5,0.4l0.5,0.4l0.5,0.2l0.5,0.6l0.5,0.4l0.5,0.6l0.5,0.4l0.5,0.8l0.5,0.4l0.5,0.6l0.5,0.4l0.5,0.4l0.5,0.6l0.5,0.6l0.5,0.4l0.5,0.8l0.5,0.8l0.5,0.6l0.5,0.4l0.5,0.4l0.5,0.8l0.5,1.2l0.5,1.2l0.5,0.6l0.5,0.8l0.5,1l0.5,0.8l0.5,0.4l0.5,0.4l0.5,0.6l0.5,0.8l0.5,0.6l0.5,0.6l0.5,0.8l0.5,0.8l0.5,0.6l0.5,0.6l0.5,0.6l0.5,0.6l0.5,1l0.5,0.2l0.5,0.8l0.5,1l0.5,1l0.5,0.6l0.5,0.8l0.5,0.8l0.5,1l0.5,0.8l0.5,0.8l0.5,0.6l0.5,0.6l0.5,0.2l0.5,0.8l0.5,0.6l0.5,0.2l0.5,0.8l0.5,0.6l0.5,0.2l0.5,0.4l0.5,0.8l0.5,1l0.5,1l0.5,0.6l0.5,0.2l0.5,1l0.5,0.8l0.5,0.6l0.5,0.6l0.5,0.6l0.5,0.6l0.5,0.6l0.5,0.6l0.5,0.4l0.5,0.6l0.5,0.4l0.5,0l0.5,0l0.5,0.4l0.5,0l0.5,0.4l0.5,0.4l0.5,0.4l0.5,0.4l0.5,0.6l0.5,0.2l0.5,0.4l0.5,0.2l0.5,0.4l0.5,0.4l0.5,0.2l0.5,0.8l0.5,0.4l0.5,0.4l0.5,0.4l0.5,0.6l0.5,0.8l0.5,0.6l0.5,0.2l0.5,-0.2l0.5,-0.2l0.5,0.2l0.5,0l0.5,-0.2l0.5,0l0.5,-0.2l0.5,0l0.5,0l0.5,0.2l0.5,0.4l0.5,0.4l0.5,0.2l0.5,0.4l0.5,0.4l0.5,0.4l0.5,0.2l0.5,0.2l0.5,0.6l0.5,0.6l0.5,0.6l0.5,0.4l0.5,0.6l0.5,0.4l0.5,0.4l0.5,0.4l0.5,0l0.5,0.4l0.5,0l0.5,0l0.5,0l0.5,-0.4l0.5,-0.2l0.5,-0.4l0.5,-0.4l0.5,-0.4l0.5,-0.2l0.5,-0.2l0.5,-0.4l0.5,-0.4l0.5,-0.4l0.5,-0.4l0.5,-0.4l0.5,-0.4l0.5,-0.6l0.5,-0.4l0.5,-0.4l0.5,-0.6l0.5,-0.4l0.5,-0.6l0.5,-0.4l0.5,-0.6l0.5,-0.4l0.5,-0.4l0.5,-0.4l0.5,-0.4l0.5,-0.4l0.5,-0.2l0.5,-0.4l0.5,-0.4l0.5,-0.4l0.5,-0.4l0.5,-0.2l0.5,-0.4l0.5,-0.4l0.5,-0.2l0.5,-0.4l0.5,-0.4l0.5,-0.4l0.5,-0.2l0.5,-0.4l0.5,-0.2l0.5,-0.4l0.5,-0.4l0.5,-0.2l0.5,-0.2l0.5,-0.2l0.5,-0.4l0.5,-0.2l0.5,-0.2l0.5,-0.4l0.5,-0.4l0.5,-0.2l0.5,-0.2l0.5,-0.4l0.5,-0.4l0.5,-0.2l0.5,-0.4l0.5,-0.4l0.5,-0.4l0.5,-0.2l0.5,-0.4l0.5,-0.4l0.5,-0.2l0.5,-0.4l0.5,-0.2l0.5,-0.2l0.5,-0.4l0.5,-0.4l0.5,-0.4l0.5,-0.2l0.5,-0.4l0.5,-0.2l0.5,-0.4l0.5,-0.2l0.5,-0.4l0.5,-0.4l0.5,-0.4l0.5,-0.4l0.5,-0.2l0.5,-0.4l0.5,-0.4l0.5,-0.2l0.5,-0.4l0.5,-0.2l0.5,-0.4l0.5,-0.2l0.5,-0.4l0.5,-0.2l0.5,-0.4l0.5,-0.4l0.5,-0.4l0.5,-0.6l0.5,-0.4l0.5,-0.4l0.5,-0.4l0.5,-0.6l0.5,-0.6l0.5,-0.4l0.5,-0.4l0.5,-0.4l0.5,-0.2l0.5,-0.4l0.5,-0.2l0.5,-0.4l0.5,-0.2l0.5,-0.4l0.5,-0.4l0.5,-0.2l0.5,-0.4l0.5,-0.4l0.5,-0.4l0.5,-0.2l0.5,-0.4l0.5,-0.4l0.5,-0.4l0.5,-0.4l0.5,-0.4l0.5,-0.4l0.5,-0.4l0.5,-0.4l0.5,-0.2l0.5,-0.4l0.5,-0.4l0.5,-0.4l0.5,-0.4l0.5,-0.4l0.5,-0.4l0.5,-0.2l0.5,-0.4l0.5,-0.4l0.5,-0.2l0.5,-0.4l0.5,-0.4l0.5,-0.4l0.5,-0.4l0.5,-0.4l0.5,-0.4l0.5,-0.4l0.5,-0.4l0.5,-0.6l0.5,-0.4l0.5,-0.6l0.5,-0.4l0.5,-0.4l0.5,-0.4l0.5,-0.2l0.5,-0.4l0.5,-0.6l0.5,-0.4l0.5,-0.4l0.5,-0.6l0.5,-0.4l0.5,-0.2l0.5,-0.4l0.5,-0.4l0.5,-0.2l0.5,-0.2l0.5,-0.4l0.5,-0.2l0.5,-0.2l0.5,-0.4l0.5,-0.2l0.5,-0.2l0.5,-0.4l0.5,-0.2l0.5,-0.2l0.5,-0.4l0.5,-0.2l0.5,-0.2l0.5,-0.2l0.5,-0.2l0.5,-0.2l0.5,-0.2l0.5,0l0.5,-0.2l0.5,0l0.5,-0.2l0.5,0l0.5,-0.2l0.5,0l0.5,-0.2l0.5,0l0.5,-0.2l0.5,0l0.5,-0.2l0.5,-0.2l0.5,0l0.5,-0.2l0.5,0l0.5,-0.2l0.5,0l0.5,-0.2l0.5,-0.2l0.5,0l0.5,-0.2l0.5,-0.2l0.5,-0.2l0.5,0l0.5,-0.2l0.5,0l0.5,-0.2l0.5,-0.2l0.5,0l0.5,0l0.5,0l0.5,0.2l0.5,0l0.5,0l0.5,0l0.5,0.2l0.5,0.2l0.5,0l0.5,0.4l0.5,0.2l0.5,0.2l0.5,0l0.5,0.2l0.5,0.2l0.5,0.2l0.5,0.4l0.5,0.2l0.5,0.2l0.5,0.2l0.5,0l0.5,0.2l0.5,0.2l0.5,0.2l0.5,0.2l0.5,0.2l0.5,0.2l0.5,0.2l0.5,0.2l0.5,0.2l0.5,0.4l0.5,0.2l0.5,0.2l0.5,0.4l0.5,0.2l0.5,0.4l0.5,0.4l0.5,0.2l0.5,0.2l0.5,0.4l0.5,0.4l0.5,0.2l0.5,0.2l0.5,0.2l0.5,0.2l0.5,0.2l0.5,0.4l0.5,0.2l0.5,0l0.5,-0.2l0.5,0l0.5,0l0.5,0l0.5,-0.2l0.5,-0.2l0.5,-0.2l0.5,-0.4l0.5,-0.2l0.5,-0.4l0.5,-0.4l0.5,-0.4l0.5,-0.4l0.5,-0.4l0.5,-0.4l0.5,-0.2l0.5,-0.4l0.5,-0.2l0.5,-0.4l0.5,-0.2l0.5,-0.4l0.5,-0.2l0.5,-0.2l0.5,-0.2l0.5,-0.2l0.5,-0.4l0.5,0l0.5,-0.2l0.5,-0.2l0.5,-0.2l0.5,-0.2l0.5,-0.2l0.5,-0.2l0.5,-0.2l0.5,-0.2l0.5,-0.4l0.5,-0.4l0.5,-0.2l0.5,-0.4l0.5,-0.2l0.5,-0.4l0.5,-0.2l0.5,-0.4l0.5,-0.2l0.5,-0.4l0.5,-0.2l0.5,-0.4l0.5,-0.2l0.5,-0.4l0.5,-0.4l0.5,-0.4l0.5,-0.2l0.5,-0.4l0.5,-0.6l0.5,-0.2l0.5,-0.4l0.5,-0.4l0.5,-0.4l0.5,-0.6l0.5,-0.4l0.5,-0.4l0.5,-0.2l0.5,-0.4l0.5,-0.2l0.5,-0.4l0.5,-0.4l0.5,-0.2l0.5,-0.2l0.5,-0.2l0.5,0l0.5,-0.2l0.5,-0.2l0.5,-0.2l0.5,0l0.5,-0.2l0.5,0l0.5,-0.2l0.5,0l0.5,-0.2l0.5,0l0.5,0l0.5,0l0.5,-0.2l0.5,0l0.5,-0.2l0.5,0l0.5,0l0.5,0l0.5,0l0.5,0l0.5,-0.2l0.5,0l0.5,0l0.5,-0.2l0.5,-0.2l0.5,-0.2l0.5,-0.2l0.5,-0.2l0.5,-0.2l0.5,-0.2l0.5,-0.2l0.5,-0.2l0.5,0l0.5,-0.2l0.5,0l0.5,0l0.5,0l0.5,0.2l0.5,0.2l0.5,0.2l0.5,0.2l0.5,0.2l0.5,0.2l0.5,0l0.5,0.2l0.5,0l0.5,0l0.5,0.2l0.5,0.2l0.5,0.2l0.5,0.2l0.5,0l0.5,0.2l0.5,0.2l0.5,0.2l0.5,0l0.5,0l0.5,0.2l0.5,0l0.5,0l0.5,0l0.5,-0.2l0.5,0l0.5,0l0.5,0l0.5,0l0.5,0l0.5,0l0.5,-0.2l0.5,0l0.5,-0.2l0.5,0l0.5,-0.2l0.5,-0.2l0.5,-0.4l0.5,-0.2l0.5,0l0.5,-0.2l0.5,-0.4l0.5,-0.2l0.5,-0.2l0.5,-0.4l0.5,-0.2l0.5,-0.2l0.5,-0.2l0.5,-0.2l0.5,-0.2l0.5,0l0.5,0l0.5,0l0.5,0l0.5,0.2l0.5,0l0.5,0l0.5,0l0.5,0.2l0.5,0.2l0.5,0.2l0.5,0l0.5,0l0.5,-0.2l0.5,0l0.5,0l0.5,0l0.5,-0.2l0.5,-0.2l0.5,-0.2l0.5,-0.2l0.5,-0.2l0.5,-0.4l0.5,-0.2l0.5,-0.4l0.5,-0.4l0.5,-0.4l0.5,-0.2l0.5,-0.4l0.5,-0.2l0.5,-0.4l0.5,-0.2l0.5,-0.4l0.5,-0.2l0.5,-0.4l0.5,-0.4l0.5,-0.4l0.5,-0.4l0.5,-0.4l0.5,-0.4l0.5,-0.2l0.5,-0.6l0.5,-0.4l0.5,-0.4l0.5,-0.4l0.5,-0.4l0.5,-0.4l0.5,-0.2l0.5,-0.4l0.5,-0.4l0.5,-0.4l0.5,-0.4l0.5,-0.4l0.5,-0.4l0.5,-0.2l0.5,-0.4l0.5,-0.4l0.5,-0.4l0.5,-0.4l0.5,-0.4l0.5,-0.4l0.5,-0.2l0.5,-0.4l0.5,-0.2l0.5,-0.4l0.5,-0.4l0.5,-0.4l0.5,-0.2l0.5,-0.2l0.5,-0.2l0.5,-0.2l0.5,0l0.5,0l0.5,-0.2l0.5,0l0.5,0.2l0.5,0.2l0.5,0.2l0.5,0.4l0.5,0.2l0.5,0.4l0.5,0l0.5,0.2l0.5,0.2l0.5,0.2l0.5,0l0.5,0.2l0.5,0.2l0.5,0l0.5,0.2l0.5,0l0.5,0l0.5,0.2l0.5,0l0.5,0.2l0.5,0.2l0.5,0.2l0.5,0.2l0.5,0.2l0.5,0.2l0.5,0.2l0.5,0l0.5,0l0.5,0l0.5,0l0.5,0.2l0.5,0.2l0.5,0.2l0.5,0l0.5,0.2l0.5,0l0.5,0l0.5,0l0.5,0l0.5,0l0.5,0l0.5,0l0.5,0l0.5,-0.2l0.5,-0.2l0.5,0l0.5,-0.2l0.5,0l0.5,-0.2l0.5,-0.2l0.5,-0.2l0.5,-0.2l0.5,-0.4l0.5,-0.2l0.5,-0.4l0.5,-0.2l0.5,-0.4l0.5,-0.2l0.5,-0.2l0.5,-0.4l0.5,-0.4l0.5,-0.2l0.5,-0.4l0.5,-0.4l0.5,-0.4l0.5,-0.4l0.5,-0.2l0.5,-0.4l0.5,-0.4l0.5,-0.4l0.5,-0.4l0.5,-0.4l0.5,-0.2l0.5,-0.4l0.5,-0.2l0.5,-0.2l0.5,-0.4l0.5,-0.4l0.5,-0.2l0.5,-0.4l0.5,-0.4l0.5,-0.2l0.5,-0.2l0.5,-0.4l0.5,-0.4l0.5,-0.4l0.5,-0.4l0.5,-0.4l0.5,-0.4l0.5,-0.4l0.5,-0.4l0.5,-0.4l0.5,-0.2l0.5,-0.4l0.5,-0.2l0.5,-0.4l0.5,-0.2l0.5,-0.4l0.5,-0.4l0.5,-0.4l0.5,-0.4l0.5,-0.2l0.5,-0.4l0.5,-0.2l0.5,-0.4l0.5,-0.2l0.5,-0.4l0.5,-0.4l0.5,-0.2l0.5,-0.4l0.5,-0.2l0.5,-0.2l0.5,0l0.5,0l0.5,0l0.5,-0.2l0.5,0l0.5,0l0.5,0l0.5,0l0.5,0.2l0.5,0l0.5,0.2l0.5,0.2l0.5,0.2l0.5,0.2l0.5,0.2l0.5,0.2l0.5,0.2l0.5,0.2l0.5,0l0.5,0.2l0.5,0.2l0.5,0.2l0.5,0.2l0.5,0.4l0.5,0.2l0.5,0.2l0.5,0.2l0.5,0.2l0.5,0.2l0.5,0.2l0.5,0.2l0.5,0.4l0.5,0.4l0.5,0.4l0.5,0.4l0.5,0.4l0.5,0.2l0.5,0.4l0.5,0l0.5,0.2l0.5,0.4l0.5,0l0.5,0.4l0.5,-0.2l0.5,0.2l0.5,0.2l0.5,0l0.5,0.2l0.5,0l0.5,0.2l0.5,0.2l0.5,0.2l0.5,0.2l0.5,0.4l0.5,0.2l0.5,0.6l0.5,0.6l0.5,0.4l0.5,0.4l0.5,0.4l0.5,0.4l0.5,0.4l0.5,0.4l0.5,0.4l0.5,0.2l0.5,0.2l0.5,0l0.5,0.4l0.5,0.4l0.5,0.4l0.5,0.4l0.5,0.6l0.5,0.6l0.5,0.4l0.5,0.4l0.5,0.4l0.5,0.4l0.5,0.4l0.5,0.4l0.5,0.4l0.5,0.2l0.5,0.4l0.5,0.4l0.5,0.4l0.5,0.6l0.5,0.6l0.5,0.4l0.5,0.6l0.5,0.4l0.5,0.6l0.5,0.6l0.5,0.4l0.5,0.6l0.5,0.2l0.5,0.4l0.5,0.6l0.5,0.4l0.5,0.4l0.5,0.4l0.5,0.4l0.5,0.2l0.5,0.4l0.5,0.2l0.5,0.4l0.5,0.2l0.5,0.2l0.5,0.4l0.5,0.4l0.5,0.2l0.5,0.4l0.5,0.4l0.5,0.2l0.5,0l0.5,0l0.5,0.6l0.5,0.6l0.5,0.6l0.5,0.4l0.5,0.4l0.5,0l0.5,0.2l0.5,0.4l0.5,0.2l0.5,0.4l0.5,0.2l0.5,0.4l0.5,0.6l0.5,0.4l0.5,0.8l0.5,1l0.5,0.8l0.5,0.8l0.5,0.8l0.5,1l0.5,0.8l0.5,0.8l0.5,0.8l0.5,0.6l0.5,0.8l0.5,0.6l0.5,0.6l0.5,0.6l0.5,0.4l0.5,0.6l0.5,0.6l0.5,0.8l0.5,0.8l0.5,0.8l0.5,0.8l0.5,1l0.5,0.8l0.5,0.6l0.5,0.4l0.5,0.6l0.5,0.6l0.5,0.6l0.5,0.6l0.5,0.6l0.5,0.8l0.5,1l0.5,1l0.5,0.6l0.5,0.8l0.5,0.4l0.5,0.6l0.5,0.4l0.5,0.4l0.5,0.8l0.5,0.6l0.5,0.4l0.5,0.6l0.5,0.4l0.5,0.4l0.5,0.4l0.5,0.8l0.5,0.8l0.5,0.6l0.5,0.6l0.5,0.6l0.5,0.4l0.5,0.4l0.5,0.2l0.5,0.6l0.5,0.6l0.5,1l0.5,1l0.5,0.8l0.5,1l0.5,1.2l0.5,1l0.5,1l0.5,1l0.5,0.8l0.5,0.6l0.5,0.6l0.5,0.6l0.5,0.4l0.5,0.2l0.5,0l0.5,0l0.5,-0.2l0.5,-0.2l0.5,-0.4l0.5,-0.4l0.5,-0.4l0.5,-0.6l0.5,-0.8l0.5,-0.8l0.5,-0.4l0.5,-0.6l0.5,-0.6l0.5,-0.6l0.5,-0.8l0.5,-0.8l0.5,-0.6l0.5,-0.8l0.5,-0.6l0.5,-0.6l0.5,-0.6l0.5,-0.4l0.5,-0.6l0.5,-0.4l0.5,-0.6l0.5,-0.6l0.5,-0.2l0.5,-0.4l0.5,-0.4l0.5,-0.4l0.5,-0.4l0.5,-0.2l0.5,-0.2l0.5,-0.2l0.5,-0.2l0.5,0l0.5,0l0.5,0l0.5,0.2l0.5,0l0.5,0.2l0.5,0.2l0.5,0.2l0.5,0.4l0.5,0.2l0.5,0.2l0.5,0l0.5,0.2l0.5,0.4l0.5,0.4l0.5,0.4l0.5,0.4l0.5,0.4l0.5,0.4l0.5,0.2l0.5,0.2l0.5,0.4l0.5,0.4l0.5,0.4l0.5,0.6l0.5,0.4l0.5,0.4l0.5,0.2l0.5,0.4l0.5,0.4l0.5,0.2l0.5,0.2l0.5,0.2l0.5,0.2l0.5,0.2l0.5,0.4l0.5,0.4l0.5,0.2l0.5,0.4l0.5,0.2l0.5,0.6l0.5,0.6l0.5,0.8l0.5,0.6l0.5,0.6l0.5,0.8l0.5,0.6l0.5,0.4l0.5,0.4l0.5,0.6l0.5,0.4l0.5,0.6l0.5,0.6l0.5,0.4l0.5,0.4l0.5,0.2l0.5,0.2l0.5,0.2l0.5,0.6l0.5,0.8l0.5,0.6l0.5,0.4l0.5,0.6l0.5,0.6l0.5,0.4l0.5,0.4l0.5,0.2l0.5,0.4l0.5,0.6l0.5,0.6l0.5,0.6l0.5,0.6l0.5,0.2l0.5,0.6l0.5,0.6l0.5,0.2l0.5,0.4l0.5,0.6l0.5,0.4l0.5,0.6l0.5,0.6l0.5,0.4l0.5,0.4l0.5,0.2l0.5,0.4l0.5,0.6l0.5,0.6l0.5,0.4l0.5,0.4l0.5,0.2l0.5,0.4l0.5,0.4l0.5,0.2l0.5,0.2l0.5,0.4l0.5,0.2l0.5,0.2l0.5,0.4l0.5,0.2l0.5,0.2l0.5,0.2l0.5,0.2l0.5,0.2l0.5,0.2l0.5,0l0.5,0.2l0.5,0.2l0.5,0l0.5,0.2l0.5,0.2l0.5,0l0.5,0l0.5,0l0.5,0.2l0.5,0.2l0.5,0l0.5,0l0.5,0l0.5,0l0.5,0.4l0.5,0l0.5,0l0.5,0l0.5,-0.2l0.5,0l0.5,0l0.5,0.2l0.5,0.2l0.5,0.2l0.5,0.2l0.5,0l0.5,0l0.5,0.4l0.5,0.2l0.5,0.2l0.5,0.2l0.5,0.2l0.5,0.2l0.5,0.2l0.5,0.2l0.5,0.2l0.5,0.4l0.5,0.2l0.5,0l0.5,0.4l0.5,0.4l0.5,0l0.5,0.4l0.5,0.2l0.5,0.4l0.5,0.2l0.5,0.4l0.5,0.4l0.5,0.2l0.5,0.4l0.5,0.4l0.5,0.4l0.5,0.2l0.5,0.4l0.5,0.2l0.5,0.2l0.5,0.2l0.5,0.2l0.5,0l0.5,0.2l0.5,0.2l0.5,0.2l0.5,0.2l0.5,0.2l0.5,0.2l0.5,0.2l0.5,0.4l0.5,0.2l0.5,0.2l0.5,0.2l0.5,0.2l0.5,0l0.5,0.2l0.5,0.2l0.5,0.6l0.5,0.6l0.5,0.6l0.5,0.8l0.5,0.8l0.5,1l0.5,0.8l0.5,0.8l0.5,1.2l0.5,1l0.5,1l0.5,1l0.5,0.8l0.5,0.8l0.5,0.4l0.5,1l0.5,1.2l0.5,1.2l0.5,1l0.5,1l0.5,1l0.5,1l0.5,1l0.5,0.8l0.5,0.8l0.5,0.8l0.5,0.8l0.5,1l0.5,0.8l0.5,0.6l0.5,0.6l0.5,0.8l0.5,1l0.5,1l0.5,1l0.5,1.2l0.5,1l0.5,0.8l0.5,0.6l0.5,0.8l0.5,1l0.5,1l0.5,0.8l0.5,0.8l0.5,0.8l0.5,1l0.5,0.8l0.5,0.8l0.5,0.8l0.5,0.8l0.5,0.4l0.5,0.6l0.5,0.8l0.5,0.6l0.5,0.8l0.5,0.6l0.5,0.8l0.5,0.6l0.5,0.4l0.5,0.4l0.5,0.4l0.5,0.4l0.5,0.4l0.5,0.2l0.5,0.2l0.5,0l0.5,0l0.5,0l0.5,-0.2l0.5,0l0.5,0l0.5,0l0.5,0.2l0.5,0l0.5,0l0.5,0l0.5,-0.2l0.5,0l0.5,-0.2l0.5,-0.2l0.5,-0.2l0.5,-0.4l0.5,0l0.5,-0.2l0.5,-0.4l0.5,-0.4l0.5,-0.6l0.5,-0.2l0.5,0l0.5,0l0.5,0l0.5,-0.2l0.5,-0.2l0.5,-0.2l0.5,-0.2l0.5,-0.2l0.5,-0.2l0.5,-0.2l0.5,-0.4l0.5,-0.2l0.5,-0.2l0.5,-0.4l0.5,-0.2l0.5,0l0.5,-0.2l0.5,-0.2l0.5,0l0.5,-0.2l0.5,-0.2l0.5,-0.2l0.5,-0.2l0.5,-0.2l0.5,0l0.5,-0.2l0.5,-0.2l0.5,-0.2l0.5,-0.2l0.5,0l0.5,0l0.5,0l0.5,-0.2l0.5,0l0.5,0l0.5,-0.2l0.5,0l0.5,0l0.5,0.2l0.5,0.2l0.5,0l0.5,0.2l0.5,0.2l0.5,0.2l0.5,0.2l0.5,0l0.5,0l0.5,0.2l0.5,0l0.5,0l0.5,0.2l0.5,0l0.5,0.2l0.5,0.2l0.5,0.2l0.5,0.2l0.5,0.2l0.5,0l0.5,0l0.5,0l0.5,0.2l0.5,0l0.5,-0.2l0.5,-0.2l0.5,0.2l0.5,0l0.5,0l0.5,0.2l0.5,0l0.5,0.2l0.5,0.2l0.5,0.4l0.5,0.4l0.5,0.4l0.5,0.6l0.5,0.6l0.5,0.6l0.5,0.6l0.5,0.4l0.5,0.6l0.5,0.6l0.5,0.4l0.5,0.6l0.5,0.8l0.5,0.6l0.5,0.6l0.5,0.6l0.5,0.8l0.5,0.6l0.5,0.6l0.5,0.6l0.5,0.6l0.5,0.6l0.5,0.6l0.5,0.6l0.5,0.4l0.5,0.4l0.5,0.6l0.5,0.6l0.5,0.4l0.5,0.4l0.5,0.4l0.5,0.2l0.5,0l0.5,0l0.5,0.2l0.5,0l0.5,-0.2l0.5,-0.2l0.5,-0.4l0.5,-0.2l0.5,0l0.5,0l0.5,0l0.5,0.2l0.5,0l0.5,0.2l0.5,0.2l0.5,0l0.5,0l0.5,0l0.5,-0.2l0.5,0l0.5,0l0.5,-0.2l0.5,0l0.5,-0.2l0.5,-0.2l0.5,0l0.5,-0.2l0.5,-0.2l0.5,-0.2l0.5,-0.2l0.5,-0.2l0.5,-0.2l0.5,0l0.5,-0.2l0.5,-0.4l0.5,-0.2l0.5,-0.2l0.5,-0.2l0.5,-0.2l0.5,-0.2l0.5,-0.4l0.5,-0.2l0.5,-0.2l0.5,-0.4l0.5,-0.4l0.5,-0.2l0.5,-0.4l0.5,-0.2l0.5,-0.4l0.5,-0.2l0.5,-0.4l0.5,-0.2l0.5,-0.4l0.5,-0.2l0.5,-0.4l0.5,-0.2l0.5,-0.4l0.5,-0.4l0.5,-0.2l0.5,-0.4l0.5,-0.2l0.5,-0.4l0.5,-0.4l0.5,-0.4l0.5,-0.4l0.5,-0.2l0.5,-0.2l0.5,-0.2l0.5,-0.4l0.5,-0.2l0.5,-0.4l0.5,-0.4l0.5,-0.2l0.5,-0.4l0.5,-0.2l0.5,-0.2l0.5,-0.2l0.5,-0.2l0.5,-0.4l0.5,-0.4l0.5,-0.4l0.5,-0.4l0.5,-0.2l0.5,-0.4l0.5,-0.2l0.5,-0.4l0.5,-0.2l0.5,-0.4l0.5,-0.2l0.5,-0.4l0.5,-0.4l0.5,-0.4l0.5,-0.4l0.5,-0.2l0.5,-0.4l0.5,-0.2l0.5,-0.4l0.5,-0.2l0.5,-0.4l0.5,-0.4l0.5,-0.2l0.5,-0.4l0.5,-0.4l0.5,-0.2l0.5,-0.4l0.5,-0.4l0.5,-0.2l0.5,-0.4l0.5,-0.4l0.5,-0.2l0.5,-0.4l0.5,-0.2l0.5,-0.4l0.5,-0.2l0.5,-0.4l0.5,-0.2l0.5,-0.4l0.5,-0.4l0.5,-0.2l0.5,-0.4l0.5,-0.4l0.5,-0.2l0.5,-0.4l0.5,-0.4l0.5,-0.2l0.5,-0.4l0.5,-0.4l0.5,-0.2l0.5,-0.4l0.5,-0.4l0.5,-0.2l0.5,-0.4l0.5,-0.2l0.5,-0.4l0.5,-0.4l0.5,-0.2l0.5,-0.2l0.5,-0.4l0.5,-0.2l0.5,-0.4l0.5,-0.4l0.5,-0.2l0.5,-0.4l0.5,-0.2l0.5,-0.4l0.5,-0.4l0.5,-0.2l0.5,-0.4l0.5,-0.4l0.5,-0.4l0.5,-0.4l0.5,-0.4l0.5,-0.4l0.5,-0.4l0.5,-0.4l0.5,-0.2l0.5,-0.4l0.5,-0.2l0.5,-0.4l0.5,-0.4l0.5,-0.2l0.5,-0.4l0.5,-0.4l0.5,-0.4l0.5,-0.4l0.5,-0.4l0.5,-0.4l0.5,-0.4l0.5,-0.2l0.5,-0.4l0.5,-0.2l0.5,-0.2l0.5,-0.2l0.5,-0.2l0.5,-0.2l0.5,-0.2l0.5,-0.4l0.5,-0.4l0.5,-0.2l0.5,-0.4l0.5,-0.2l0.5,-0.4l0.5,-0.2l0.5,-0.4l0.5,-0.4l0.5,-0.2l0.5,-0.4l0.5,-0.4l0.5,-0.4l0.5,-0.4l0.5,-0.4l0.5,-0.4l0.5,-0.2l0.5,-0.2l0.5,-0.4l0.5,-0.4l0.5,-0.2l0.5,-0.4l0.5,-0.4l0.5,-0.4l0.5,-0.4l0.5,-0.4l0.5,-0.2l0.5,-0.4l0.5,-0.2l0.5,-0.4l0.5,-0.4l0.5,-0.4l0.5,-0.4l0.5,-0.4l0.5,-0.2l0.5,-0.4l0.5,-0.4l0.5,-0.2l0.5,-0.4l0.5,-0.2l0.5,-0.4l0.5,-0.2l0.5,-0.2l0.5,-0.4l0.5,-0.2l0.5,-0.4l0.5,-0.4l0.5,-0.4l0.5,-0.4l0.5,-0.2l0.5,-0.4l0.5,-0.4l0.5,-0.4l0.5,-0.4l0.5,-0.2l0.5,-0.4l0.5,-0.4l0.5,-0.2l0.5,-0.4l0.5,-0.2l0.5,-0.2l0.5,-0.4l0.5,-0.2l0.5,-0.2l0.5,-0.2l0.5,-0.2l0.5,-0.4l0.5,-0.2l0.5,-0.4l0.5,-0.4l0.5,-0.2l0.5,-0.4l0.5,-0.2l0.5,-0.4l0.5,-0.2l0.5,-0.2l0.5,-0.4l0.5,-0.2l0.5,-0.2l0.5,-0.4l0.5,-0.2l0.5,-0.4l0.5,-0.2l0.5,-0.4l0.5,-0.2l0.5,-0.4l0.5,-0.4l0.5,-0.4l0.5,-0.2l0.5,-0.2l0.5,-0.4l0.5,-0.2l0.5,-0.2l0.5,-0.4l0.5,-0.4l0.5,-0.2l0.5,-0.2l0.5,-0.4l0.5,-0.2l0.5,-0.2l0.5,-0.2l0.5,-0.2l0.5,-0.2l0.5,-0.2l0.5,-0.2l0.5,-0.2l0.5,-0.2l0.5,-0.4l0.5,-0.2l0.5,-0.2l0.5,-0.4l0.5,-0.2l0.5,-0.4l0.5,-0.2l0.5,-0.2l0.5,-0.4l0.5,-0.2l0.5,-0.2l0.5,-0.4l0.5,-0.2l0.5,-0.2l0.5,-0.4l0.5,-0.2l0.5,-0.4l0.5,-0.2l0.5,-0.4l0.5,-0.4l0.5,-0.2l0.5,-0.4l0.5,-0.2l0.5,-0.4l0.5,-0.2l0.5,-0.2l0.5,-0.4l0.5,-0.2l0.5,-0.2l0.5,-0.2l0.5,-0.4l0.5,-0.2l0.5,-0.4l0.5,-0.4l0.5,-0.4l0.5,-0.2l0.5,-0.4l0.5,-0.2l0.5,-0.4l0.5,-0.2l0.5,-0.4l0.5,-0.2l0.5,-0.4l0.5,-0.4l0.5,-0.2l0.5,-0.4l0.5,-0.4l0.5,-0.4l0.5,-0.2l0.5,-0.4l0.5,-0.4l0.5,-0.2l0.5,-0.4l0.5,-0.2l0.5,-0.4l0.5,-0.4l0.5,-0.2l0.5,-0.2l0.5,-0.4l0.5,-0.2l0.5,-0.4l0.5,-0.4l0.5,-0.2l0.5,-0.4l0.5,-0.4l0.5,-0.2l0.5,-0.4l0.5,-0.2l0.5,-0.4l0.5,-0.4l0.5,-0.2l0.5,-0.4l0.5,-0.2l0.5,-0.4l0.5,-0.4l0.5,-0.2l0.5,-0.4l0.5,-0.4l0.5,-0.2l0.5,-0.4l0.5,-0.2l0.5,-0.4l0.5,-0.2l0.5,-0.4l0.5,-0.2l0.5,-0.4l0.5,-0.2l0.5,-0.4l0.5,-0.4l0.5,-0.2l0.5,-0.4l0.5,-0.2l0.5,-0.4l0.5,-0.4l0.5,-0.2l0.5,-0.4l0.5,-0.2l0.5,-0.4l0.5,-0.2l0.5,-0.2l0.5,-0.2l0.5,-0.4l0.5,-0.2l0.5,-0.2l0.5,-0.4l0.5,-0.4l0.5,-0.2l0.5,-0.4l0.5,-0.4l0.5,-0.2l0.5,-0.4l0.5,-0.2l0.5,-0.4l0.5,-0.2l0.5,-0.2l0.5,-0.2l0.5,-0.2l0.5,-0.4l0.5,-0.2l0.5,-0.4l0.5,-0.2l0.5,-0.4l0.5,-0.2l0.5,-0.2l0.5,-0.2l0.5,-0.2l0.5,-0.2l0.5,-0.2l0.5,-0.4l0.5,-0.2l0.5,-0.2l0.5,-0.2l0.5,-0.2l0.5,-0.4l0.5,-0.2l0.5,-0.2l0.5,-0.4l0.5,-0.2l0.5,-0.4l0.5,-0.2l0.5,-0.4l0.5,-0.4l0.5,-0.2l0.5,-0.2l0.5,-0.4l0.5,-0.2l0.5,-0.2l0.5,-0.4l0.5,-0.2l0.5,-0.4l0.5,-0.2l0.5,-0.2l0.5,-0.2l0.5,-0.2l0.5,-0.2l0.5,-0.4l0.5,-0.2l0.5,-0.4l0.5,-0.2l0.5,-0.2l0.5,0l0.5,-0.2l0.5,-0.2l0.5,-0.2l0.5,-0.2l0.5,0l0.5,-0.2l0.5,-0.2l0.5,-0.2l0.5,-0.2l0.5,-0.2l0.5,0l0.5,-0.2l0.5,-0.2l0.5,-0.2l0.5,-0.2l0.5,-0.2l0.5,-0.2l0.5,-0.2l0.5,0l0.5,-0.2l0.5,-0.2l0.5,-0.2l0.5,-0.2l0.5,-0.2l0.5,0l0.5,-0.2l0.5,0l0.5,0l0.5,0l0.5,0l0.5,0l0.5,0l0.5,0.2l0.5,0l0.5,0.2l0.5,0.4l0.5,0.2l0.5,0.4l0.5,0.4l0.5,0.4l0.5,0.4l0.5,0.4l0.5,0.4l0.5,0.6l0.5,0.4l0.5,0.6l0.5,0.6l0.5,0.6l0.5,0.4l0.5,0.6l0.5,0.6l0.5,0.4l0.5,0.6l0.5,0.4l0.5,0.6l0.5,0.4l0.5,0.4l0.5,0.2l0.5,0.8l0.5,0.4l0.5,0.4l0.5,0.4l0.5,0.6l0.5,0.4l0.5,0.4l0.5,0.4l0.5,0.4l0.5,0.4l0.5,0.6l0.5,0.8l0.5,0.6l0.5,0.6l0.5,0.6l0.5,0.2l0.5,0.6l0.5,0.6l0.5,0.8l0.5,0.6l0.5,0.8l0.5,0.6l0.5,0.4l0.5,0.4l0.5,0.2l0.5,0l0.5,0l0.5,0l0.5,-0.2l0.5,0l0.5,-0.2l0.5,0l0.5,0.2l0.5,0l0.5,0l0.5,-0.2l0.5,0.2l0.5,0l0.5,0l0.5,0.2l0.5,0l0.5,0l0.5,0.2l0.5,0l0.5,-0.2l0.5,0l0.5,0l0.5,0.2l0.5,0.2l0.5,0.2l0.5,0.2l0.5,0.2l0.5,0l0.5,0l0.5,0.2l0.5,0.2l0.5,0.4l0.5,0.4l0.5,0.6l0.5,0.8l0.5,0.6l0.5,0.6l0.5,0.8l0.5,0.8l0.5,0.8l0.5,0.6l0.5,0.8l0.5,0.6l0.5,0.6l0.5,0.4l0.5,0.6l0.5,0.2l0.5,0.4l0.5,0.2l0.5,0.2l0.5,0.4l0.5,0.6l0.5,0.4l0.5,0.6l0.5,0.4l0.5,0.6l0.5,0.2l0.5,-0.2l0.5,0l0.5,0.2l0.5,0.2l0.5,0l0.5,0.2l0.5,0.2l0.5,0.2l0.5,0.2l0.5,0.2l0.5,-0.2l0.5,0l0.5,0l0.5,0.2l0.5,0.4l0.5,0.2l0.5,0.2l0.5,0.2l0.5,0.4l0.5,0.4l0.5,0.2l0.5,0.4l0.5,1l0.5,0.6l0.5,0.8l0.5,1l0.5,1l0.5,1l0.5,0.8l0.5,1l0.5,0.8l0.5,1l0.5,1l0.5,1l0.5,0.8l0.5,1.2l0.5,1l0.5,1.4l0.5,1.4l0.5,1.6l0.5,1.6l0.5,1.4l0.5,1.4l0.5,1.4l0.5,0.8l0.5,1.4l0.5,0.8l0.5,0.8l0.5,0.6l0.5,0.8l0.5,0.8l0.5,1.2l0.5,1.4l0.5,1.2l0.5,1.2l0.5,1l0.5,1.2l0.5,1.2l0.5,1.4l0.5,1.2l0.5,1.2l0.5,1.2l0.5,1.2l0.5,1.2l0.5,1.4l0.5,1.2l0.5,1.2l0.5,1.2l0.5,1.2l0.5,1l0.5,1l0.5,0.6l0.5,0.6l0.5,0.6l0.5,0.4l0.5,0.4l0.5,0.6l0.5,0.6l0.5,0.6l0.5,0.4l0.5,0.2l0.5,0.4l0.5,-0.4l0.5,-0.6l0.5,-0.6l0.5,-0.8l0.5,-0.4l0.5,-0.4l0.5,-0.2l0.5,-0.4l0.5,-0.2l0.5,-0.2l0.5,-0.2l0.5,-0.4l0.5,-0.4l0.5,-0.2l0.5,-0.4l0.5,-0.4l0.5,-0.4l0.5,-0.2l0.5,-0.2l0.5,-0.2l0.5,-0.2l0.5,-0.2l0.5,-0.2l0.5,-0.4l0.5,-0.4l0.5,-0.2l0.5,-0.2l0.5,-0.2l0.5,0l0.5,0l0.5,-0.2l0.5,0l0.5,0l0.5,-0.2l0.5,-0.2l0.5,-0.2l0.5,-0.4l0.5,-0.4l0.5,-0.2l0.5,-0.4l0.5,-0.4l0.5,-0.4l0.5,-0.4l0.5,-0.4l0.5,-0.2l0.5,-0.2l0.5,-0.4l0.5,0l0.5,-0.4l0.5,-0.2l0.5,-0.4l0.5,-0.2l0.5,-0.4l0.5,-0.2l0.5,-0.4l0.5,-0.4l0.5,-0.4l0.5,-0.2l0.5,-0.4l0.5,-0.2l0.5,-0.2l0.5,-0.2l0.5,-0.4l0.5,-0.2l0.5,-0.4l0.5,-0.2l0.5,-0.4l0.5,-0.2l0.5,-0.4l0.5,-0.2l0.5,-0.2l0.5,-0.4l0.5,-0.2l0.5,-0.2l0.5,-0.2l0.5,-0.2l0.5,-0.2l0.5,-0.2l0.5,-0.2l0.5,-0.2l0.5,-0.2l0.5,-0.2l0.5,-0.2l0.5,-0.2l0.5,-0.2l0.5,-0.2l0.5,-0.4l0.5,-0.6l0.5,-0.4l0.5,-0.2l0.5,-0.4l0.5,-0.4l0.5,-0.4l0.5,-0.4l0.5,-0.4l0.5,-0.4l0.5,-0.2l0.5,-0.4l0.5,-0.2l0.5,-0.4l0.5,-0.4l0.5,-0.2l0.5,-0.2l0.5,-0.4l0.5,0l0.5,0l0.5,0l0.5,0l0.5,0.2l0.5,0.2l0.5,0.2l0.5,0.4l0.5,0.2l0.5,0.4l0.5,0.4l0.5,0.6l0.5,0.6l0.5,0.6l0.5,0.4l0.5,0.4l0.5,0.6l0.5,0.6l0.5,0.6l0.5,0.6l0.5,0.8l0.5,0.4l0.5,0.2l0.5,0.4l0.5,1.2l0.5,1.6l0.5,1.2l0.5,1l0.5,1l0.5,1.2l0.5,1l0.5,1.2l0.5,1.2l0.5,1.2l0.5,1.4l0.5,1.4l0.5,1.4l0.5,1.6l0.5,1.4l0.5,1.4l0.5,1.8l0.5,1.6l0.5,1.4l0.5,1.6l0.5,1.8l0.5,1.6l0.5,2l0.5,1.8l0.5,1.6l0.5,1.6l0.5,1.4l0.5,1.6l0.5,1.2l0.5,1l0.5,0.6l0.5,0.6l0.5,0.4l0.5,0.2l0.5,0.4l0.5,0.2l0.5,0.2l0.5,0l0.5,-0.2l0.5,-0.2l0.5,0l0.5,-0.2l0.5,-0.2l0.5,-0.2l0.5,-0.2l0.5,0l0.5,0.2l0.5,0.4l0.5,0.4l0.5,0.4l0.5,0.2l0.5,0.2l0.5,0.2l0.5,0.4l0.5,0.2l0.5,0.4l0.5,0.6l0.5,0.6l0.5,0.6l0.5,0.6l0.5,0.6l0.5,0.6l0.5,0.4l0.5,0l0.5,0.4l0.5,0l0.5,0l0.5,0.2l0.5,0.4l0.5,0.2l0.5,0.2l0.5,0l0.5,0.4l0.5,0.2l0.5,-0.2l0.5,-0.2l0.5,-0.4l0.5,-0.2l0.5,-0.4l0.5,-0.4l0.5,-0.4l0.5,-0.4l0.5,-0.2l0.5,-0.4l0.5,-0.2l0.5,-0.4l0.5,-0.4l0.5,-0.2l0.5,-0.4l0.5,-0.4l0.5,-0.2l0.5,-0.4l0.5,-0.4l0.5,-0.4l0.5,-0.4l0.5,-0.4l0.5,-0.2l0.5,-0.4l0.5,-0.2l0.5,-0.4l0.5,-0.4l0.5,-0.4l0.5,-0.4l0.5,-0.4l0.5,-0.6l0.5,-0.6l0.5,-0.6l0.5,-0.8l0.5,-0.6l0.5,-0.6l0.5,-0.6l0.5,-0.4l0.5,-0.6l0.5,-0.6l0.5,-0.4l0.5,-0.4l0.5,-0.2l0.5,-0.2l0.5,-0.2l0.5,-0.2l0.5,0l0.5,0l0.5,0l0.5,0l0.5,-0.2l0.5,-0.2l0.5,0l0.5,-0.2l0.5,0l0.5,-0.2l0.5,0l0.5,-0.2l0.5,-0.2l0.5,-0.2l0.5,-0.2l0.5,0l0.5,0l0.5,-0.2l0.5,0.2l0.5,0l0.5,-0.2l0.5,0l0.5,0l0.5,0.2l0.5,0l0.5,0l0.5,0l0.5,0l0.5,0l0.5,0l0.5,0.2l0.5,0.4l0.5,0.4l0.5,0.2l0.5,0.4l0.5,0.2l0.5,0l0.5,0.2l0.5,0.2l0.5,0l0.5,0.2l0.5,0l0.5,0l0.5,-0.2l0.5,-0.2l0.5,-0.2l0.5,0l0.5,-0.2l0.5,0l0.5,-0.2l0.5,-0.2l0.5,-0.2l0.5,-0.2l0.5,-0.2l0.5,0l0.5,-0.2l0.5,0l0.5,-0.2l0.5,-0.2l0.5,-0.2l0.5,-0.2l0.5,-0.4l0.5,-0.2l0.5,-0.4l0.5,-0.2l0.5,-0.2l0.5,-0.2l0.5,-0.2l0.5,-0.2l0.5,-0.2l0.5,-0.2l0.5,-0.4l0.5,-0.2l0.5,-0.2l0.5,-0.2l0.5,-0.2l0.5,-0.2l0.5,-0.4l0.5,-0.2l0.5,-0.2l0.5,-0.4l0.5,-0.2l0.5,-0.2l0.5,-0.2l0.5,-0.2l0.5,-0.4l0.5,-0.2l0.5,-0.2l0.5,-0.4l0.5,-0.2l0.5,-0.2l0.5,-0.4l0.5,-0.2l0.5,-0.2l0.5,-0.2l0.5,-0.4l0.5,-0.2l0.5,-0.4l0.5,-0.4l0.5,-0.2l0.5,-0.2l0.5,-0.4l0.5,-0.2l0.5,-0.2l0.5,-0.2l0.5,-0.2l0.5,-0.2l0.5,-0.4l0.5,-0.2l0.5,-0.2l0.5,-0.2l0.5,0l0.5,-0.4l0.5,-0.4l0.5,0l0.5,0l0.5,0l0.5,0l0.5,-0.4l0.5,-0.2l0.5,0l0.5,0l0.5,0.2l0.5,0l0.5,0.2l0.5,-0.2l0.5,-0.2l0.5,-0.2l0.5,0l0.5,0l0.5,0l0.5,0.2l0.5,0l0.5,0.2l0.5,0l0.5,0.2l0.5,0l0.5,0l0.5,0l0.5,0.2l0.5,0l0.5,0.2l0.5,-0.2l0.5,0l0.5,0l0.5,0.2l0.5,0l0.5,0.2l0.5,0.2l0.5,0.2l0.5,0l0.5,0l0.5,0.2l0.5,0l0.5,0.2l0.5,0l0.5,0l0.5,0l0.5,0l0.5,-0.2l0.5,-0.2l0.5,-0.2l0.5,-0.2l0.5,-0.2l0.5,-0.2l0.5,-0.2l0.5,-0.2l0.5,-0.4l0.5,0l0.5,-0.2l0.5,-0.2l0.5,-0.4l0.5,-0.2l0.5,-0.4l0.5,-0.2l0.5,-0.2l0.5,-0.2l0.5,-0.2l0.5,-0.4l0.5,-0.2l0.5,-0.2l0.5,-0.2l0.5,-0.2l0.5,-0.4l0.5,-0.2l0.5,-0.2l0.5,-0.4l0.5,-0.4l0.5,-0.2l0.5,-0.4l0.5,-0.2l0.5,-0.4l0.5,-0.4l0.5,-0.2l0.5,-0.4l0.5,-0.4l0.5,-0.4l0.5,-0.2l0.5,-0.2l0.5,-0.4l0.5,-0.2l0.5,-0.4l0.5,-0.2l0.5,-0.2l0.5,-0.4l0.5,-0.4l0.5,-0.2l0.5,-0.4l0.5,-0.4l0.5,-0.4l0.5,-0.2l0.5,-0.4l0.5,-0.2l0.5,-0.2l0.5,-0.2l0.5,-0.2l0.5,-0.2l0.5,-0.2l0.5,-0.2l0.5,-0.2l0.5,-0.2l0.5,-0.2l0.5,-0.2l0.5,-0.2l0.5,-0.4l0.5,-0.2l0.5,-0.2l0.5,0l0.5,-0.2l0.5,-0.2l0.5,-0.4l0.5,-0.6l0.5,-0.4l0.5,-0.2l0.5,-0.4l0.5,-0.4l0.5,-0.2l0.5,0l0.5,-0.2l0.5,0l0.5,-0.2l0.5,-0.2l0.5,0l0.5,-0.4l0.5,-0.4l0.5,-0.2l0.5,-0.2l0.5,0l0.5,0.4l0.5,0.4l0.5,0.2l0.5,0.2l0.5,0.2l0.5,0.2l0.5,0l0.5,0.2l0.5,0.2l0.5,0l0.5,0l0.5,0l0.5,-0.2l0.5,-0.2l0.5,-0.2l0.5,0l0.5,0l0.5,0l0.5,-0.2l0.5,-0.4l0.5,-0.2l0.5,-0.2l0.5,-0.2l0.5,0l0.5,0l0.5,-0.2l0.5,-0.2l0.5,-0.2l0.5,-0.2l0.5,-0.4l0.5,-0.2l0.5,-0.2l0.5,-0.4l0.5,-0.2l0.5,-0.4l0.5,-0.2l0.5,0l0.5,-0.2l0.5,0l0.5,-0.2l0.5,0l0.5,-0.2l0.5,0l0.5,-0.2l0.5,-0.4l0.5,0l0.5,-0.2l0.5,-0.2l0.5,-0.4l0.5,-0.2l0.5,-0.2l0.5,-0.2l0.5,-0.4l0.5,-0.4l0.5,-0.2l0.5,-0.4l0.5,-0.2l0.5,-0.2l0.5,0l0.5,0l0.5,0.2l0.5,0l0.5,0.2l0.5,0l0.5,0.2l0.5,0.4l0.5,0.2l0.5,-0.2l0.5,0.2l0.5,0.2l0.5,0l0.5,0l0.5,0l0.5,0.2l0.5,0.4l0.5,0l0.5,0l0.5,-0.2l0.5,0l0.5,0l0.5,0l0.5,-0.2l0.5,-0.2l0.5,0l0.5,0l0.5,0.2l0.5,0l0.5,0l0.5,0l0.5,-0.2l0.5,-0.2l0.5,0l0.5,-0.2l0.5,0l0.5,0l0.5,-0.2l0.5,-0.4l0.5,-0.4l0.5,-0.4l0.5,-0.6l0.5,-0.4l0.5,-0.4l0.5,-0.6l0.5,-0.4l0.5,-0.6l0.5,-0.4l0.5,-0.4l0.5,-0.6l0.5,-0.4l0.5,-0.4l0.5,-0.4l0.5,-0.4l0.5,-0.2l0.5,-0.4l0.5,-0.4l0.5,-0.2l0.5,-0.4l0.5,-0.4l0.5,-0.4l0.5,-0.4l0.5,-0.4l0.5,-0.2l0.5,-0.4l0.5,-0.4l0.5,-0.4l0.5,-0.4l0.5,-0.4l0.5,-0.2l0.5,-0.4l0.5,-0.4l0.5,-0.4l0.5,-0.2l0.5,-0.4l0.5,-0.4l0.5,-0.2l0.5,-0.4l0.5,-0.4l0.5,-0.4l0.5,-0.4l0.5,-0.2l0.5,-0.2l0.5,-0.2l0.5,-0.2l0.5,-0.2l0.5,-0.2l0.5,-0.2l0.5,-0.2l0.5,-0.4l0.5,-0.2l0.5,-0.2l0.5,-0.2l0.5,-0.2l0.5,0l0.5,0l0.5,0l0.5,0.2l0.5,-0.2l0.5,-0.4l0.5,-0.2l0.5,-0.2l0.5,0l0.5,0l0.5,-0.2l0.5,-0.2l0.5,-0.4l0.5,-0.2l0.5,-0.4l0.5,-0.2l0.5,-0.2l0.5,-0.2l0.5,-0.2l0.5,-0.2l0.5,-0.2l0.5,-0.2l0.5,0l0.5,-0.2l0.5,-0.2l0.5,0.2l0.5,-0.2l0.5,0l0.5,-0.2l0.5,0l0.5,-0.2l0.5,-0.2l0.5,0l0.5,0l0.5,0.2l0.5,0l0.5,-0.2l0.5,-0.4l0.5,-0.2l0.5,0l0.5,-0.2l0.5,-0.2l0.5,0l0.5,-0.2l0.5,0l0.5,0l0.5,0l0.5,0.2l0.5,0.2l0.5,-0.2l0.5,-0.2l0.5,-0.4l0.5,-0.2l0.5,0l0.5,0l0.5,0l0.5,0l0.5,0l0.5,-0.2l0.5,-0.2l0.5,-0.2l0.5,-0.4l0.5,0.2l0.5,-0.2l0.5,-0.2l0.5,-0.4l0.5,-0.2l0.5,-0.4l0.5,-0.4l0.5,-0.2l0.5,-0.2l0.5,-0.2l0.5,-0.4l0.5,-0.2l0.5,-0.4l0.5,-0.4l0.5,-0.2l0.5,0l0.5,-0.2l0.5,0l0.5,0l0.5,0l0.5,0l0.5,0.2l0.5,0l0.5,-0.2l0.5,0.2l0.5,0l0.5,0l0.5,0.2l0.5,0l0.5,0.2l0.5,0.2l0.5,0l0.5,0l0.5,0l0.5,0l0.5,0l0.5,0l0.5,-0.2l0.5,0l0.5,-0.2l0.5,0l0.5,-0.2l0.5,0l0.5,-0.2l0.5,0l0.5,-0.2l0.5,-0.4l0.5,-0.2l0.5,-0.4l0.5,-0.2l0.5,-0.2l0.5,-0.4l0.5,-0.4l0.5,-0.4l0.5,-0.4l0.5,-0.2l0.5,-0.2l0.5,-0.4l0.5,-0.4l0.5,-0.4l0.5,-0.2l0.5,-0.4l0.5,-0.4l0.5,-0.4l0.5,-0.2l0.5,-0.4l0.5,-0.4l0.5,-0.4l0.5,-0.4l0.5,-0.2l0.5,-0.2l0.5,-0.2l0.5,-0.4l0.5,0l0.5,-0.2l0.5,-0.4l0.5,-0.2l0.5,-0.2l0.5,-0.4l0.5,-0.2l0.5,-0.2l0.5,-0.2l0.5,-0.2l0.5,-0.4l0.5,-0.4l0.5,-0.4l0.5,-0.2l0.5,-0.4l0.5,-0.4l0.5,-0.2l0.5,-0.4l0.5,-0.4l0.5,-0.4l0.5,-0.4l0.5,-0.4l0.5,-0.4l0.5,0l0.5,-0.2l0.5,-0.2l0.5,-0.2l0.5,-0.2l0.5,0l0.5,0l0.5,-0.2l0.5,-0.2l0.5,0l0.5,-0.2l0.5,0l0.5,0l0.5,0l0.5,0l0.5,-0.2l0.5,0l0.5,0.2l0.5,-0.2l0.5,0l0.5,0.2l0.5,0.2l0.5,0.2l0.5,0.4l0.5,0.6l0.5,0.6l0.5,0.4l0.5,0.4l0.5,0.6l0.5,0.4l0.5,0.2l0.5,0l0.5,0l0.5,-0.2l0.5,0l0.5,-0.2l0.5,-0.2l0.5,-0.4l0.5,-0.4l0.5,-0.4l0.5,-0.4l0.5,-0.6l0.5,-0.6l0.5,-0.4l0.5,-0.6l0.5,-0.4l0.5,-0.4l0.5,-0.4l0.5,-0.4l0.5,-0.2l0.5,-0.2l0.5,-0.2l0.5,-0.6l0.5,-0.4l0.5,-0.4l0.5,-0.2l0.5,-0.4l0.5,-0.2l0.5,-0.4l0.5,-0.2l0.5,-0.2l0.5,-0.4l0.5,-0.2l0.5,-0.4l0.5,-0.4l0.5,-0.4l0.5,-0.2l0.5,-0.4l0.5,-0.2l0.5,-0.4l0.5,-0.2l0.5,-0.2l0.5,-0.4l0.5,-0.2l0.5,-0.4l0.5,-0.2l0.5,-0.4l0.5,-0.4l0.5,-0.2l0.5,-0.2l0.5,-0.4l0.5,-0.4l0.5,-0.2l0.5,-0.4l0.5,-0.2l0.5,-0.2l0.5,-0.4l0.5,-0.2l0.5,-0.4l0.5,-0.4l0.5,-0.4l0.5,-0.2l0.5,-0.2l0.5,-0.4l0.5,-0.2l0.5,-0.2l0.5,-0.2l0.5,-0.4l0.5,-0.4l0.5,-0.2l0.5,-0.4l0.5,-0.4l0.5,-0.6l0.5,-0.4l0.5,-0.2l0.5,-0.2l0.5,-0.4l0.5,0l0.5,-0.4l0.5,0l0.5,-0.2l0.5,-0.2l0.5,-0.2l0.5,0l0.5,-0.2l0.5,-0.2l0.5,-0.2l0.5,-0.2l0.5,-0.2l0.5,-0.4l0.5,-0.2l0.5,-0.2l0.5,-0.4l0.5,-0.2l0.5,-0.4l0.5,-0.2l0.5,-0.4l0.5,-0.4l0.5,-0.2l0.5,-0.4l0.5,-0.4l0.5,-0.2l0.5,-0.4l0.5,-0.4l0.5,-0.4l0.5,-0.4l0.5,-0.6l0.5,-0.4l0.5,-0.4l0.5,-0.4l0.5,-0.2l0.5,-0.4l0.5,-0.4l0.5,-0.4l0.5,-0.2l0.5,-0.2l0.5,-0.4l0.5,-0.4l0.5,-0.4l0.5,-0.2l0.5,-0.2l0.5,-0.4l0.5,-0.2l0.5,-0.4l0.5,-0.2l0.5,-0.4l0.5,-0.4l0.5,-0.4l0.5,-0.4l0.5,-0.4l0.5,-0.4l0.5,-0.4l0.5,-0.4l0.5,-0.2l0.5,-0.2l0.5,-0.4l0.5,-0.2l0.5,-0.4l0.5,-0.4l0.5,-0.2l0.5,-0.4l0.5,-0.2l0.5,-0.4l0.5,-0.2l0.5,-0.4l0.5,-0.2l0.5,-0.4l0.5,-0.4l0.5,-0.4l0.5,-0.2l0.5,-0.4l0.5,-0.4l0.5,-0.4l0.5,-0.2l0.5,-0.4l0.5,-0.4l0.5,-0.4l0.5,-0.4l0.5,-0.2l0.5,-0.2l0.5,0l0.5,-0.2l0.5,-0.2l0.5,-0.2l0.5,-0.2l0.5,-0.2l0.5,0l0.5,-0.2l0.5,-0.2l0.5,-0.2l0.5,-0.2l0.5,0l0.5,-0.2l0.5,0l0.5,0l0.5,-0.2l0.5,-0.2l0.5,-0.2l0.5,-0.2l0.5,-0.2l0.5,-0.2l0.5,-0.2l0.5,0l0.5,-0.2l0.5,-0.2l0.5,-0.4l0.5,-0.2l0.5,-0.2l0.5,-0.2l0.5,-0.2l0.5,-0.4l0.5,-0.2l0.5,-0.4l0.5,-0.2l0.5,-0.2l0.5,-0.2l0.5,0l0.5,-0.2l0.5,-0.4l0.5,0l0.5,-0.2l0.5,-0.2l0.5,0l0.5,-0.2l0.5,-0.2l0.5,-0.2l0.5,0l0.5,0l0.5,-0.2l0.5,-0.2l0.5,-0.2l0.5,0l0.5,0l0.5,-0.2l0.5,-0.2l0.5,-0.2l0.5,0l0.5,-0.2l0.5,-0.2l0.5,-0.2l0.5,-0.2l0.5,-0.2l0.5,-0.4l0.5,-0.2l0.5,-0.2l0.5,-0.2l0.5,-0.2l0.5,0l0.5,0l0.5,0l0.5,0l0.5,0l0.5,0.2l0.5,0.2l0.5,0.4l0.5,0.4l0.5,0.4l0.5,1l0.5,1l0.5,1l0.5,1l0.5,1.2l0.5,1.2l0.5,0.8l0.5,0.8l0.5,0.8l0.5,0.8l0.5,0.6l0.5,0.8l0.5,0.6l0.5,0.6l0.5,0.6l0.5,0.4l0.5,0.2l0.5,0l0.5,0.2l0.5,0l0.5,0l0.5,0l0.5,-0.2l0.5,0l0.5,-0.2l0.5,0l0.5,-0.2l0.5,0l0.5,0l0.5,-0.2l0.5,0l0.5,-0.2l0.5,0l0.5,-0.2l0.5,0l0.5,0l0.5,0l0.5,-0.2l0.5,0l0.5,-0.2l0.5,-0.2l0.5,0l0.5,-0.2l0.5,-0.2l0.5,-0.2l0.5,-0.2l0.5,-0.2l0.5,-0.2l0.5,-0.2l0.5,0l0.5,-0.2l0.5,0l0.5,-0.2l0.5,0l0.5,-0.2l0.5,-0.2l0.5,-0.4l0.5,-0.2l0.5,0l0.5,-0.2l0.5,-0.2l0.5,-0.4l0.5,-0.2l0.5,-0.2l0.5,-0.4l0.5,0l0.5,-0.2l0.5,-0.2l0.5,-0.2l0.5,-0.4l0.5,-0.2l0.5,-0.2l0.5,-0.4l0.5,-0.2l0.5,-0.2l0.5,-0.4l0.5,-0.4l0.5,-0.2l0.5,-0.4l0.5,-0.4l0.5,-0.2l0.5,-0.4l0.5,-0.2l0.5,-0.4l0.5,-0.4l0.5,-0.4l0.5,-0.2l0.5,-0.4l0.5,-0.4l0.5,-0.4l0.5,-0.2l0.5,-0.4l0.5,-0.4l0.5,-0.6l0.5,-0.4l0.5,-0.4l0.5,-0.4l0.5,-0.2l0.5,-0.4l0.5,-0.2l0.5,-0.4l0.5,-0.2l0.5,-0.2l0.5,-0.4l0.5,-0.2l0.5,-0.2l0.5,-0.2l0.5,-0.2l0.5,-0.2l0.5,-0.2l0.5,0l0.5,-0.2l0.5,-0.2l0.5,0l0.5,-0.2l0.5,-0.2l0.5,-0.4l0.5,-0.4l0.5,-0.2l0.5,-0.2l0.5,-0.4l0.5,-0.4l0.5,-0.2l0.5,-0.2l0.5,0l0.5,0.6l0.5,0.6l0.5,0.2l0.5,0l0.5,-0.2l0.5,0l0.5,0.8l0.5,0.4l0.5,0.6l0.5,0.6l0.5,0.8l0.5,0.6l0.5,0.6l0.5,0.6l0.5,0.6l0.5,0.4l0.5,0.6l0.5,0.6l0.5,0.6l0.5,0.2l0.5,0.6l0.5,0.4l0.5,0.4l0.5,0.2l0.5,0.4l0.5,0.4l0.5,0.4l0.5,0.6l0.5,0.4l0.5,0.2l0.5,0.4l0.5,0.4l0.5,0.6l0.5,0.4l0.5,0.2l0.5,0.4l0.5,0.4l0.5,0.4l0.5,0.2l0.5,0.2l0.5,0.4l0.5,0.4l0.5,0.4l0.5,0.4l0.5,0.4l0.5,0.4l0.5,0.4l0.5,0.2l0.5,0.4l0.5,0.4l0.5,0.4l0.5,0.4l0.5,0.2l0.5,0.6l0.5,0.2l0.5,0.2l0.5,0.4l0.5,0.2l0.5,0.4l0.5,0.4l0.5,0.4l0.5,0.4l0.5,0.4l0.5,0.6l0.5,0.6l0.5,0.2l0.5,0.4l0.5,0.8l0.5,0.4l0.5,0.4l0.5,0.2l0.5,0.2l0.5,0.6l0.5,1l0.5,0.6l0.5,0.8l0.5,1l0.5,0.6l0.5,0.6l0.5,0.6l0.5,0.6l0.5,0.6l0.5,0.8l0.5,0.8l0.5,0.6l0.5,0.6l0.5,0.8l0.5,1.2l0.5,0.8l0.5,1l0.5,0.4l0.5,0.6l0.5,0.8l0.5,0.6l0.5,0.4l0.5,0.6l0.5,0.6l0.5,0.8l0.5,1l0.5,0.8l0.5,-0.2l0.5,0.8l0.5,0.8l0.5,1l0.5,0.2l0.5,0.4l0.5,0.8l0.5,0.8l0.5,0.6l0.5,0.6l0.5,0.6l0.5,0.2l0.5,0.4l0.5,0l0.5,0.4l0.5,0.4l0.5,0.2l0.5,0.2l0.5,0l0.5,0l0.5,0.2l0.5,0l0.5,0l0.5,0.2l0.5,0l0.5,0.2l0.5,-0.2l0.5,0l0.5,0.2l0.5,0.4l0.5,0.2l0.5,0.4l0.5,0.2l0.5,0.6l0.5,0.2l0.5,0.2l0.5,0.4l0.5,0.6l0.5,0.4l0.5,0.6l0.5,0.6l0.5,0.6l0.5,1l0.5,0.6l0.5,0.6l0.5,0.6l0.5,0.4l0.5,0.4l0.5,0.4l0.5,0.4l0.5,0l0.5,0l0.5,-0.2l0.5,0.2l0.5,0.4l0.5,0.4l0.5,0.2l0.5,0l0.5,-0.2l0.5,-0.4l0.5,-0.2l0.5,0l0.5,-0.2l0.5,-0.2l0.5,-0.2l0.5,-0.2l0.5,0l0.5,0l0.5,-0.2l0.5,0l0.5,-0.2l0.5,0.2l0.5,0l0.5,0l0.5,0l0.5,-0.2l0.5,-0.2l0.5,-0.2l0.5,-0.2l0.5,-0.4l0.5,-0.2l0.5,-0.4l0.5,-0.2l0.5,-0.2l0.5,-0.2l0.5,-0.2l0.5,-0.2l0.5,0l0.5,-0.2l0.5,-0.4l0.5,-0.2l0.5,0l0.5,0l0.5,-0.2l0.5,-0.2l0.5,0l0.5,0l0.5,0l0.5,0l0.5,0.2l0.5,0l0.5,0l0.5,-0.2l0.5,0l0.5,-0.4l0.5,-0.2l0.5,0l0.5,-0.2l0.5,-0.2l0.5,-0.2l0.5,0l0.5,0l0.5,0l0.5,0l0.5,0.2l0.5,0l0.5,0l0.5,-0.2l0.5,-0.2l0.5,0l0.5,0l0.5,-0.2l0.5,-0.2l0.5,0l0.5,0l0.5,0l0.5,-0.2l0.5,0l0.5,-0.2l0.5,-0.2l0.5,-0.2l0.5,0l0.5,-0.2l0.5,0l0.5,0l0.5,0l0.5,-0.2l0.5,-0.2l0.5,-0.4l0.5,0l0.5,-0.2l0.5,0l0.5,0l0.5,-0.2l0.5,0.2l0.5,-0.2l0.5,0l0.5,-0.2l0.5,0l0.5,0l0.5,-0.2l0.5,0l0.5,0l0.5,0l0.5,0.2l0.5,0l0.5,0l0.5,-0.2l0.5,0l0.5,-0.2l0.5,0l0.5,-0.2l0.5,0.2l0.5,0l0.5,0l0.5,0l0.5,0l0.5,-0.2l0.5,-0.2l0.5,-0.2l0.5,-0.2l0.5,0l0.5,-0.2l0.5,0l0.5,-0.2l0.5,0l0.5,-0.2l0.5,0l0.5,0l0.5,0l0.5,0l0.5,0l0.5,0l0.5,0.2l0.5,-0.2l0.5,-0.2l0.5,-0.2l0.5,0l0.5,0l0.5,0l0.5,-0.2l0.5,-0.2l0.5,0.2l0.5,-0.2l0.5,0l0.5,0l0.5,0l0.5,-0.2l0.5,-0.2l0.5,0l0.5,-0.4l0.5,-0.2l0.5,-0.2l0.5,-0.4l0.5,-0.2l0.5,-0.2l0.5,0l0.5,-0.4l0.5,-0.2l0.5,-0.4l0.5,-0.2l0.5,-0.2l0.5,-0.2l0.5,-0.2l0.5,-0.2l0.5,0l0.5,-0.2l0.5,0l0.5,0l0.5,0l0.5,0.2l0.5,0.2l0.5,0.2l0.5,0.2l0.5,0.2l0.5,0.2l0.5,0.4l0.5,0.2l0.5,0.2l0.5,0.4l0.5,0.2l0.5,0l0.5,0l0.5,0l0.5,0l0.5,0l0.5,-0.2l0.5,-0.4l0.5,-0.2l0.5,0l0.5,-0.4l0.5,-0.2l0.5,-0.2l0.5,-0.4l0.5,-0.4l0.5,-0.2l0.5,-0.2l0.5,-0.2l0.5,-0.4l0.5,-0.2l0.5,-0.2l0.5,-0.4l0.5,-0.4l0.5,-0.4l0.5,-0.4l0.5,-0.2l0.5,-0.4l0.5,-0.2l0.5,-0.4l0.5,-0.4l0.5,-0.4l0.5,-0.4l0.5,-0.4l0.5,-0.2l0.5,-0.4l0.5,-0.6l0.5,-0.2l0.5,-0.2l0.5,-0.2l0.5,-0.2l0.5,0l0.5,-0.2l0.5,-0.2l0.5,0.2l0.5,0.2l0.5,0l0.5,0l0.5,-0.2l0.5,0.2l0.5,0l0.5,0l0.5,0l0.5,-0.2l0.5,0l0.5,-0.2l0.5,0l0.5,-0.2l0.5,0l0.5,0l0.5,-0.2l0.5,0l0.5,0l0.5,0l0.5,-0.2l0.5,-0.4l0.5,-0.2l0.5,-0.2l0.5,-0.2l0.5,-0.2l0.5,-0.2l0.5,0l0.5,0l0.5,-0.2l0.5,-0.2l0.5,-0.4l0.5,-0.2l0.5,-0.2l0.5,-0.4l0.5,-0.2l0.5,-0.4l0.5,-0.2l0.5,-0.2l0.5,-0.2l0.5,0l0.5,-0.4l0.5,-0.2l0.5,-0.4l0.5,-0.2l0.5,-0.2l0.5,-0.2l0.5,0l0.5,-0.2l0.5,-0.2l0.5,-0.2l0.5,-0.2l0.5,0l0.5,-0.2l0.5,0l0.5,-0.2l0.5,-0.2l0.5,0l0.5,-0.2l0.5,0l0.5,-0.2l0.5,0l0.5,-0.2l0.5,-0.2l0.5,-0.2l0.5,-0.2l0.5,-0.2l0.5,0l0.5,-0.2l0.5,-0.2l0.5,-0.4l0.5,-0.2l0.5,-0.2l0.5,-0.2l0.5,-0.2l0.5,-0.2l0.5,-0.2l0.5,0l0.5,-0.2l0.5,0l0.5,-0.2l0.5,-0.4l0.5,-0.2l0.5,0.2l0.5,-0.2l0.5,-0.4l0.5,-0.4l0.5,-0.2l0.5,-0.4l0.5,-0.2l0.5,-0.4l0.5,-0.4l0.5,0l0.5,-0.4l0.5,0l0.5,0l0.5,0l0.5,-0.2l0.5,-0.2l0.5,-0.2l0.5,0l0.5,0l0.5,0.2l0.5,0l0.5,0.2l0.5,-0.2l0.5,0l0.5,0l0.5,-0.2l0.5,-0.2l0.5,-0.2l0.5,0l0.5,0l0.5,0l0.5,0l0.5,0l0.5,0l0.5,0l0.5,0.2l0.5,0.2l0.5,0.2l0.5,0.2l0.5,0.4l0.5,0.2l0.5,0.2l0.5,0.2l0.5,0.2l0.5,0.4l0.5,0.2l0.5,0.2l0.5,0l0.5,0l0.5,0.2l0.5,0l0.5,0.2l0.5,0.2l0.5,0l0.5,0l0.5,-0.2l0.5,-0.2l0.5,-0.2l0.5,-0.2l0.5,0l0.5,0l0.5,0.2l0.5,0.2l0.5,0.2l0.5,0l0.5,0l0.5,0.2l0.5,-0.2l0.5,-0.2l0.5,0.2l0.5,0.2l0.5,0.2l0.5,0l0.5,0l0.5,0l0.5,0l0.5,0.4l0.5,0.2l0.5,0.4l0.5,0.2l0.5,0.6l0.5,-0.2l0.5,0l0.5,-0.2l0.5,-0.4l0.5,-0.2l0.5,-0.2l0.5,-0.2l0.5,0l0.5,0l0.5,0l0.5,0l0.5,-0.4l0.5,0.2l0.5,0.2l0.5,0l0.5,0l0.5,-0.2l0.5,0l0.5,0.2l0.5,-0.2l0.5,0l0.5,0l0.5,-0.4l0.5,0l0.5,-0.2l0.5,-0.4l0.5,0l0.5,-0.2l0.5,-0.2l0.5,-0.4l0.5,0l0.5,0l0.5,0.4l0.5,0.2l0.5,0.4l0.5,0.4l0.5,-0.6l0.5,0.2l0.5,0.2l0.5,0.2l0.5,0l0.5,0.2l0.5,0.4l0.5,0.2l0.5,0l0.5,0l0.5,-0.4l0.5,0l0.5,0l0.5,0l0.5,0l0.5,-0.2l0.5,0l0.5,0.4l0.5,0.2l0.5,0.2l0.5,0l0.5,-0.4l0.5,-0.4l0.5,-0.2l0.5,-0.2l0.5,-0.2l0.5,0l0.5,0l0.5,0l0.5,0l0.5,0.4l0.5,0l0.5,0.4l0.5,0.2l0.5,0l0.5,0l0.5,0.2l0.5,0.4l0.5,0.2l0.5,0l0.5,0.2l0.5,0.2l0.5,0l0.5,0l0.5,-0.2l0.5,-0.2l0.5,0.4l0.5,0l0.5,0l0.5,0l0.5,0l0.5,0.2l0.5,0.2l0.5,0.2l0.5,0l0.5,0l0.5,-0.2l0.5,0l0.5,-0.2l0.5,0l0.5,0l0.5,0l0.5,0l0.5,0l0.5,0.2l0.5,-0.2l0.5,0l0.5,0l0.5,0l0.5,0l0.5,-0.2l0.5,0l0.5,-0.2l0.5,0l0.5,-0.2l0.5,-0.2l0.5,-0.2l0.5,-0.2l0.5,-0.4l0.5,-0.2l0.5,0l0.5,-0.2l0.5,0l0.5,0l0.5,-0.2l0.5,0l0.5,-0.2l0.5,0l0.5,-0.4l0.5,-0.2l0.5,-0.4l0.5,-0.2l0.5,-0.2l0.5,-0.4l0.5,0l0.5,0l0.5,0l0.5,0.2l0.5,0l0.5,0.2l0.5,0l0.5,0l0.5,-0.2l0.5,-0.4l0.5,-0.2l0.5,-0.2l0.5,-0.2l0.5,-0.4l0.5,-0.2l0.5,-0.2l0.5,-0.2l0.5,-0.4l0.5,-0.2l0.5,-0.2l0.5,-0.4l0.5,-0.6l0.5,-0.2l0.5,-0.2l0.5,-0.2l0.5,-0.4l0.5,-0.2l0.5,-0.2l0.5,-0.2l0.5,-0.2l0.5,-0.2l0.5,0.2l0.5,0l0.5,0l0.5,0.2l0.5,0.2l0.5,-0.2l0.5,0l0.5,-0.2l0.5,0l0.5,-0.2l0.5,0l0.5,-0.2l0.5,0l0.5,-0.4l0.5,-0.2l0.5,-0.2l0.5,-0.2l0.5,-0.2l0.5,-0.2l0.5,-0.2l0.5,0l0.5,0l0.5,-0.2l0.5,-0.2l0.5,-0.2l0.5,-0.2l0.5,-0.2l0.5,-0.2l0.5,-0.2l0.5,-0.2l0.5,-0.4l0.5,0l0.5,-0.2l0.5,-0.2l0.5,-0.2l0.5,-0.2l0.5,-0.2l0.5,-0.2l0.5,0l0.5,-0.2l0.5,-0.4l0.5,-0.2l0.5,-0.2l0.5,-0.2l0.5,0l0.5,-0.2l0.5,-0.2l0.5,-0.2l0.5,0l0.5,-0.2l0.5,-0.2l0.5,-0.2l0.5,-0.2l0.5,-0.2l0.5,-0.2l0.5,-0.4l0.5,-0.2l0.5,-0.2l0.5,-0.2l0.5,-0.2l0.5,-0.2l0.5,-0.2l0.5,0l0.5,-0.2l0.5,0l0.5,-0.2l0.5,-0.4l0.5,-0.2l0.5,-0.4l0.5,-0.4l0.5,-0.2l0.5,-0.4l0.5,-0.2l0.5,-0.4l0.5,-0.2l0.5,-0.4l0.5,-0.2l0.5,-0.2l0.5,-0.4l0.5,-0.2l0.5,-0.2l0.5,-0.4l0.5,-0.2l0.5,-0.4l0.5,-0.4l0.5,-0.2l0.5,-0.2l0.5,-0.4l0.5,-0.2l0.5,-0.2l0.5,-0.4l0.5,-0.4l0.5,-0.4l0.5,-0.4l0.5,-0.2l0.5,-0.2l0.5,-0.2l0.5,-0.4l0.5,-0.2l0.5,-0.4l0.5,-0.2l0.5,-0.4l0.5,-0.4l0.5,-0.4l0.5,-0.2l0.5,-0.2l0.5,-0.4l0.5,-0.4l0.5,-0.2l0.5,-0.4l0.5,-0.4l0.5,-0.4l0.5,-0.4l0.5,-0.2l0.5,-0.2l0.5,-0.2l0.5,-0.4l0.5,-0.2l0.5,-0.2l0.5,-0.4l0.5,-0.2l0.5,-0.4l0.5,-0.2l0.5,-0.4l0.5,-0.2l0.5,-0.4l0.5,-0.2l0.5,-0.2l0.5,-0.2l0.5,-0.4l0.5,-0.2l0.5,-0.4l0.5,-0.4l0.5,-0.4l0.5,-0.2l0.5,0l0.5,0.2l0.5,0.2l0.5,0.2l0.5,0.2l0.5,0l0.5,0.4l0.5,0.2l0.5,0.4l0.5,0.4l0.5,0.2l0.5,0l0.5,0.2l0.5,0.2l0.5,0.2l0.5,0l0.5,0l0.5,0l0.5,0l0.5,0l0.5,0l0.5,-0.2l0.5,0l0.5,-0.4l0.5,0l0.5,-0.2l0.5,0.2l0.5,0l0.5,0l0.5,0.2l0.5,0.4l0.5,0.2l0.5,0l0.5,0.2l0.5,0l0.5,-0.2l0.5,-0.4l0.5,-0.4l0.5,-0.4l0.5,-0.4l0.5,0l0.5,-0.2l0.5,-0.2l0.5,-0.2l0.5,-0.2l0.5,-0.2l0.5,-0.2l0.5,-0.2l0.5,-0.2l0.5,-0.6l0.5,-0.4l0.5,-0.4l0.5,-0.2l0.5,-0.4l0.5,0l0.5,-0.2l0.5,-0.4l0.5,-0.2l0.5,-0.2l0.5,0l0.5,-0.2l0.5,0l0.5,-0.2l0.5,0l0.5,0l0.5,0.2l0.5,0l0.5,0.2l0.5,0.2l0.5,0l0.5,0.2l0.5,0l0.5,0l0.5,0l0.5,-0.2l0.5,0l0.5,0l0.5,-0.2l0.5,0l0.5,-0.4l0.5,-0.2l0.5,-0.2l0.5,0l0.5,-0.2l0.5,0l0.5,0.2l0.5,-0.2l0.5,-0.2l0.5,0.2l0.5,0l0.5,0l0.5,-0.2l0.5,0l0.5,-0.2l0.5,0l0.5,-0.2l0.5,0l0.5,0.2l0.5,-0.2l0.5,0l0.5,0l0.5,-0.2l0.5,0l0.5,0l0.5,0l0.5,0l0.5,0l0.5,0.2l0.5,0.2l0.5,0.4l0.5,0.2l0.5,0.4l0.5,0l0.5,-0.2l0.5,-0.2l0.5,0l0.5,-0.4l0.5,-0.2l0.5,-0.2l0.5,-0.4l0.5,-0.2l0.5,-0.2l0.5,-0.2l0.5,0l0.5,0l0.5,0l0.5,-0.2l0.5,0l0.5,0l0.5,-0.2l0.5,0l0.5,0.2l0.5,0l0.5,0l0.5,0.2l0.5,0.6l0.5,0.2l0.5,0.4l0.5,0.4l0.5,0.2l0.5,0.4l0.5,0.4l0.5,0.4l0.5,0.4l0.5,0.4l0.5,0.6l0.5,1l0.5,1l0.5,1l0.5,0.8l0.5,0.8l0.5,0.6l0.5,0.4l0.5,0.2l0.5,0l0.5,0l0.5,0l0.5,-0.2l0.5,-0.6l0.5,-0.2l0.5,-0.2l0.5,-0.2l0.5,-0.2l0.5,-0.2l0.5,-0.2l0.5,-0.4l0.5,-0.4l0.5,-0.6l0.5,-0.6l0.5,-0.6l0.5,-0.4l0.5,-0.6l0.5,-0.4l0.5,-0.4l0.5,-0.4l0.5,-0.2l0.5,-0.4l0.5,-0.2l0.5,-0.4l0.5,-0.4l0.5,-0.2l0.5,-0.4l0.5,-0.2l0.5,-0.4l0.5,-0.4l0.5,-0.4l0.5,-0.4l0.5,-0.4l0.5,-0.4l0.5,-0.4l0.5,-0.4l0.5,-0.4l0.5,-0.2l0.5,-0.2l0.5,-0.4l0.5,-0.2l0.5,-0.2l0.5,-0.4l0.5,-0.4l0.5,-0.2l0.5,-0.4l0.5,-0.4l0.5,-0.4l0.5,-0.4l0.5,-0.4l0.5,-0.2l0.5,-0.4l0.5,-0.2l0.5,-0.2l0.5,-0.2l0.5,-0.4l0.5,-0.2l0.5,-0.2l0.5,-0.2l0.5,-0.4l0.5,-0.2l0.5,-0.2l0.5,-0.4l0.5,-0.4l0.5,-0.4l0.5,-0.4l0.5,-0.4l0.5,-0.2l0.5,-0.4l0.5,-0.2l0.5,-0.4l0.5,-0.2l0.5,-0.2l0.5,-0.4l0.5,-0.2l0.5,-0.2l0.5,-0.2l0.5,0l0.5,-0.2l0.5,-0.2l0.5,-0.2l0.5,-0.2l0.5,-0.2l0.5,-0.2l0.5,-0.4l0.5,-0.2l0.5,-0.4l0.5,-0.2l0.5,-0.4l0.5,-0.2l0.5,-0.4l0.5,-0.2l0.5,-0.4l0.5,-0.2l0.5,-0.2l0.5,0l0.5,-0.2l0.5,-0.2l0.5,0l0.5,-0.4l0.5,-0.2l0.5,0l0.5,-0.2l0.5,-0.4l0.5,-0.4l0.5,-0.4l0.5,-0.2l0.5,-0.2l0.5,-0.2l0.5,-0.4l0.5,-0.4l0.5,-0.4l0.5,-0.2l0.5,-0.2l0.5,-0.2l0.5,-0.2l0.5,-0.2l0.5,-0.2l0.5,0l0.5,-0.2l0.5,0l0.5,0l0.5,0.2l0.5,-0.2l0.5,-0.4l0.5,0.2l0.5,0.2l0.5,-0.2l0.5,-0.2l0.5,0l0.5,0.2l0.5,0l0.5,-0.4l0.5,-0.2l0.5,-0.2l0.5,0l0.5,-0.4l0.5,0l0.5,-0.2l0.5,0l0.5,0l0.5,-0.2l0.5,-0.2l0.5,-0.4l0.5,0l0.5,-0.2l0.5,-0.2l0.5,-0.2l0.5,-0.2l0.5,0l0.5,-0.4l0.5,-0.2l0.5,-0.2l0.5,-0.2l0.5,-0.4l0.5,-0.2l0.5,-0.2l0.5,-0.2l0.5,-0.2l0.5,-0.2l0.5,-0.4l0.5,-0.2l0.5,-0.2l0.5,-0.2l0.5,-0.2l0.5,-0.2l0.5,-0.2l0.5,0l0.5,-0.2l0.5,-0.2l0.5,-0.2l0.5,-0.2l0.5,-0.4l0.5,-0.2l0.5,-0.2l0.5,0l0.5,-0.2l0.5,-0.2l0.5,-0.2l0.5,0l0.5,-0.2l0.5,-0.4l0.5,-0.2l0.5,-0.2l0.5,-0.2l0.5,0l0.5,-0.2l0.5,-0.2l0.5,-0.2l0.5,-0.2l0.5,-0.2l0.5,-0.2l0.5,-0.2l0.5,-0.2l0.5,-0.2l0.5,-0.2l0.5,-0.2l0.5,-0.2l0.5,-0.4l0.5,-0.2l0.5,-0.4l0.5,-0.2l0.5,0l0.5,-0.2l0.5,-0.4l0.5,-0.2l0.5,-0.2l0.5,-0.4l0.5,-0.4l0.5,0l0.5,-0.4l0.5,-0.2l0.5,0l0.5,0l0.5,-0.2l0.5,0l0.5,-0.2l0.5,0l0.5,-0.2l0.5,-0.4l0.5,-0.2l0.5,-0.2l0.5,-0.2l0.5,0l0.5,0l0.5,-0.2l0.5,0l0.5,0l0.5,-0.2l0.5,0l0.5,0l0.5,-0.2l0.5,0l0.5,0l0.5,-0.2l0.5,0l0.5,-0.2l0.5,0l0.5,0.2l0.5,0l0.5,0l0.5,0.2l0.5,0l0.5,-0.2l0.5,-0.2l0.5,0l0.5,-0.2l0.5,-0.2l0.5,0l0.5,0l0.5,0l0.5,0l0.5,-0.2l0.5,0l0.5,-0.4l0.5,0.2l0.5,-0.2l0.5,0l0.5,0l0.5,0l0.5,-0.2l0.5,-0.2l0.5,0l0.5,0l0.5,0l0.5,-0.2l0.5,-0.2l0.5,0l0.5,0.4l0.5,0.2l0.5,0.2l0.5,0l0.5,0l0.5,0l0.5,0l0.5,0l0.5,0l0.5,0l0.5,-0.2l0.5,-0.4l0.5,0l0.5,0.2l0.5,0.2l0.5,0l0.5,-0.2l0.5,-0.2l0.5,0l0.5,-0.2l0.5,-0.2l0.5,0l0.5,0l0.5,0l0.5,0l0.5,-0.2l0.5,-0.4l0.5,-0.4l0.5,-0.8l0.5,-0.4l0.5,0l0.5,0.2l0.5,0.4l0.5,0.4l0.5,0.2l0.5,0l0.5,0.2l0.5,0.2l0.5,0.2l0.5,0.2l0.5,0.2l0.5,0.4l0.5,0l0.5,0.2l0.5,-0.2l0.5,0l0.5,0.2l0.5,0.2l0.5,0l0.5,0.4l0.5,0.2l0.5,0.2l0.5,0.2l0.5,0.4l0.5,0l0.5,-0.2l0.5,0l0.5,0.2l0.5,0.2l0.5,0.2l0.5,0.2l0.5,0.2l0.5,0l0.5,0.2l0.5,0l0.5,0l0.5,0.2l0.5,0.2l0.5,0l0.5,0.2l0.5,0.2l0.5,0.2l0.5,0.2l0.5,0l0.5,0l0.5,0l0.5,0l0.5,-0.4l0.5,-0.2l0.5,-0.2l0.5,-0.4l0.5,-0.2l0.5,-0.2l0.5,-0.2l0.5,-0.2l0.5,-0.2l0.5,-0.4l0.5,-0.4l0.5,-0.4l0.5,-0.2l0.5,-0.4l0.5,-0.2l0.5,-0.2l0.5,-0.2l0.5,-0.2l0.5,-0.4l0.5,0.2l0.5,-0.2l0.5,0l0.5,0l0.5,-0.4l0.5,-0.4l0.5,-0.4l0.5,-0.2l0.5,-0.4l0.5,-0.2l0.5,-0.2l0.5,-0.2l0.5,-0.2l0.5,0l0.5,0l0.5,0.2l0.5,-0.2l0.5,0l0.5,-0.2l0.5,-0.2l0.5,-0.4l0.5,-0.2l0.5,-0.4l0.5,-0.2l0.5,0l0.5,0l0.5,0.4l0.5,0l0.5,-0.4l0.5,-0.2l0.5,-0.4l0.5,0l0.5,-0.2l0.5,-0.4l0.5,-0.2l0.5,-0.2l0.5,-0.2l0.5,-0.4l0.5,-0.4l0.5,0l0.5,-0.2l0.5,0l0.5,-0.2l0.5,-0.2l0.5,-0.2l0.5,-0.2l0.5,-0.4l0.5,-0.4l0.5,-0.4l0.5,-0.4l0.5,-0.2l0.5,-0.4l0.5,-0.2l0.5,0l0.5,-0.2l0.5,-0.4l0.5,-0.2l0.5,-0.4l0.5,-0.4l0.5,-0.4l0.5,-0.4l0.5,-0.4l0.5,-0.4l0.5,-0.2l0.5,-0.2l0.5,-0.4l0.5,-0.2l0.5,-0.4l0.5,-0.4l0.5,-0.4l0.5,-0.2l0.5,-0.4l0.5,-0.4l0.5,0l0.5,0l0.5,-0.2l0.5,0l0.5,-0.2l0.5,-0.4l0.5,-0.2l0.5,0l0.5,0l0.5,0.2l0.5,0l0.5,0l0.5,-0.4l0.5,-0.2l0.5,-0.4l0.5,-0.2l0.5,-0.4l0.5,-0.2l0.5,-0.2l0.5,-0.4l0.5,-0.2l0.5,-0.2l0.5,0l0.5,-0.2l0.5,0l0.5,-0.2l0.5,0l0.5,-0.2l0.5,0l0.5,0l0.5,0l0.5,-0.2l0.5,-0.2l0.5,0l0.5,-0.2l0.5,0l0.5,-0.2l0.5,-0.2l0.5,-0.2l0.5,-0.2l0.5,-0.2l0.5,-0.2l0.5,-0.2l0.5,-0.2l0.5,-0.4l0.5,0l0.5,-0.2l0.5,-0.2l0.5,-0.2l0.5,0l0.5,0.2l0.5,0l0.5,-0.2l0.5,0l0.5,-0.2l0.5,-0.2l0.5,-0.2l0.5,0l0.5,0l0.5,0l0.5,0.2l0.5,0l0.5,0.2l0.5,0l0.5,0l0.5,-0.2l0.5,-0.2l0.5,0.2l0.5,0l0.5,-0.2l0.5,-0.2l0.5,0.2l0.5,0l0.5,0l0.5,-0.2l0.5,0l0.5,-0.2l0.5,-0.2l0.5,-0.4l0.5,-0.2l0.5,-0.2l0.5,-0.4l0.5,-0.2l0.5,-0.4l0.5,-0.4l0.5,-0.4l0.5,-0.2l0.5,-0.4l0.5,-0.4l0.5,-0.4l0.5,-0.2l0.5,-0.4l0.5,-0.4l0.5,-0.6l0.5,-0.4l0.5,-0.6l0.5,-0.4l0.5,-0.4l0.5,-0.2l0.5,-0.2l0.5,-0.4l0.5,-0.4l0.5,-0.2l0.5,-0.2l0.5,-0.4l0.5,-0.2l0.5,-0.4l0.5,-0.2l0.5,-0.4l0.5,-0.4l0.5,-0.4l0.5,-0.4l0.5,-0.4l0.5,-0.4l0.5,-0.2l0.5,-0.2l0.5,-0.4l0.5,-0.2l0.5,-0.2l0.5,-0.4l0.5,-0.2l0.5,-0.4l0.5,-0.2l0.5,-0.2l0.5,-0.2l0.5,-0.2l0.5,-0.2l0.5,-0.2l0.5,0l0.5,-0.2l0.5,0l0.5,-0.2l0.5,-0.2l0.5,-0.2l0.5,0l0.5,-0.2l0.5,0l0.5,-0.2l0.5,-0.2l0.5,-0.2l0.5,0l0.5,-0.2l0.5,-0.2l0.5,-0.2l0.5,-0.2l0.5,-0.4l0.5,-0.2l0.5,0l0.5,0l0.5,-0.2l0.5,-0.2l0.5,-0.2l0.5,-0.2l0.5,-0.2l0.5,-0.2l0.5,-0.2l0.5,-0.4l0.5,-0.2l0.5,-0.4l0.5,-0.2l0.5,-0.2l0.5,-0.2l0.5,-0.2l0.5,-0.4l0.5,-0.2l0.5,-0.2l0.5,-0.2l0.5,-0.4l0.5,-0.2l0.5,-0.2l0.5,-0.4l0.5,-0.4l0.5,-0.4l0.5,-0.4l0.5,-0.2l0.5,-0.2l0.5,-0.4l0.5,-0.2l0.5,-0.4l0.5,-0.2l0.5,-0.4l0.5,-0.4l0.5,-0.4l0.5,-0.2l0.5,0l0.5,-0.2l0.5,0l0.5,0l0.5,0l0.5,-0.2l0.5,-0.2l0.5,-0.4l0.5,-0.4l0.5,0l0.5,-0.2l0.5,0l0.5,-0.2l0.5,0l0.5,0l0.5,0.2l0.5,0l0.5,0l0.5,-0.2l0.5,-0.2l0.5,0l0.5,-0.4l0.5,0l0.5,-0.2l0.5,-0.2l0.5,-0.4l0.5,-0.2l0.5,-0.2l0.5,0.2l0.5,0l0.5,-0.2l0.5,0l0.5,-0.2l0.5,-0.2l0.5,-0.2l0.5,-0.2l0.5,-0.2l0.5,0l0.5,0l0.5,-0.2l0.5,-0.2l0.5,-0.2l0.5,-0.4l0.5,-0.2l0.5,-0.2l0.5,-0.4l0.5,0l0.5,-0.2l0.5,-0.4l0.5,-0.4l0.5,-0.2l0.5,-0.4l0.5,-0.4l0.5,-0.2l0.5,-0.2l0.5,-0.2l0.5,-0.4l0.5,-0.4l0.5,-0.2l0.5,-0.2l0.5,-0.2l0.5,-0.2l0.5,-0.2l0.5,-0.4l0.5,-0.4l0.5,-0.2l0.5,-0.2l0.5,-0.2l0.5,-0.2l0.5,-0.2l0.5,-0.4l0.5,-0.4l0.5,-0.2l0.5,-0.4l0.5,-0.2l0.5,-0.4l0.5,-0.4l0.5,-0.2l0.5,-0.2l0.5,-0.2l0.5,-0.2l0.5,-0.2l0.5,0l0.5,-0.2l0.5,-0.4l0.5,-0.2l0.5,-0.2l0.5,-0.2l0.5,-0.2l0.5,0l0.5,-0.2l0.5,-0.2l0.5,-0.2l0.5,-0.4l0.5,-0.4l0.5,-0.2l0.5,-0.2l0.5,-0.2l0.5,0l0.5,-0.2l0.5,-0.4l0.5,0l0.5,-0.2l0.5,-0.2l0.5,-0.2l0.5,-0.4l0.5,-0.2l0.5,0l0.5,0l0.5,-0.4l0.5,-0.2l0.5,0l0.5,-0.2l0.5,-0.4l0.5,-0.2l0.5,-0.2l0.5,-0.2l0.5,-0.2l0.5,-0.2l0.5,-0.2l0.5,-0.4l0.5,0l0.5,-0.2l0.5,-0.2l0.5,-0.4l0.5,0l0.5,-0.2l0.5,-0.2l0.5,-0.2l0.5,0l0.5,-0.2l0.5,-0.2l0.5,-0.2l0.5,-0.2l0.5,-0.2l0.5,-0.2l0.5,0l0.5,-0.2l0.5,-0.2l0.5,0l0.5,-0.2l0.5,0l0.5,-0.2l0.5,-0.2l0.5,0l0.5,-0.2l0.5,-0.2l0.5,-0.2l0.5,0l0.5,-0.2l0.5,0.2l0.5,0l0.5,0l0.5,0l0.5,0l0.5,0l0.5,-0.2l0.5,0l0.5,-0.2l0.5,-0.2l0.5,-0.2l0.5,-0.2l0.5,0l0.5,-0.2l0.5,-0.2l0.5,-0.2l0.5,-0.2l0.5,-0.4l0.5,-0.2l0.5,0l0.5,0l0.5,0l0.5,0.2l0.5,0.2l0.5,0l0.5,0.2l0.5,0.2l0.5,0l0.5,0l0.5,0l0.5,0l0.5,-0.2l0.5,-0.2l0.5,0l0.5,0.2l0.5,0.2l0.5,0l0.5,0l0.5,0l0.5,0.2l0.5,-0.2l0.5,0l0.5,-0.2l0.5,0l0.5,-0.2l0.5,0.2l0.5,0l0.5,0l0.5,0l0.5,0l0.5,0.2l0.5,-0.2l0.5,0l0.5,0l0.5,0l0.5,0.2l0.5,0l0.5,0.2l0.5,0l0.5,0l0.5,0l0.5,0l0.5,-0.2l0.5,-0.2l0.5,-0.2l0.5,0l0.5,-0.2l0.5,0l0.5,0l0.5,-0.2l0.5,0l0.5,0l0.5,-0.2l0.5,0l0.5,-0.2l0.5,-0.2l0.5,0l0.5,-0.2l0.5,-0.4l0.5,-0.4l0.5,-0.2l0.5,-0.2l0.5,-0.4l0.5,-0.2l0.5,-0.4l0.5,0l0.5,-0.2l0.5,-0.2l0.5,0l0.5,-0.2l0.5,-0.2l0.5,0l0.5,-0.2l0.5,0l0.5,-0.2l0.5,-0.2l0.5,-0.2l0.5,-0.2l0.5,0l0.5,-0.2l0.5,0l0.5,0l0.5,-0.2l0.5,0.2l0.5,0l0.5,-0.2l0.5,0l0.5,0l0.5,-0.2l0.5,-0.2l0.5,-0.2l0.5,-0.2l0.5,-0.2l0.5,0.2l0.5,-0.2l0.5,0l0.5,0l0.5,-0.2l0.5,-0.4l0.5,-0.4l0.5,-0.4l0.5,-0.2l0.5,-0.2l0.5,-0.2l0.5,-0.2l0.5,-0.4l0.5,0l0.5,-0.2l0.5,0l0.5,-0.2l0.5,-0.4l0.5,-0.4l0.5,-0.4l0.5,-0.4l0.5,-0.2l0.5,0l0.5,-0.4l0.5,0.2l0.5,-0.2l0.5,-0.2l0.5,0l0.5,0l0.5,0l0.5,0.2l0.5,0.2l0.5,0.2l0.5,0.4l0.5,0.2l0.5,0.4l0.5,0l0.5,0.2l0.5,0.6l0.5,0l0.5,0.2l0.5,0.2l0.5,0.2l0.5,0l0.5,0l0.5,0l0.5,0.4l0.5,-0.4l0.5,0l0.5,0.2l0.5,0.2l0.5,0l0.5,0.2l0.5,0l0.5,0l0.5,0l0.5,-0.2l0.5,0.2l0.5,-0.2l0.5,0.2l0.5,0l0.5,0l0.5,0.2l0.5,-0.2l0.5,0l0.5,0l0.5,-0.2l0.5,0l0.5,0l0.5,0l0.5,0.2l0.5,-0.2l0.5,0.2l0.5,0l0.5,0.2l0.5,0l0.5,0l0.5,0l0.5,0l0.5,-0.2l0.5,0l0.5,0.2l0.5,0.4l0.5,0.2l0.5,0l0.5,0l0.5,0.2l0.5,0.2l0.5,0.2l0.5,0.4l0.5,0.4l0.5,0l0.5,0.4l0.5,0.2l0.5,0.4l0.5,0.4l0.5,0.6l0.5,0.4l0.5,0.6l0.5,0.4l0.5,0.4l0.5,0.4l0.5,0.2l0.5,0.2l0.5,0l0.5,-0.2l0.5,0.2l0.5,0l0.5,0.6l0.5,0.4l0.5,0.4l0.5,0.2l0.5,0.4l0.5,0.4l0.5,0.4l0.5,0.8l0.5,0.8l0.5,0.6l0.5,1l0.5,0.8l0.5,0.8l0.5,1.2l0.5,1l0.5,0.8l0.5,0.2l0.5,0l0.5,0l0.5,0.2l0.5,0l0.5,0.2l0.5,0.4l0.5,0.4l0.5,0l0.5,0.4l0.5,0.2l0.5,0.4l0.5,0l0.5,0l0.5,0l0.5,0l0.5,0l0.5,-0.2l0.5,-0.2l0.5,0l0.5,0.2l0.5,0l0.5,0.2l0.5,0.2l0.5,-0.2l0.5,0l0.5,0l0.5,-0.2l0.5,0l0.5,0l0.5,-0.2l0.5,-0.2l0.5,-0.2l0.5,-0.4l0.5,-0.4l0.5,-0.4l0.5,-0.2l0.5,-0.2l0.5,-0.2l0.5,-0.4l0.5,-0.4l0.5,-0.2l0.5,-0.4l0.5,-0.2l0.5,-0.4l0.5,-0.2l0.5,-0.2l0.5,-0.2l0.5,0l0.5,0l0.5,-0.2l0.5,-0.4l0.5,-0.4l0.5,-0.4l0.5,-0.4l0.5,-0.4l0.5,-0.4l0.5,-0.2l0.5,0.2l0.5,-0.2l0.5,-0.6l0.5,-0.2l0.5,-0.2l0.5,-0.4l0.5,-0.2l0.5,-0.4l0.5,0l0.5,0l0.5,0.2l0.5,0.4l0.5,0.2l0.5,0.2l0.5,0.2l0.5,0.2l0.5,0.4l0.5,0l0.5,0l0.5,-0.2l0.5,-0.2l0.5,-0.4l0.5,-0.2l0.5,-0.2l0.5,0l0.5,0l0.5,0l0.5,0.2l0.5,0l0.5,0.2l0.5,-0.4l0.5,-0.2l0.5,-0.4l0.5,-0.6l0.5,-0.4l0.5,-0.2l0.5,-0.6l0.5,-0.6l0.5,0l0.5,0.2l0.5,0l0.5,-0.4l0.5,0l0.5,0l0.5,-0.2l0.5,-0.2l0.5,0l0.5,0.4l0.5,0.4l0.5,0.2l0.5,-0.2l0.5,0.4l0.5,0.4l0.5,0l0.5,0.4l0.5,0.4l0.5,0l0.5,0.2l0.5,0.2l0.5,0l0.5,-0.2l0.5,0.2l0.5,0.2l0.5,0.2l0.5,0l0.5,0.2l0.5,0l0.5,0.2l0.5,0l0.5,0l0.5,0.2l0.5,0.4l0.5,0.4l0.5,0.2l0.5,0.2l0.5,0.4l0.5,-0.4l0.5,-0.2l0.5,0l0.5,-0.4l0.5,-0.2l0.5,-0.2l0.5,-0.4l0.5,-0.2l0.5,-0.2l0.5,-0.2l0.5,-0.2l0.5,-0.2l0.5,-0.2l0.5,-0.2l0.5,0l0.5,0l0.5,0l0.5,0l0.5,0l0.5,0l0.5,0l0.5,-0.2l0.5,-0.2l0.5,0l0.5,-0.4l0.5,-0.2l0.5,0l0.5,0l0.5,-0.2l0.5,-0.2l0.5,0l0.5,-0.2l0.5,0l0.5,-0.2l0.5,-0.4l0.5,-0.2l0.5,-0.4l0.5,-0.2l0.5,-0.2l0.5,-0.2l0.5,-0.2l0.5,-0.2l0.5,-0.4l0.5,-0.4l0.5,-0.2l0.5,-0.4l0.5,-0.4l0.5,-0.6l0.5,-0.6l0.5,-0.2l0.5,-0.2l0.5,-0.2l0.5,-0.2l0.5,-0.2l0.5,-0.2l0.5,-0.4l0.5,-0.4l0.5,-0.4l0.5,-0.4l0.5,-0.6l0.5,-0.4l0.5,-0.2l0.5,-0.4l0.5,-0.2l0.5,-0.2l0.5,-0.4l0.5,-0.4l0.5,-0.4l0.5,-0.4l0.5,-0.2l0.5,-0.6l0.5,-0.2l0.5,-0.2l0.5,-0.2l0.5,-0.2l0.5,-0.2l0.5,-0.2l0.5,-0.2l0.5,-0.4l0.5,-0.2l0.5,-0.2l0.5,-0.2l0.5,-0.4l0.5,-0.2l0.5,-0.2l0.5,-0.2l0.5,-0.2l0.5,-0.2l0.5,-0.2l0.5,-0.2l0.5,-0.4l0.5,-0.2l0.5,-0.4l0.5,-0.2l0.5,-0.2l0.5,-0.2l0.5,-0.2l0.5,-0.2l0.5,-0.2l0.5,-0.4l0.5,-0.4l0.5,-0.4l0.5,-0.4l0.5,-0.6l0.5,-0.4l0.5,-0.4l0.5,-0.4l0.5,-0.2l0.5,-0.4l0.5,-0.2l0.5,-0.4l0.5,-0.4l0.5,-0.4l0.5,-0.2l0.5,-0.4l0.5,-0.4l0.5,-0.2l0.5,-0.4l0.5,-0.4l0.5,-0.4l0.5,-0.2l0.5,-0.4l0.5,-0.2l0.5,-0.4l0.5,-0.4l0.5,-0.2l0.5,-0.4l0.5,-0.2l0.5,-0.4l0.5,-0.2l0.5,-0.2l0.5,0l0.5,-0.2l0.5,-0.2l0.5,-0.2l0.5,-0.4l0.5,-0.2l0.5,-0.2l0.5,-0.2l0.5,-0.4l0.5,-0.4l0.5,-0.2l0.5,-0.2l0.5,-0.2l0.5,-0.4l0.5,0l0.5,-0.2l0.5,-0.2l0.5,-0.2l0.5,-0.2l0.5,0l0.5,-0.4l0.5,-0.2l0.5,-0.2l0.5,0l0.5,-0.4l0.5,-0.4l0.5,-0.4l0.5,-0.2l0.5,-0.2l0.5,-0.2l0.5,-0.2l0.5,-0.2l0.5,0l0.5,0l0.5,-0.4l0.5,0l0.5,0.2l0.5,-0.6l0.5,-0.4l0.5,-0.2l0.5,-0.2l0.5,0.2l0.5,0l0.5,-0.4l0.5,-0.2l0.5,-0.2l0.5,0.2l0.5,0l0.5,0l0.5,-0.2l0.5,0l0.5,0.2l0.5,0l0.5,-0.2l0.5,-0.4l0.5,0l0.5,0l0.5,0.2l0.5,-0.4l0.5,-0.2l0.5,-0.2l0.5,0.2l0.5,-0.2l0.5,0.2l0.5,0l0.5,-0.2l0.5,0.2l0.5,0l0.5,-0.2l0.5,0l0.5,0l0.5,0l0.5,0.2l0.5,0.2l0.5,0l0.5,0.2l0.5,0.2l0.5,0.2l0.5,0l0.5,0.2l0.5,0.4l0.5,0.2l0.5,0.2l0.5,0.4l0.5,0.2l0.5,0.2l0.5,0.2l0.5,0.4l0.5,0.4l0.5,0.2l0.5,0.4l0.5,0.4l0.5,0.6l0.5,0.8l0.5,0l0.5,0.4l0.5,0.6l0.5,0.8l0.5,0.4l0.5,0.6l0.5,0.8l0.5,0.4l0.5,0.4l0.5,0.4l0.5,0.4l0.5,0.4l0.5,1l0.5,0.8l0.5,0.2l0.5,0l0.5,0.4l0.5,0.8l0.5,0.4l0.5,0.6l0.5,1l0.5,1l0.5,0.6l0.5,0.4l0.5,0.2l0.5,0.2l0.5,0l0.5,0.6l0.5,-0.2l0.5,0l0.5,0.8l0.5,0.4l0.5,0.6l0.5,0.8l0.5,0.8l0.5,0.8l0.5,0.6l0.5,0.4l0.5,0.8l0.5,0.2l0.5,0.6l0.5,1l0.5,1l0.5,0.8l0.5,0.6l0.5,0.4l0.5,0.8l0.5,0.8l0.5,0.8l0.5,0.8l0.5,1l0.5,0.6l0.5,1l0.5,0.4l0.5,0.8l0.5,0.6l0.5,0.6l0.5,0.6l0.5,0.6l0.5,0.4l0.5,0.4l0.5,0.4l0.5,0.4l0.5,0.2l0.5,0.8l0.5,0.6l0.5,0.4l0.5,0.2l0.5,0.8l0.5,0.6l0.5,0.4l0.5,0.6l0.5,0.4l0.5,0.4l0.5,0.4l0.5,0.4l0.5,0l0.5,0l0.5,0.2l0.5,0.4l0.5,0.2l0.5,0.4l0.5,0.4l0.5,0.4l0.5,0.6l0.5,0.8l0.5,0.6l0.5,0.6l0.5,0.8l0.5,0.6l0.5,0.6l0.5,0.8l0.5,0.6l0.5,0.4l0.5,0.6l0.5,0.6l0.5,0.4l0.5,0.2l0.5,0.4l0.5,0.6l0.5,0.4l0.5,1l0.5,0.4l0.5,0.4l0.5,0.6l0.5,0.8l0.5,0.6l0.5,0.6l0.5,0.6l0.5,0.4l0.5,0.4l0.5,0.4l0.5,0.6l0.5,1l0.5,1l0.5,0.8l0.5,1.2l0.5,1l0.5,1l0.5,0.6l0.5,0.8l0.5,0.8l0.5,1l0.5,1l0.5,1l0.5,0.8l0.5,1l0.5,0.6l0.5,0.8l0.5,0.6l0.5,0.6l0.5,0.4l0.5,0.4l0.5,0.2l0.5,0.2l0.5,0.6l0.5,0.4l0.5,0.4l0.5,0.6l0.5,0.6l0.5,0.8l0.5,0.8l0.5,0.8l0.5,0.4l0.5,0.8l0.5,0.6l0.5,0.8l0.5,0.6l0.5,0.2l0.5,0.4l0.5,0.4l0.5,0.6l0.5,0.4l0.5,0.4l0.5,0.6l0.5,0.8l0.5,0.6l0.5,0.4l0.5,0.8l0.5,0.6l0.5,0.8l0.5,1l0.5,0.6l0.5,0.6l0.5,0.6l0.5,0.6l0.5,0.4l0.5,0.4l0.5,0.8l0.5,0.6l0.5,0.6l0.5,0.8l0.5,0.4l0.5,0.2l0.5,0.4l0.5,0.6l0.5,0.6l0.5,0.6l0.5,0.6l0.5,0.6l0.5,0.4l0.5,0.6l0.5,0.4l0.5,0.4l0.5,0.2l0.5,0.4l0.5,0.2l0.5,0.4l0.5,0.4l0.5,0.2l0.5,0.4l0.5,0.4l0.5,0.2l0.5,0.4l0.5,0.4l0.5,0.2l0.5,0.4l0.5,0.4l0.5,0.4l0.5,0l0.5,0.2l0.5,0.4l0.5,0.2l0.5,0.4l0.5,0.2l0.5,0.2l0.5,0.4l0.5,0.2l0.5,0.4l0.5,0.2l0.5,0.2l0.5,0.2l0.5,0.2l0.5,0.4l0.5,0.4l0.5,0.4l0.5,0.8l0.5,1l0.5,1l0.5,1l0.5,1l0.5,1.2l0.5,0.8l0.5,1.2l0.5,1.4l0.5,1.4l0.5,1.4l0.5,1.4l0.5,1.2l0.5,0.8l0.5,1.2l0.5,1l0.5,1l0.5,1l0.5,1.2l0.5,1l0.5,0.8l0.5,0.8l0.5,0.8l0.5,1l0.5,1.2l0.5,1l0.5,1.4l0.5,1.6l0.5,1.2l0.5,0.8l0.5,0.6l0.5,1.6l0.5,1.6l0.5,1.2l0.5,1l0.5,1.2l0.5,1.2l0.5,1l0.5,1.2l0.5,1l0.5,1.2l0.5,1.2l0.5,0.6l0.5,1l0.5,1.4l0.5,1l0.5,1l0.5,1.4l0.5,1.4l0.5,1.4l0.5,1.2l0.5,1.2l0.5,1.4l0.5,0.8l0.5,0.8l0.5,1.2l0.5,1.4l0.5,1l0.5,1l0.5,1l0.5,1l0.5,1.2l0.5,0.8l0.5,0.8l0.5,1l0.5,0.8l0.5,1l0.5,0.8l0.5,0.8l0.5,1l0.5,1l0.5,1l0.5,1l0.5,1.2l0.5,0.8l0.5,1.2l0.5,1l0.5,1.2l0.5,1l0.5,1.2l0.5,1.2l0.5,1.2l0.5,1.2l0.5,1.2l0.5,1.2l0.5,1.2l0.5,1.2l0.5,1.2l0.5,1.4l0.5,1.2l0.5,1.4l0.5,1.2l0.5,1l0.5,1.2l0.5,1.2l0.5,1.2l0.5,1l0.5,1.2l0.5,1l0.5,1l0.5,1.2l0.5,0.8l0.5,1l0.5,0.8l0.5,0.8l0.5,0.6l0.5,0.8l0.5,0.8l0.5,0.8l0.5,0.8l0.5,0.8l0.5,0.8l0.5,0.8l0.5,0.8l0.5,0.6l0.5,0.8l0.5,0.8l0.5,0.8l0.5,0.4l0.5,0.4l0.5,0.6l0.5,0.4l0.5,0.2l0.5,0.4l0.5,0.6l0.5,0.4l0.5,0.6l0.5,0.4l0.5,0.4l0.5,0.4l0.5,0.8l0.5,0.6l0.5,0.6l0.5,0.4l0.5,0.4l0.5,0.8l0.5,0.8l0.5,0.6l0.5,0.6l0.5,0.8l0.5,0.6l0.5,0.6l0.5,0.8l0.5,0.6l0.5,0.6l0.5,0.6l0.5,0.6l0.5,0.8l0.5,0.6l0.5,0.8l0.5,0.6l0.5,0.6l0.5,0.6l0.5,0.6l0.5,0.6l0.5,0.6l0.5,0.6l0.5,0.6l0.5,0.4l0.5,0.4l0.5,0.4l0.5,0.4l0.5,0.2l0.5,0.2l0.5,0.2l0.5,0l0.5,0.2l0.5,-0.2l0.5,-0.2l0.5,-0.2l0.5,-0.2l0.5,-0.2l0.5,-0.2l0.5,-0.4l0.5,-0.4l0.5,-0.4l0.5,-0.4l0.5,-0.4l0.5,-0.6l0.5,-0.4l0.5,-0.6l0.5,-0.4l0.5,-0.4l0.5,-0.6l0.5,-0.4l0.5,-0.4l0.5,-0.2l0.5,-0.4l0.5,-0.2l0.5,-0.2l0.5,-0.4l0.5,-0.2l0.5,-0.2l0.5,-0.2l0.5,0l0.5,-0.2l0.5,0l0.5,-0.2l0.5,-0.2l0.5,0l0.5,-0.2l0.5,-0.2l0.5,0l0.5,-0.2l0.5,0l0.5,-0.2l0.5,-0.2l0.5,0l0.5,-0.2l0.5,-0.2l0.5,0l0.5,-0.2l0.5,-0.2l0.5,0l0.5,-0.2l0.5,0l0.5,-0.2l0.5,0l0.5,-0.2l0.5,0l0.5,-0.2l0.5,0l0.5,0l0.5,-0.2l0.5,0l0.5,-0.2l0.5,0l0.5,0l0.5,-0.2l0.5,0l0.5,-0.2l0.5,0l0.5,0l0.5,0l0.5,-0.2l0.5,0l0.5,-0.2l0.5,0l0.5,0l0.5,0l0.5,0l0.5,0.2l0.5,0l0.5,0l0.5,0.2l0.5,0.2l0.5,0.2l0.5,0.2l0.5,0.2l0.5,0.2l0.5,0.4l0.5,0.4l0.5,0.2l0.5,0.4l0.5,0.2l0.5,0.4l0.5,0.2l0.5,0.4l0.5,0.2l0.5,0.2l0.5,0.2l0.5,0.2l0.5,0.2l0.5,0.2l0.5,0.4l0.5,0.2l0.5,0.4l0.5,0.2l0.5,0.2l0.5,0.4l0.5,0.4l0.5,0l0.5,0.4l0.5,0.4l0.5,0.4l0.5,0.2l0.5,0.4l0.5,0.4l0.5,0.2l0.5,0.4l0.5,0.4l0.5,0.2l0.5,0.4l0.5,0.4l0.5,0.2l0.5,0.6l0.5,0.4l0.5,0.2l0.5,0.4l0.5,0l0.5,0.2l0.5,0.2l0.5,0.6l0.5,0.2l0.5,0.4l0.5,0.4l0.5,0.6l0.5,0.6l0.5,0.4l0.5,0.6l0.5,0.4l0.5,0.4l0.5,0.2l0.5,0.4l0.5,0.4l0.5,0.2l0.5,0.2l0.5,0.4l0.5,0.4l0.5,0.4l0.5,0.4l0.5,0.4l0.5,0.2l0.5,0.4l0.5,0.6l0.5,0.2l0.5,0.4l0.5,0.4l0.5,0.2l0.5,0.2l0.5,0.2l0.5,0.2l0.5,0l0.5,0.2l0.5,0.2l0.5,0.2l0.5,0.2l0.5,0.2l0.5,0.2l0.5,0.2l0.5,-0.2l0.5,-0.2l0.5,0l0.5,0.2l0.5,0.2l0.5,0l0.5,0l0.5,-0.2l0.5,0l0.5,-0.2l0.5,0l0.5,-0.2l0.5,0l0.5,-0.2l0.5,-0.2l0.5,0l0.5,-0.2l0.5,-0.2l0.5,-0.2l0.5,0l0.5,-0.2l0.5,0l0.5,0l0.5,-0.2l0.5,-0.2l0.5,-0.2l0.5,0l0.5,-0.2l0.5,0l0.5,-0.2l0.5,0l0.5,0l0.5,0.2l0.5,0.2l0.5,0l0.5,0.2l0.5,0.2l0.5,0.4l0.5,0.4l0.5,0.4l0.5,0.4l0.5,0.4l0.5,0.4l0.5,0.4l0.5,0.4l0.5,0.4l0.5,0.2l0.5,0.4l0.5,0.2l0.5,0.4l0.5,0.2l0.5,0.2l0.5,0.2l0.5,0.2l0.5,0.2l0.5,0l0.5,0l0.5,-0.2l0.5,0l0.5,0l0.5,0.2l0.5,0.2l0.5,0.2l0.5,0.4l0.5,0.2l0.5,0.4l0.5,0.4l0.5,0.4l0.5,0.4l0.5,0.2l0.5,0.2l0.5,0l0.5,0l0.5,0l0.5,-0.2l0.5,0l0.5,0l0.5,0l0.5,0.2l0.5,0l0.5,0l0.5,0l0.5,0l0.5,0l0.5,-0.2l0.5,0l0.5,-0.2l0.5,-0.2l0.5,-0.2l0.5,-0.2l0.5,-0.2l0.5,-0.4l0.5,-0.2l0.5,-0.2l0.5,-0.4l0.5,-0.2l0.5,-0.4l0.5,-0.2l0.5,-0.2l0.5,-0.4l0.5,-0.2l0.5,-0.4l0.5,-0.2l0.5,-0.4l0.5,-0.2l0.5,-0.4l0.5,-0.2l0.5,-0.2l0.5,-0.4l0.5,-0.2l0.5,-0.4l0.5,-0.4l0.5,-0.2l0.5,-0.4l0.5,-0.2l0.5,-0.4l0.5,-0.2l0.5,-0.4l0.5,-0.2l0.5,-0.4l0.5,-0.2l0.5,-0.2l0.5,-0.4l0.5,-0.2l0.5,-0.4l0.5,-0.2l0.5,-0.2l0.5,-0.4l0.5,-0.2l0.5,-0.2l0.5,-0.4l0.5,-0.2l0.5,-0.2l0.5,-0.2l0.5,-0.2l0.5,-0.4l0.5,-0.2l0,169.2"/>
  </g>
</svg>