<?xml version="1.0" encoding="UTF-8" standalone="yes"?>
<svg id="map" viewBox="-169.23999999999427 -597.2000000000015 1727.5999999999951 1169.2699999999984" xmlns="http://www.w3.org/2000/svg" xmlns:xlink="http://www.w3.org/1999/xlink" version="1.1">
  <defs>
    <style>.way { fill: none; fill-opacity: 0; stroke:#333333; stroke-opacity: 1; stroke-width:4;}</style>
  </defs>
  <g>
    <path id="P1" class="way" d="M0,0l0,0l0.28,-0.06l0.32,-0.09l0.33,-0.09l0.34,-0.13l0.38,-0.12l0.41,-0.15l0.41,-0.21l0.42,-0.15l0.5,-0.18l0.44,-0.17l0.48,-0.22l0.74,-0.34l0.62,-0.22l0.56,-0.23l0.54,-0.18l0.53,-0.14l0.58,-0.15l0.57,-0.14l0.55,-0.15l0.54,-0.12l0.51,-0.09l0.51,-0.1l0.47,-0.13l0.44,-0.12l0.44,-0.15l0.45,-0.17l0.47,-0.15l0.47,-0.14l0.48,-0.15l0.41,-0.12l0.39,-0.06l0.44,-0.05l0.5,-0.05l0.56,-0.08l0.6,-0.12l0.67,-0.15l0.74,-0.21l0.71,-0.28l0.59,-0.28l0.65,-0.37l0.69,-0.46l0.6,-0.44l0.56,-0.46l0.57,-0.48l0.56,-0.5l0.55,-0.53l0.53,-0.48l0.51,-0.52l0.43,-0.49l0.31,-0.39l0.23,-0.31l0.15,-0.19l0.11,-0.12l0.1,-0.1l0.08,-0.04l0.03,0.04l0.17,-0.13l0.17,-0.26l0.24,-0.31l0.29,-0.4l0.32,-0.43l0.38,-0.45l0.44,-0.36l0.53,-0.14l0.6,0.1l0.62,0.31l0.67,0.4l0.69,0.43l0.69,0.44l0.69,0.48l0.68,0.49l0.64,0.45l0.68,0.44l0.75,0.43l0.8,0.31l0.81,0.12l0.84,-0.13l0.69,-0.43l0.49,-0.62l0.33,-0.76l0.23,-0.8l0.25,-0.73l0.33,-0.77l0.36,-0.77l0.35,-0.8l0.35,-0.79l0.34,-0.77l0.36,-0.82l0.38,-0.77l0.39,-0.73l0.47,-0.72l0.59,-0.66l0.62,-0.62l0.66,-0.57l0.71,-0.52l0.71,-0.45l0.69,-0.41l0.67,-0.39l0.64,-0.36l0.62,-0.37l0.55,-0.43l0.52,-0.45l0.47,-0.5l0.44,-0.52l0.43,-0.52l0.4,-0.57l0.38,-0.57l0.37,-0.57l0.35,-0.57l0.36,-0.54l0.36,-0.57l0.35,-0.59l0.36,-0.58l0.34,-0.58l0.33,-0.59l0.32,-0.63l0.31,-0.61l0.32,-0.64l0.33,-0.67l0.32,-0.61l0.3,-0.62l0.26,-0.61l0.27,-0.59l0.29,-0.63l0.3,-0.61l0.32,-0.58l0.33,-0.63l0.32,-0.63l0.29,-0.64l0.32,-0.63l0.32,-0.57l0.34,-0.62l0.37,-0.68l0.35,-0.64l0.31,-0.64l0.29,-0.63l0.26,-0.61l0.24,-0.62l0.26,-0.61l0.26,-0.59l0.23,-0.62l0.2,-0.58l0.22,-0.54l0.26,-0.58l0.28,-0.54l0.32,-0.58l0.29,-0.55l0.29,-0.58l0.27,-0.57l0.26,-0.53l0.27,-0.58l0.29,-0.55l0.29,-0.54l0.28,-0.54l0.26,-0.58l0.26,-0.55l0.26,-0.57l0.26,-0.57l0.24,-0.57l0.21,-0.55l0.21,-0.58l0.22,-0.59l0.25,-0.55l0.26,-0.57l0.27,-0.59l0.25,-0.59l0.23,-0.58l0.26,-0.57l0.27,-0.63l0.28,-0.63l0.25,-0.58l0.26,-0.59l0.25,-0.62l0.26,-0.62l0.26,-0.54l0.24,-0.55l0.24,-0.54l0.29,-0.57l0.32,-0.57l0.32,-0.5l0.35,-0.49l0.41,-0.5l0.42,-0.49l0.43,-0.52l0.42,-0.54l0.44,-0.54l0.44,-0.54l0.44,-0.54l0.44,-0.54l0.42,-0.54l0.42,-0.54l0.41,-0.5l0.41,-0.5l0.41,-0.52l0.41,-0.52l0.41,-0.52l0.41,-0.52l0.4,-0.53l0.39,-0.5l0.38,-0.49l0.38,-0.53l0.41,-0.5l0.4,-0.57l0.38,-0.55l0.38,-0.5l0.39,-0.55l0.4,-0.55l0.38,-0.58l0.37,-0.58l0.35,-0.57l0.35,-0.57l0.34,-0.55l0.35,-0.61l0.35,-0.62l0.36,-0.62l0.36,-0.63l0.36,-0.61l0.36,-0.62l0.36,-0.61l0.35,-0.63l0.34,-0.64l0.34,-0.61l0.35,-0.62l0.36,-0.61l0.35,-0.62l0.34,-0.67l0.37,-0.66l0.38,-0.63l0.37,-0.64l0.37,-0.64l0.38,-0.63l0.37,-0.63l0.35,-0.64l0.38,-0.66l0.37,-0.61l0.37,-0.66l0.37,-0.62l0.36,-0.62l0.36,-0.64l0.34,-0.61l0.37,-0.66l0.39,-0.63l0.37,-0.58l0.38,-0.62l0.39,-0.61l0.4,-0.59l0.38,-0.66l0.37,-0.62l0.37,-0.59l0.38,-0.59l0.37,-0.55l0.38,-0.57l0.36,-0.55l0.4,-0.57l0.41,-0.57l0.38,-0.58l0.36,-0.59l0.34,-0.58l0.34,-0.59l0.33,-0.59l0.34,-0.62l0.33,-0.62l0.35,-0.63l0.37,-0.63l0.38,-0.63l0.38,-0.61l0.4,-0.62l0.4,-0.64l0.38,-0.61l0.39,-0.62l0.4,-0.67l0.31,-0.54l0.35,-0.61l0.5,-0.8l0.47,-0.66l0.49,-0.7l0.44,-0.73l0.45,-0.72l0.47,-0.72l0.48,-0.73l0.48,-0.75l0.47,-0.7l0.48,-0.72l0.47,-0.75l0.45,-0.73l0.44,-0.7l0.45,-0.72l0.44,-0.75l0.42,-0.73l0.4,-0.77l0.38,-0.77l0.38,-0.77l0.39,-0.81l0.37,-0.79l0.35,-0.76l0.36,-0.76l0.36,-0.79l0.36,-0.75l0.35,-0.77l0.35,-0.76l0.35,-0.76l0.38,-0.75l0.38,-0.72l0.42,-0.76l0.41,-0.75l0.39,-0.8l0.37,-0.67l0.45,-0.76l0.58,-0.88l0.55,-0.71l0.59,-0.68l0.62,-0.64l0.71,-0.61l0.76,-0.54l0.79,-0.52l0.84,-0.49l0.86,-0.37l0.9,-0.35l0.93,-0.31l0.95,-0.28l0.99,-0.27l0.98,-0.18l1.03,-0.13l1.02,-0.06l0.92,0.01l0.97,0.17l0.99,0.34l0.95,0.46l0.92,0.48l0.92,0.53l0.93,0.54l0.77,0.46l0.86,0.53l1.2,0.71l0.96,0.59l0.95,0.58l0.94,0.62l0.96,0.61l0.96,0.57l0.94,0.54l0.94,0.58l0.91,0.55l0.9,0.53l0.91,0.55l0.85,0.53l0.83,0.5l0.86,0.5l0.85,0.53l0.83,0.5l0.81,0.52l0.84,0.52l0.83,0.52l0.83,0.52l0.81,0.55l0.74,0.52l0.84,0.53l0.88,0.57l0.81,0.5l0.83,0.49l0.8,0.45l0.92,0.5l0.97,0.5l0.91,0.46l0.93,0.46l0.94,0.44l0.98,0.44l0.99,0.41l0.97,0.39l1.01,0.39l1.07,0.4l1.05,0.4l1.03,0.39l1.07,0.43l1.08,0.41l1.09,0.43l1.1,0.44l1.1,0.45l1.08,0.45l1.16,0.48l1.19,0.49l1.19,0.46l1.17,0.46l1.23,0.49l1.23,0.53l1.26,0.5l1.25,0.49l1.25,0.5l1.21,0.45l1.23,0.45l1.3,0.46l1.32,0.45l1.3,0.37l1.35,0.3l1.31,0.22l1.25,0.17l1.31,0.15l1.3,0.17l1.21,0.15l1.39,0.15l1.48,0.1l1.39,-0.01l1.33,-0.08l1.28,-0.13l1.25,-0.13l1.23,-0.09l1.24,-0.1l1.2,-0.06l1.11,-0.08l1.06,-0.04l1.09,0l1.12,0.03l1.08,0.05l1.14,0.08l1.17,0.13l1,0.15l1.16,0.24l1.35,0.27l1.26,0.26l1.28,0.3l1.23,0.32l1.29,0.37l1.35,0.48l1.33,0.52l1.23,0.59l1.22,0.79l1.1,0.79l1.05,0.89l0.99,0.94l0.84,0.92l0.75,0.93l0.74,0.9l0.76,0.9l0.78,0.92l0.75,0.88l0.72,0.88l0.72,0.89l0.67,0.85l0.66,0.9l0.69,0.94l0.65,0.97l0.62,0.98l0.59,0.98l0.59,1.02l0.56,0.99l0.55,1.03l0.56,1.07l0.57,1.1l0.53,1.04l0.56,1.13l0.53,1.12l0.59,1.19l0.71,1.22l0.77,1.03l0.81,0.93l0.81,0.81l0.72,0.64l0.81,0.62l0.88,0.62l0.79,0.5l0.73,0.55l0.73,0.49l0.72,0.37l0.72,0.26l0.72,0.23l0.67,0.3l0.61,0.37l0.58,0.43l0.55,0.39l0.53,0.35l0.52,0.31l0.48,0.31l0.44,0.34l0.43,0.43l0.43,0.4l0.43,0.37l0.41,0.39l0.38,0.34l0.39,0.32l0.38,0.37l0.35,0.4l0.32,0.39l0.3,0.45l0.3,0.5l0.29,0.46l0.29,0.46l0.29,0.46l0.26,0.46l0.26,0.49l0.23,0.49l0.23,0.48l0.23,0.43l0.24,0.46l0.23,0.52l0.21,0.46l0.22,0.48l0.21,0.49l0.22,0.48l0.25,0.46l0.26,0.41l0.26,0.39l0.27,0.35l0.31,0.34l0.33,0.39l0.32,0.35l0.33,0.32l0.29,0.28l0.27,0.27l0.31,0.27l0.29,0.26l0.27,0.22l0.29,0.23l0.32,0.24l0.32,0.22l0.34,0.28l0.31,0.26l0.32,0.19l0.38,0.23l0.4,0.24l0.44,0.18l0.47,0.18l0.47,0.17l0.46,0.12l0.47,0.13l0.49,0.09l0.51,0.08l0.55,0.09l0.53,0.1l0.47,0.1l0.47,0.09l0.46,0.13l0.4,0.15l0.35,0.14l0.35,0.12l0.35,0.1l0.36,0.13l0.39,0.14l0.43,0.15l0.47,0.12l0.48,0.13l0.44,0.12l0.41,0.13l0.4,0.12l0.51,0.13l0.64,0.09l0.46,0.1l0.37,0.12l0.39,0.13l0.43,0.15l0.48,0.12l0.47,0.15l0.46,0.26l0.51,0.23l0.53,0.23l0.51,0.22l0.52,0.26l0.51,0.19l0.48,0.18l0.51,0.17l0.59,0.12l0.59,0.13l0.62,0.12l0.62,0.13l0.56,0.15l0.53,0.12l0.5,0.1l0.44,0.09l0.5,0.06l0.56,0.12l0.59,0.12l0.53,0.04l0.5,0l0.47,0l0.47,0l0.53,0l0.53,0l0.5,0.06l0.44,0.03l0.41,0.04l0.44,0.01l0.45,0l0.49,0l0.46,0l0.44,0.06l0.42,0.06l0.41,0.05l0.44,0.05l0.48,0.05l0.48,0.08l0.47,0.06l0.45,0.05l0.46,0.05l0.46,0.05l0.44,0.01l0.43,0.03l0.41,0.09l0.43,0.09l0.42,0.17l0.44,0.13l0.46,0.13l0.41,0.15l0.42,0.14l0.44,0.12l0.43,0.1l0.43,0.09l0.44,0.17l0.43,0.17l0.44,0.17l0.43,0.17l0.45,0.18l0.44,0.17l0.43,0.15l0.42,0.17l0.42,0.19l0.42,0.21l0.44,0.17l0.41,0.18l0.39,0.19l0.39,0.19l0.41,0.19l0.41,0.23l0.41,0.24l0.41,0.22l0.42,0.19l0.41,0.19l0.41,0.23l0.43,0.22l0.41,0.17l0.41,0.17l0.41,0.17l0.45,0.12l0.44,0.13l0.43,0.12l0.41,0.1l0.38,0.1l0.35,0.06l0.37,0.05l0.35,0.08l0.32,0.06l0.35,0.01l0.36,0.06l0.38,0.06l0.42,0.05l0.44,0.03l0.46,0.06l0.46,0.13l0.49,0.12l0.5,0.06l0.49,0.08l0.46,0.1l0.44,0.09l0.45,0.1l0.44,0.06l0.45,0.08l0.47,0.1l0.43,0.1l0.41,0.09l0.4,0.1l0.4,0.09l0.38,0.1l0.34,0.06l0.32,0.05l0.32,0.08l0.34,0.08l0.39,0.04l0.41,0.05l0.4,0.12l0.41,0.14l0.43,0.12l0.45,0.13l0.46,0.12l0.44,0.1l0.41,0.1l0.4,0.06l0.36,0.01l0.33,0.04l0.34,0.05l0.41,0.08l0.42,0.06l0.37,0.08l0.36,0.13l0.35,0.09l0.32,0.05l0.3,0.1l0.3,0.09l0.34,0.05l0.35,0.08l0.27,0.06l0.27,0.03l0.35,0.05l0.33,0.04l0.35,0.06l0.44,0.04l0.41,0.03l0.48,0.09l0.64,0.13l0.59,0.12l0.55,0.09l0.54,0.04l0.53,0l0.59,0.06l0.57,0.06l0.53,0.05l0.53,0.05l0.53,0.05l0.5,0.01l0.5,0l0.5,-0.03l0.48,-0.05l0.5,-0.05l0.5,-0.05l0.49,-0.05l0.48,-0.04l0.47,-0.09l0.41,-0.06l0.38,-0.05l0.35,-0.08l0.35,-0.06l0.35,-0.05l0.35,-0.08l0.37,-0.06l0.36,-0.09l0.33,-0.06l0.36,-0.1l0.35,-0.09l0.34,-0.05l0.38,-0.05l0.35,-0.05l0.36,-0.01l0.43,0l0.43,0.03l0.42,0.05l0.46,0.03l0.46,-0.04l0.45,-0.05l0.48,-0.01l0.53,0l0.55,-0.03l0.53,-0.09l0.65,-0.03l0.68,0.05l0.62,0.01l0.59,0.01l0.64,0.01l0.7,0l0.71,0l0.63,-0.06l0.6,-0.03l0.54,-0.04l0.6,-0.08l0.6,-0.13l0.57,-0.12l0.59,-0.1l0.63,-0.15l0.58,-0.17l0.55,-0.14l0.55,-0.13l0.54,-0.12l0.51,-0.15l0.52,-0.14l0.51,-0.15l0.49,-0.12l0.47,-0.1l0.47,-0.09l0.49,-0.1l0.48,-0.09l0.47,-0.08l0.47,-0.08l0.47,-0.06l0.48,-0.05l0.5,-0.01l0.49,0l0.5,0l0.5,0.03l0.49,0.01l0.49,0.04l0.5,0.08l0.49,0.06l0.47,0.08l0.46,0.1l0.48,0.1l0.47,0.15l0.47,0.17l0.46,0.14l0.47,0.18l0.46,0.17l0.47,0.18l0.46,0.19l0.45,0.19l0.47,0.23l0.47,0.22l0.47,0.19l0.45,0.19l0.44,0.19l0.46,0.18l0.44,0.14l0.44,0.14l0.45,0.14l0.43,0.18l0.45,0.14l0.44,0.1l0.45,0.09l0.44,0.08l0.47,0.01l0.47,0l0.47,-0.06l0.46,-0.09l0.49,-0.13l0.47,-0.15l0.49,-0.14l0.5,-0.15l0.5,-0.18l0.5,-0.15l0.5,-0.18l0.52,-0.19l0.53,-0.21l0.53,-0.17l0.55,-0.17l0.54,-0.19l0.56,-0.21l0.58,-0.17l0.58,-0.18l0.57,-0.19l0.56,-0.19l0.57,-0.19l0.57,-0.17l0.58,-0.18l0.59,-0.17l0.58,-0.14l0.58,-0.15l0.59,-0.12l0.59,-0.13l0.6,-0.14l0.6,-0.12l0.61,-0.1l0.62,-0.1l0.6,-0.09l0.61,-0.1l0.62,-0.06l0.62,-0.08l0.61,-0.1l0.61,-0.06l0.6,-0.05l0.62,-0.05l0.61,-0.01l0.6,0l0.59,-0.04l0.57,-0.01l0.57,0.03l0.57,0.03l0.56,0l0.53,0l0.55,0.03l0.56,0.01l0.53,0.04l0.5,0.05l0.47,0.01l0.47,0.03l0.48,0.03l0.5,0.03l0.44,0.05l0.41,0.01l0.44,0l0.47,0l0.46,0l0.44,0.04l0.41,0.01l0.42,0l0.46,-0.03l0.51,-0.08l0.56,-0.17l0.58,-0.19l0.54,-0.24l0.56,-0.27l0.57,-0.28l0.58,-0.3l0.59,-0.28l0.59,-0.27l0.59,-0.27l0.6,-0.27l0.59,-0.27l0.58,-0.34l0.56,-0.31l0.59,-0.3l0.58,-0.3l0.57,-0.28l0.58,-0.32l0.6,-0.32l0.59,-0.3l0.6,-0.32l0.62,-0.31l0.62,-0.34l0.61,-0.34l0.62,-0.35l0.63,-0.35l0.62,-0.35l0.61,-0.36l0.62,-0.37l0.61,-0.31l0.59,-0.32l0.59,-0.34l0.61,-0.37l0.61,-0.37l0.6,-0.35l0.6,-0.31l0.61,-0.32l0.6,-0.35l0.59,-0.32l0.58,-0.31l0.61,-0.32l0.6,-0.3l0.6,-0.32l0.59,-0.34l0.58,-0.32l0.58,-0.32l0.57,-0.31l0.59,-0.31l0.56,-0.3l0.56,-0.3l0.56,-0.28l0.57,-0.3l0.56,-0.3l0.58,-0.27l0.59,-0.31l0.56,-0.31l0.58,-0.3l0.58,-0.3l0.56,-0.3l0.56,-0.32l0.59,-0.31l0.59,-0.27l0.59,-0.27l0.57,-0.3l0.57,-0.3l0.59,-0.3l0.57,-0.27l0.57,-0.27l0.58,-0.3l0.5,-0.27l0.45,-0.24l0.32,-0.22l0.2,-0.18l0.16,-0.17l0.1,-0.09l0.03,-0.04l0,-0.03l0,0l0,0l0,0l1.35,-0.35l0.43,-0.21l0.47,-0.21l0.53,-0.23l0.58,-0.24l0.59,-0.24l0.62,-0.31l0.64,-0.31l0.68,-0.3l0.69,-0.34l0.72,-0.31l0.73,-0.32l0.73,-0.35l0.75,-0.34l0.75,-0.35l0.75,-0.35l0.75,-0.35l0.75,-0.34l0.76,-0.35l0.78,-0.35l0.78,-0.35l0.78,-0.34l0.79,-0.35l0.77,-0.37l0.78,-0.39l0.8,-0.37l0.8,-0.37l0.81,-0.36l0.82,-0.37l0.82,-0.4l0.83,-0.39l0.84,-0.36l0.84,-0.37l0.87,-0.4l0.86,-0.4l0.86,-0.41l0.87,-0.39l0.87,-0.4l0.89,-0.41l0.9,-0.4l0.91,-0.43l0.9,-0.41l0.9,-0.39l0.9,-0.39l0.92,-0.4l0.89,-0.4l0.88,-0.43l0.87,-0.41l0.87,-0.39l0.89,-0.4l0.9,-0.39l0.9,-0.4l0.9,-0.39l0.9,-0.39l0.93,-0.4l0.93,-0.43l0.94,-0.39l0.96,-0.37l0.95,-0.39l0.95,-0.4l0.94,-0.39l0.95,-0.36l0.93,-0.37l0.93,-0.37l0.95,-0.31l0.93,-0.3l0.94,-0.26l0.95,-0.24l0.93,-0.22l0.93,-0.17l0.93,-0.12l0.92,-0.13l0.89,-0.12l0.92,-0.06l0.91,-0.05l0.91,0.01l0.9,0.05l0.85,0.04l0.89,0.05l0.89,0.05l0.86,0.05l0.87,0.08l0.84,0.1l0.84,0.09l0.87,0.13l0.85,0.15l0.84,0.17l0.84,0.21l0.84,0.19l0.83,0.23l0.84,0.24l0.84,0.24l0.83,0.21l0.84,0.27l0.83,0.26l0.84,0.28l0.83,0.26l0.83,0.28l0.82,0.26l0.82,0.27l0.84,0.31l0.81,0.28l0.81,0.3l0.84,0.3l0.84,0.3l0.84,0.3l0.84,0.3l0.84,0.32l0.84,0.31l0.84,0.27l0.84,0.27l0.85,0.27l0.84,0.27l0.85,0.27l0.87,0.24l0.84,0.26l0.83,0.26l0.84,0.3l0.8,0.31l0.83,0.35l0.81,0.32l0.81,0.32l0.75,0.36l0.72,0.31l0.73,0.26l0.75,0.31l0.78,0.32l0.74,0.32l0.73,0.31l0.7,0.3l0.62,0.21l0.65,0.03l0.7,-0.12l0.74,-0.21l0.78,-0.24l0.77,-0.28l0.84,-0.26l0.85,-0.28l0.87,-0.3l0.87,-0.26l0.88,-0.28l0.91,-0.28l0.95,-0.3l0.98,-0.3l0.98,-0.23l0.98,-0.26l0.99,-0.24l0.97,-0.26l0.93,-0.26l0.88,-0.22l0.73,-0.23l0.57,-0.21l0.43,-0.17l0.37,-0.14l0.26,-0.09l0.15,-0.01l0.31,-0.06l0.23,-0.05l0.23,-0.06l0.23,-0.05l0.23,-0.06l0.44,-0.08l0.49,-0.05l0.5,-0.09l0.54,-0.13l0.58,-0.17l0.59,-0.21l0.6,-0.19l0.65,-0.19l0.68,-0.19l0.72,-0.14l0.75,-0.13l0.78,-0.14l0.83,-0.22l0.83,-0.21l0.87,-0.21l0.91,-0.22l0.96,-0.18l1.07,-0.15l1.11,-0.12l1.13,-0.13l1.15,-0.15l1.13,-0.1l1.2,-0.13l1.26,-0.13l1.21,-0.13l1.23,-0.14l1.25,-0.18l1.3,-0.19l1.29,-0.19l1.33,-0.23l1.41,-0.24l1.48,-0.22l1.63,-0.28l1.57,-0.19l1.51,-0.22l1.4,-0.23l1.32,-0.32l1.31,-0.4l1.2,-0.3l1.19,-0.31l1.23,-0.31l1.42,-0.32l1.59,-0.23l1.57,-0.23l1.45,-0.27l1.37,-0.43l1.35,-0.68l1.48,-0.85l1.42,-0.86l1.37,-0.81l1.35,-0.85l1.35,-0.85l1.3,-0.84l1.2,-0.82l1.19,-0.75l1.21,-0.72l1.18,-0.76l1.2,-0.79l1.23,-0.82l1.26,-0.8l1.28,-0.8l1.28,-0.79l1.27,-0.81l1.29,-0.86l1.26,-0.84l1.32,-0.85l1.33,-0.84l1.29,-0.82l1.36,-0.81l1.42,-0.82l1.4,-0.82l1.4,-0.75l1.42,-0.63l1.41,-0.53l1.44,-0.53l1.45,-0.57l1.41,-0.49l1.39,-0.41l1.35,-0.43l1.39,-0.57l1.44,-0.61l1.36,-0.63l1.43,-0.76l1.35,-0.68l1.25,-0.71l1.23,-0.79l1.23,-0.82l1.29,-0.95l1.26,-1.06l1.22,-1.02l1.23,-1.08l1.23,-1.13l1.23,-1.1l1.23,-1.02l1.2,-0.98l1.11,-1.03l1.02,-1.1l0.98,-1.16l0.96,-1.15l0.98,-1.12l0.96,-1.07l0.99,-1.06l0.96,-1.1l0.93,-1.1l0.97,-1.07l0.99,-1.07l0.96,-1.1l0.98,-1.08l0.99,-1.11l0.99,-1.08l1,-1.12l1.01,-1.11l1,-1.07l0.98,-1.15l0.99,-1.16l0.96,-1.1l1.01,-1.12l1.05,-1.12l1.01,-1.08l1.02,-1.12l1.07,-1.11l1.05,-1.08l1.04,-1.11l1.08,-1.1l1.07,-1.11l1.05,-1.13l1,-1.11l1.04,-1.17l1.01,-1.16l0.87,-1.2l0.74,-1.26l0.66,-1.28l0.66,-1.25l0.67,-1.25l0.67,-1.25l0.55,-1.28l0.35,-1.38l0.19,-1.44l0.08,-1.56l-0.05,-1.52l-0.1,-1.51l-0.08,-1.53l-0.09,-1.52l-0.1,-1.37l-0.06,-1.55l-0.11,-1.68l-0.15,-1.56l-0.11,-1.57l-0.04,-1.5l0.02,-1.5l-0.04,-1.52l-0.05,-1.47l-0.03,-1.43l-0.02,-1.46l-0.01,-1.39l0,-1.33l-0.01,-1.28l-0.03,-1.34l-0.07,-1.38l-0.09,-1.44l-0.11,-1.55l-0.07,-1.44l-0.02,-1.35l-0.03,-1.38l-0.05,-1.35l-0.06,-1.35l-0.07,-1.34l0,-1.46l-0.11,-1.61l-0.14,-1.48l-0.08,-1.4l-0.05,-1.42l0.02,-1.4l0.11,-1.39l0.25,-1.39l0.49,-1.29l0.42,-1.29l0.29,-1.37l0.23,-1.33l0.2,-1.28l0.12,-1.29l0.04,-1.25l0.02,-1.3l0.03,-1.3l0,-1.2l-0.02,-1.19l0.05,-1.15l0.11,-1.17l0.11,-1.08l0.11,-1.16l0.17,-1.19l0.24,-1.08l0.26,-1.13l0.23,-1.19l0.18,-1.17l0.17,-1.22l0.06,-1.13l-0.11,-1.12l-0.15,-1.1l-0.25,-1.11l-0.29,-1.16l-0.28,-1.15l-0.27,-1.13l-0.32,-1.06l-0.33,-1.02l-0.31,-0.98l-0.26,-1.02l-0.26,-0.97l-0.31,-0.9l-0.32,-0.89l-0.32,-0.98l-0.32,-0.93l-0.32,-0.92l-0.33,-0.98l-0.35,-0.98l-0.38,-0.98l-0.4,-1.02l-0.38,-1.03l-0.4,-1.03l-0.38,-0.89l-0.42,-1.03l-0.44,-1.13l-0.38,-1.01l-0.41,-1.04l-0.42,-1.04l-0.44,-1.06l-0.44,-1.07l-0.44,-1.06l-0.36,-1.04l-0.38,-1.01l-0.41,-0.98l-0.41,-0.98l-0.41,-0.92l-0.38,-0.89l-0.34,-0.89l-0.34,-0.82l-0.29,-0.71l-0.29,-0.75l-0.3,-0.71l-0.25,-0.61l-0.23,-0.53l-0.2,-0.49l-0.19,-0.49l-0.19,-0.46l-0.17,-0.41l-0.16,-0.43l-0.17,-0.4l-0.16,-0.4l-0.17,-0.43l-0.17,-0.41l-0.17,-0.4l-0.19,-0.43l-0.18,-0.44l-0.17,-0.41l-0.17,-0.4l-0.17,-0.39l-0.14,-0.41l-0.16,-0.45l-0.16,-0.41l-0.17,-0.43l-0.18,-0.45l-0.18,-0.44l-0.19,-0.44l-0.17,-0.44l-0.18,-0.45l-0.2,-0.44l-0.2,-0.45l-0.18,-0.44l-0.16,-0.41l-0.14,-0.39l-0.14,-0.43l-0.14,-0.41l-0.16,-0.43l-0.16,-0.4l-0.17,-0.43l-0.17,-0.41l-0.16,-0.43l-0.15,-0.43l-0.15,-0.39l-0.16,-0.4l-0.16,-0.39l-0.16,-0.4l-0.17,-0.39l-0.16,-0.4l-0.17,-0.39l-0.18,-0.43l-0.17,-0.41l-0.18,-0.43l-0.19,-0.44l-0.19,-0.41l-0.16,-0.36l-0.14,-0.39l-0.13,-0.36l-0.12,-0.34l-0.13,-0.35l-0.13,-0.37l-0.14,-0.36l-0.17,-0.37l-0.17,-0.37l-0.16,-0.34l-0.16,-0.37l-0.15,-0.37l-0.17,-0.37l-0.16,-0.36l-0.15,-0.34l-0.15,-0.35l-0.14,-0.34l-0.11,-0.32l-0.11,-0.32l-0.11,-0.35l-0.12,-0.37l-0.1,-0.36l-0.02,-0.37l0.06,-0.4l0.17,-0.34l0.23,-0.26l0.29,-0.18l0.3,-0.18l0.32,-0.17l0.35,-0.15l0.33,-0.14l0.3,-0.14l0.3,-0.18l0.3,-0.21l0.29,-0.19l0.29,-0.19l0.29,-0.19l0.29,-0.17l0.29,-0.18l0.29,-0.17l0.28,-0.14l0.29,-0.18l0.27,-0.19l0.26,-0.17l0.26,-0.15l0.27,-0.14l0.27,-0.14l0.29,-0.18l0.3,-0.17l0.29,-0.18l0.26,-0.17l0.26,-0.18l0.26,-0.23l0.26,-0.18l0.29,-0.14l0.31,-0.12l0.3,-0.1l0.3,-0.13l0.3,-0.14l0.27,-0.15l0.28,-0.14l0.28,-0.18l0.29,-0.19l0.26,-0.19l0.26,-0.21l0.24,-0.17l0.24,-0.17l0.23,-0.17l0.26,-0.13l0.26,-0.06l0.24,-0.08l0.21,-0.13l0.24,-0.14l0.26,-0.15l0.25,-0.14l0.26,-0.12l0.28,-0.13l0.28,-0.15l0.28,-0.14l0.27,-0.18l0.28,-0.17l0.29,-0.14l0.3,-0.15l0.27,-0.18l0.29,-0.13l0.29,-0.17l0.29,-0.15l0.3,-0.15l0.28,-0.12l0.32,-0.1l0.32,-0.13l0.29,-0.17l0.31,-0.17l0.31,-0.18l0.32,-0.17l0.32,-0.14l0.31,-0.18l0.29,-0.17l0.29,-0.14l0.33,-0.13l0.34,-0.13l0.34,-0.14l0.36,-0.15l0.36,-0.12l0.34,-0.13l0.31,-0.18l0.3,-0.15l0.33,-0.15l0.33,-0.14l0.33,-0.15l0.35,-0.05l0.32,-0.13l0.35,-0.1l0.32,-0.09l0.36,-0.14l0.38,-0.21l0.38,-0.15l0.41,-0.15l0.46,-0.14l0.5,-0.18l0.49,-0.19l0.5,-0.19l0.51,-0.21l0.52,-0.23l0.54,-0.21l0.59,-0.17l0.59,-0.21l0.57,-0.26l0.58,-0.21l0.59,-0.19l0.59,-0.23l0.6,-0.24l0.62,-0.24l0.62,-0.24l0.58,-0.22l0.53,-0.26l0.5,-0.23l0.51,-0.23l0.51,-0.24l0.53,-0.24l0.5,-0.27l0.48,-0.27l0.49,-0.24l0.51,-0.22l0.55,-0.22l0.59,-0.22l0.54,-0.18l0.65,-0.14l0.72,-0.14l0.7,-0.14l0.64,-0.24l0.54,-0.39l0.47,-0.44l0.36,-0.57l0.23,-0.73l0.15,-0.79l0.12,-0.75l0.13,-0.77l0.13,-0.79l0.13,-0.79l0.17,-0.79l0.23,-0.82l0.26,-0.77l0.34,-0.73l0.41,-0.71l0.5,-0.66l0.59,-0.63l0.65,-0.62l0.65,-0.58l0.69,-0.62l0.74,-0.62l0.7,-0.58l0.72,-0.68l0.76,-0.66l0.76,-0.68l0.77,-0.67l0.78,-0.66l0.84,-0.7l0.88,-0.63l0.88,-0.62l0.91,-0.58l0.9,-0.61l0.87,-0.66l0.87,-0.67l0.89,-0.7l0.9,-0.71l0.92,-0.68l0.93,-0.66l0.97,-0.58l0.98,-0.54l0.98,-0.45l0.99,-0.36l1.02,-0.31l0.99,-0.39l0.9,-0.5l0.76,-0.63l0.63,-0.76l0.48,-0.79l0.28,-0.92l0.16,-0.98l0.07,-0.92l0.02,-0.92l0.01,-0.88l-0.01,-0.84l-0.02,-0.77l-0.08,-0.71l-0.05,-0.62l-0.04,-0.59l-0.08,-0.59l-0.11,-0.59l-0.11,-0.58l-0.11,-0.58l-0.11,-0.59l-0.1,-0.61l-0.1,-0.59l-0.11,-0.55l-0.13,-0.54l-0.12,-0.54l-0.11,-0.57l-0.11,-0.55l-0.09,-0.61l-0.08,-0.58l-0.08,-0.5l-0.08,-0.59l-0.05,-0.64l0,-0.63l-0.02,-0.63l-0.05,-0.66l-0.08,-0.59l-0.08,-0.59l-0.06,-0.59l-0.05,-0.59l-0.07,-0.59l-0.09,-0.55l-0.08,-0.54l-0.05,-0.5l-0.05,-0.53l-0.05,-0.52l-0.03,-0.45l-0.04,-0.48l-0.03,-0.46l0,-0.44l-0.01,-0.48l-0.05,-0.43l-0.05,-0.45l-0.05,-0.44l-0.03,-0.41l-0.03,-0.41l-0.02,-0.44l-0.02,-0.37l0,-0.37l0,-0.4l0,-0.39l0.01,-0.43l0,-0.41l0.02,-0.36l0.05,-0.4l0.06,-0.45l0.06,-0.44l0.05,-0.45l0.05,-0.46l0.07,-0.53l0.07,-0.54l0.03,-0.54l0.03,-0.58l0.05,-0.58l0.06,-0.62l0.06,-0.61l0.07,-0.63l0.08,-0.61l0.1,-0.62l0.11,-0.63l0.13,-0.61l0.13,-0.66l0.13,-0.67l0.13,-0.63l0.14,-0.67l0.14,-0.66l0.14,-0.64l0.16,-0.67l0.16,-0.68l0.17,-0.66l0.17,-0.67l0.18,-0.7l0.17,-0.68l0.15,-0.61l0.14,-0.66l0.16,-0.67l0.17,-0.61l0.17,-0.59l0.14,-0.62l0.12,-0.58l0.12,-0.54l0.14,-0.57l0.15,-0.57l0.17,-0.54l0.2,-0.53l0.23,-0.58l0.26,-0.55l0.3,-0.54l0.38,-0.58l0.47,-0.49l0.55,-0.39l0.62,-0.31l0.69,-0.23l0.72,-0.1l0.75,-0.03l0.76,-0.03l0.75,-0.01l0.76,0l0.75,0l0.76,0l0.78,0.03l0.78,0.01l0.81,0l0.82,0l0.85,0l0.86,0l0.86,-0.03l0.87,-0.01l0.88,0l0.89,-0.04l0.9,-0.05l0.9,-0.08l0.9,-0.13l0.9,-0.12l0.9,-0.13l0.9,-0.21l0.89,-0.24l0.87,-0.24l0.87,-0.28l0.86,-0.32l0.85,-0.35l0.82,-0.4l0.8,-0.45l0.77,-0.5l0.67,-0.52l0.67,-0.66l0.57,-0.77l0.42,-0.8l0.36,-0.8l0.35,-0.79l0.35,-0.71l0.4,-0.75l0.41,-0.75l0.36,-0.7l0.33,-0.66l0.32,-0.59l0.32,-0.57l0.32,-0.53l0.35,-0.54l0.37,-0.61l0.39,-0.61l0.39,-0.63l0.38,-0.67l0.39,-0.66l0.38,-0.62l0.37,-0.67l0.34,-0.71l0.34,-0.68l0.33,-0.7l0.32,-0.68l0.32,-0.72l0.32,-0.73l0.32,-0.73l0.28,-0.77l0.26,-0.79l0.23,-0.79l0.2,-0.75l0.16,-0.8l0.11,-0.77l0.01,-0.75l-0.15,-0.67l-0.26,-0.53l-0.35,-0.46l-0.37,-0.46l-0.31,-0.44l-0.29,-0.44l-0.32,-0.41l-0.3,-0.36l-0.28,-0.35l-0.29,-0.37l-0.31,-0.36l-0.31,-0.39l-0.28,-0.36l-0.25,-0.34l-0.25,-0.35l-0.22,-0.37l-0.19,-0.4l-0.1,-0.41l-0.02,-0.41l0.07,-0.43l0.14,-0.39l0.16,-0.35l0.14,-0.34l0.11,-0.35l0.1,-0.36l0.11,-0.37l0.13,-0.34l0.12,-0.35l0.11,-0.32l0.11,-0.32l0.08,-0.35l0.06,-0.37l0.06,-0.4l0.05,-0.36l0.02,-0.37l-0.02,-0.43l-0.02,-0.46l-0.05,-0.46l-0.08,-0.41l-0.11,-0.4l-0.11,-0.39l-0.09,-0.43l-0.09,-0.44l-0.05,-0.45l-0.02,-0.46l0.01,-0.44l0.02,-0.45l0.02,-0.49l0.04,-0.49l0.1,-0.49l0.16,-0.53l0.24,-0.48l0.3,-0.41l0.36,-0.43l0.37,-0.44l0.38,-0.45l0.38,-0.48l0.39,-0.48l0.4,-0.55l0.38,-0.59l0.28,-0.62l0.18,-0.58l0.13,-0.49l0.14,-0.28l0.1,-0.19l0.02,-0.1l-0.01,0.01l-0.02,0.01l0.24,-0.15l0.26,-0.21l0.18,-0.23l0.2,-0.31l0.23,-0.37l0.27,-0.43l0.3,-0.44l0.34,-0.48l0.35,-0.49l0.38,-0.55l0.39,-0.57l0.41,-0.66l0.42,-0.73l0.43,-0.71l0.44,-0.72l0.44,-0.72l0.46,-0.71l0.45,-0.73l0.5,-0.76l0.52,-0.79l0.51,-0.76l0.53,-0.73l0.48,-0.67l0.57,-0.73l0.61,-0.71l0.6,-0.66l0.62,-0.66l0.65,-0.62l0.68,-0.55l0.66,-0.57l0.65,-0.59l0.62,-0.62l0.59,-0.61l0.61,-0.59l0.62,-0.59l0.6,-0.58l0.62,-0.57l0.65,-0.5l0.61,-0.53l0.58,-0.57l0.54,-0.55l0.56,-0.54l0.53,-0.52l0.53,-0.49l0.54,-0.46l0.51,-0.46l0.47,-0.49l0.48,-0.5l0.49,-0.45l0.48,-0.45l0.41,-0.41l0.41,-0.39l0.41,-0.4l0.42,-0.39l0.44,-0.34l0.44,-0.27l0.42,-0.24l0.43,-0.27l0.42,-0.27l0.41,-0.24l0.39,-0.21l0.38,-0.18l0.38,-0.14l0.38,-0.14l0.35,-0.12l0.42,-0.14l0.5,-0.19l0.45,-0.21l0.42,-0.21l0.45,-0.14l0.47,-0.19l0.44,-0.24l0.35,-0.15l0.33,-0.19l0.34,-0.3l0.32,-0.31l0.29,-0.28l0.31,-0.3l0.26,-0.37l0.22,-0.36l0.25,-0.32l0.26,-0.3l0.25,-0.32l0.27,-0.34l0.31,-0.34l0.31,-0.35l0.28,-0.35l0.29,-0.37l0.34,-0.36l0.34,-0.32l0.32,-0.32l0.3,-0.37l0.31,-0.36l0.35,-0.35l0.35,-0.37l0.34,-0.36l0.33,-0.37l0.33,-0.43l0.35,-0.41l0.37,-0.43l0.38,-0.44l0.39,-0.44l0.38,-0.44l0.38,-0.48l0.4,-0.49l0.4,-0.49l0.42,-0.53l0.42,-0.57l0.41,-0.55l0.44,-0.57l0.45,-0.59l0.47,-0.58l0.48,-0.62l0.47,-0.66l0.47,-0.61l0.47,-0.58l0.55,-0.61l0.64,-0.66l0.62,-0.62l0.64,-0.53l0.66,-0.44l0.69,-0.43l0.72,-0.39l0.72,-0.37l0.73,-0.39l0.75,-0.43l0.75,-0.44l0.78,-0.41l0.79,-0.41l0.77,-0.35l0.82,-0.34l0.87,-0.35l0.89,-0.4l0.91,-0.41l0.93,-0.44l0.94,-0.43l1.04,-0.44l1.05,-0.43l1.03,-0.39l1,-0.43l0.96,-0.44l1.01,-0.43l0.99,-0.44l0.73,-0.36l0.64,-0.35l1.35,-0.68l0.9,-0.44l0.9,-0.46l0.88,-0.48l0.91,-0.44l0.87,-0.44l0.86,-0.49l0.89,-0.52l0.91,-0.49l0.92,-0.46l0.96,-0.46l0.99,-0.44l1.02,-0.48l1.02,-0.44l1.09,-0.39l1.14,-0.41l1.09,-0.39l1.1,-0.4l1.08,-0.41l1.13,-0.39l1.05,-0.31l1.2,-0.31l1.4,-0.37l1.2,-0.35l1.2,-0.27l1.21,-0.28l1.23,-0.34l1.23,-0.23l1.2,-0.26l1.24,-0.32l1.34,-0.22l1.39,-0.18l1.35,-0.21l1.28,-0.17l1.31,-0.14l1.34,-0.15l1.34,-0.12l1.32,-0.13l1.36,-0.14l1.3,-0.14l1.4,-0.17l1.61,-0.19l1.5,-0.18l1.42,-0.15l1.41,-0.13l1.42,-0.12l1.46,-0.15l1.44,-0.12l1.44,-0.1l1.46,-0.09l1.32,-0.12l1.42,-0.1l1.47,-0.08l1.4,-0.04l1.4,0.05l1.2,0.09l1.23,0.12l1.46,0.17l1.36,0.15l1.29,0.17l1.28,0.19l1.32,0.19l1.3,0.21l1.2,0.19l1.29,0.17l1.33,0.21l1.24,0.19l1.3,0.17l1.34,0.21l1.34,0.19l1.19,0.18l1.34,0.21l1.42,0.24l1.33,0.27l1.39,0.3l1.34,0.26l1.37,0.18l1.41,0.18l1.35,0.17l1.34,0.18l1.32,0.17l1.3,0.18l1.39,0.23l1.45,0.27l1.42,0.27l1.43,0.27l1.48,0.27l1.5,0.24l1.49,0.24l1.46,0.24l1.45,0.24l1.45,0.24l1.43,0.28l1.41,0.26l1.37,0.24l1.35,0.22l1.32,0.19l1.3,0.23l1.35,0.24l1.37,0.24l1.29,0.26l1.4,0.27l1.42,0.26l1.43,0.24l1.51,0.28l1.51,0.35l1.39,0.43l1.4,0.39l1.45,0.24l1.52,0.26l1.55,0.27l1.57,0.27l1.59,0.3l1.61,0.3l1.61,0.3l1.59,0.32l1.59,0.32l1.57,0.35l1.58,0.4l1.61,0.3l1.6,0.28l1.6,0.35l1.6,0.34l1.54,0.3l1.47,0.28l1.42,0.3l1.31,0.24l1.28,0.17l1.27,0.21l1.23,0.21l1.22,0.26l1.2,0.27l1.16,0.27l1.18,0.24l1.23,0.19l1.32,0.17l1.33,0.14l1.27,0.03l1.35,-0.18l1.42,-0.36l1.31,-0.48l1.33,-0.49l1.35,-0.55l1.42,-0.57l1.46,-0.5l1.52,-0.46l1.56,-0.44l1.57,-0.41l1.6,-0.4l1.59,-0.39l1.48,-0.43l1.41,-0.46l1.36,-0.46l1.35,-0.39l1.34,-0.35l1.32,-0.22l1.31,-0.14l1.26,-0.12l1.26,-0.1l1.26,-0.04l1.24,0l1.19,0.04l1.05,0.08l0.99,0.1l0.99,0.09l0.94,0.04l0.85,0.03l0.81,0.03l0.83,0.03l0.82,0.05l0.83,0.05l0.77,0.08l0.73,0.1l0.72,0.09l0.73,0.17l0.71,0.19l0.69,0.23l0.67,0.27l0.66,0.3l0.69,0.27l0.7,0.21l0.68,0.19l0.69,0.23l0.73,0.18l0.78,0.15l0.81,0.14l0.78,0.09l0.75,0.05l0.79,0.08l0.81,0.13l0.8,0.18l1.02,0.26l1.1,0.3l0.99,0.26l0.89,0.27l0.88,0.24l0.95,0.22l1.02,0.26l1.02,0.18l1.05,0.18l0.93,0.17l1.05,0.18l1.14,0.22l1.05,0.22l1.05,0.26l1.06,0.26l1.09,0.24l1.09,0.31l1.08,0.35l1.1,0.37l1.07,0.4l1.06,0.39l1.05,0.36l0.98,0.32l1.08,0.4l1.11,0.46l0.99,0.43l1.15,0.45l1.27,0.34l1.22,0.18l1.2,0.12l1.19,0.13l1.17,0.13l1.14,0.06l1.08,0.05l1.17,0.08l1.3,0.04l1.33,0l1.42,0.05l1.51,0.1l1.5,-0.03l1.51,-0.13l1.57,-0.12l1.55,-0.04l1.48,0l1.46,0.06l1.51,0.1l1.47,0.09l1.41,0.06l1.46,0.12l1.44,0.15l1.42,0.17l1.42,0.3l1.43,0.37l1.42,0.45l1.45,0.49l1.43,0.44l1.39,0.36l1.39,0.44l1.4,0.43l1.47,0.4l1.51,0.39l1.47,0.34l1.47,0.26l1.53,0.18l1.52,-0.03l1.48,-0.27l1.48,-0.32l1.5,-0.3l1.48,-0.26l1.45,-0.18l1.59,-0.15l1.63,-0.12l1.57,-0.06l1.58,-0.03l1.56,0l1.49,0l1.45,-0.03l1.39,-0.05l1.39,-0.17l1.22,-0.34l1.13,-0.43l1,-0.68l0.9,-0.94l0.91,-0.89l1.02,-0.73l1.12,-0.44l1.23,-0.09l1.25,0.08l1.22,0.19l1.23,0.15l1.26,0.06l1.26,0.03l1.23,-0.1l1.24,-0.17l1.2,-0.23l1.22,-0.22l1.18,-0.19l1.2,-0.22l1.23,-0.17l1.24,-0.09l1.23,-0.04l1.22,0l1.22,-0.03l1.24,-0.03l1.27,0l1.23,-0.09l1.21,-0.12l1.14,-0.1l1.14,-0.09l1.15,-0.08l1.14,-0.01l1.1,0.03l1.11,0.08l1.13,0.13l1.17,0.06l1.2,-0.03l1.2,-0.12l1.19,-0.21l1.19,-0.27l1.17,-0.18l1.16,-0.13l1.08,-0.15l1.04,-0.17l1.05,-0.23l1.08,-0.28l1.12,-0.26l1.11,-0.24l1.09,-0.22l1.14,-0.19l1.16,-0.17l1.16,-0.17l1.18,-0.23l1.23,-0.28l1.22,-0.39l1.12,-0.41l1.11,-0.39l1.16,-0.36l1.1,-0.34l1.11,-0.35l1.11,-0.35l1.11,-0.39l1.12,-0.36l1.11,-0.27l1.13,-0.22l1.17,-0.17l1.17,-0.09l1.16,0.01l1.15,-0.01l1.17,-0.05l1.17,-0.05l1.18,-0.04l1.18,-0.09l1.14,-0.12l1.18,-0.13l1.18,-0.15l1.17,-0.17l1.14,-0.12l1.15,-0.06l1.2,0.01l1.2,-0.05l1.18,-0.06l1.23,-0.08l1.18,-0.15l1.1,-0.21l1.08,-0.26l1.06,-0.35l1.05,-0.41l1.11,-0.39l1.14,-0.35l1.09,-0.32l1.05,-0.26l1.05,-0.31l1.05,-0.31l1.07,-0.24l1.07,-0.22l1.03,-0.24l1.09,-0.24l1.09,-0.35l1.05,-0.32l0.99,-0.27l0.99,-0.24l1.04,-0.22l1.1,-0.17l1.11,-0.14l1.13,-0.12l1.2,-0.1l1.28,0l1.35,0.01l1.4,0.06l1.44,0.12l1.51,0.1l1.39,0.1l1.35,0.09l1.43,-0.04l1.52,-0.1l1.51,-0.13l1.49,-0.23l1.46,-0.3l1.48,-0.24l1.48,-0.19l1.43,-0.28l1.48,-0.26l1.38,-0.26l1.42,-0.44l1.45,-0.61l1.5,-0.64l1.57,-0.63l1.6,-0.64l1.6,-0.61l1.59,-0.57l1.58,-0.58l1.5,-0.54l1.51,-0.54l1.53,-0.58l1.42,-0.57l1.33,-0.5l1.24,-0.48l1.29,-0.49l1.35,-0.44l1.28,-0.37l1.23,-0.24l1.23,-0.23l1.2,-0.06l1.11,0.08l1.06,0.1l1.08,0.1l1.13,0.06l1.23,-0.01l1.35,-0.14l1.44,-0.23l1.39,-0.24l1.32,-0.26l1.26,-0.3l1.23,-0.27l1.25,-0.13l1.29,0.01l1.38,0.17l1.3,0.24l1.05,0.28l0.86,0.28l0.74,0.23l0.65,0.17l0.53,0.13l0.39,0.09l0.26,0.13l0.19,0.13l0.2,0.15l0.2,0.31l0.15,0.45l0.02,0.52l-0.07,0.59l-0.11,0.61l-0.11,0.63l-0.11,0.67l-0.09,0.61l-0.11,0.67l-0.09,0.7l-0.08,0.68l-0.07,0.68l-0.06,0.67l-0.05,0.7l-0.05,0.68l-0.04,0.7l-0.02,0.7l-0.02,0.7l-0.01,0.66l0.02,0.66l0.01,0.7l0.01,0.68l0.01,0.66l0.02,0.68l0.02,0.67l0.01,0.71l-0.02,0.73l-0.02,0.7l-0.03,0.73l-0.02,0.71l-0.01,0.68l0,0.67l0.01,0.68l0.02,0.7l0.02,0.66l-0.01,0.63l-0.01,0.71l0.02,0.73l0.04,0.75l0.02,0.68l0,0.72l0.02,0.73l0.04,0.71l0.02,0.7l-0.01,0.71l0.01,0.71l0,0.72l0.01,0.72l0.02,0.7l0.02,0.75l0.01,0.76l0.01,0.81l0,0.82l-0.02,0.79l-0.01,0.81l0.01,0.81l-0.03,0.81l-0.03,0.88l-0.06,0.86l-0.07,0.86l-0.05,0.88l-0.03,0.89l-0.05,0.92l-0.05,0.92l-0.02,0.92l0.01,0.89l0.02,0.9l-0.02,0.93l-0.05,0.95l-0.06,0.95l-0.03,0.92l-0.08,0.93l-0.11,0.95l-0.16,0.95l-0.2,0.94l-0.19,0.94l-0.17,1.02l-0.14,1.03l-0.14,0.97l-0.14,0.97l-0.15,0.98l-0.17,0.92l-0.21,0.94l-0.3,1.08l-0.31,0.97l-0.29,0.88l-0.23,0.89l0.08,0.77l0.43,0.66l0.62,0.58l0.72,0.48l0.75,0.43l0.78,0.48l0.73,0.52l0.67,0.64l0.66,0.77l0.64,0.85l0.58,1.02l0.5,1.13l0.47,1.08l0.47,1.1l0.49,1.16l0.48,1.16l0.46,1.13l0.44,1.11l0.43,1.08l0.47,1.19l0.53,1.25l0.53,1.25l0.56,1.26l0.59,1.26l0.47,1.16l0.47,1.24l0.53,1.25l0.6,1.26l0.66,1.26l0.61,1.2l0.59,1.16l0.6,1.11l0.59,1.1l0.56,1.07l0.55,1.06l0.51,0.99l0.44,0.85l0.47,0.82l0.5,0.85l0.53,0.89l0.6,0.94l0.65,0.95l0.67,0.94l0.64,0.95l0.59,0.95l0.56,0.95l0.56,0.94l0.53,0.97l0.53,0.95l0.53,0.92l0.53,0.92l0.49,0.93l0.47,0.86l0.5,0.8l0.49,0.79l0.48,0.79l0.47,0.76l0.47,0.75l0.44,0.7l0.41,0.72l0.39,0.67l0.38,0.64l0.4,0.64l0.38,0.63l0.36,0.64l0.37,0.61l0.35,0.58l0.34,0.57l0.35,0.58l0.35,0.53l0.32,0.49l0.32,0.49l0.29,0.52l0.29,0.52l0.29,0.49l0.27,0.49l0.23,0.46l0.21,0.44l0.23,0.48l0.23,0.46l0.25,0.44l0.24,0.46l0.23,0.5l0.24,0.46l0.27,0.44l0.29,0.41l0.26,0.39l0.25,0.4l0.22,0.43l0.21,0.37l0.2,0.41l0.21,0.41l0.2,0.41l0.22,0.45l0.22,0.41l0.2,0.43l0.2,0.41l0.2,0.43l0.21,0.41l0.18,0.39l0.16,0.4l0.18,0.39l0.2,0.39l0.2,0.4l0.16,0.43l0.13,0.45l0.14,0.37l0.18,0.37l0.17,0.43l0.13,0.41l0.15,0.36l0.16,0.32l0.12,0.31l0.08,0.3l0.07,0.31l0.06,0.31l0.07,0.32l0.08,0.32l0.11,0.32l0.11,0.34l0.11,0.37l0.08,0.37l0.09,0.35l0.1,0.31l0.08,0.32l0.08,0.35l0.07,0.34l0.08,0.32l0.09,0.3l0.08,0.26l0.05,0.31l0.05,0.31l0.05,0.3l0.1,0.3l0.11,0.3l0.1,0.32l0.11,0.32l0.08,0.35l0.08,0.4l0.08,0.39l0.07,0.36l0.05,0.37l0.1,0.37l0.11,0.4l0.12,0.41l0.12,0.36l0.15,0.37l0.18,0.4l0.18,0.43l0.14,0.41l0.11,0.43l0.11,0.37l0.09,0.37l0.09,0.4l0.09,0.36l0.08,0.44l0.09,0.43l0.14,0.43l0.12,0.44l0.11,0.45l0.12,0.4l0.13,0.43l0.12,0.41l0.11,0.4l0.13,0.41l0.14,0.48l0.13,0.46l0.13,0.41l0.17,0.4l0.17,0.36l0.17,0.4l0.17,0.41l0.18,0.4l0.19,0.36l0.2,0.37l0.2,0.4l0.18,0.32l0.17,0.36l0.18,0.39l0.19,0.37l0.2,0.4l0.17,0.44l0.16,0.45l0.18,0.41l0.14,0.49l0.14,0.5l0.15,0.49l0.14,0.46l0.15,0.44l0.17,0.45l0.18,0.4l0.17,0.43l0.17,0.41l0.17,0.39l0.19,0.4l0.18,0.43l0.18,0.41l0.18,0.39l0.19,0.4l0.19,0.4l0.19,0.39l0.17,0.4l0.17,0.39l0.19,0.36l0.2,0.39l0.2,0.36l0.2,0.37l0.2,0.39l0.19,0.4l0.17,0.36l0.19,0.37l0.2,0.35l0.22,0.39l0.2,0.36l0.2,0.37l0.19,0.36l0.19,0.37l0.2,0.37l0.21,0.37l0.2,0.36l0.21,0.35l0.21,0.37l0.2,0.35l0.2,0.35l0.17,0.39l0.17,0.36l0.18,0.37l0.19,0.36l0.18,0.31l0.18,0.3l0.17,0.3l0.18,0.27l0.17,0.27l0.12,0.27l0.1,0.24l0.11,0.24l0.13,0.27l0.11,0.27l0.06,0.27l0.05,0.3l0.05,0.32l0,0.35l0,0.28l0.05,0.22l0.06,0.22l0.08,0.24l0.08,0.28l0.05,0.3l0.07,0.26l0.08,0.28l0.11,0.28l0.06,0.32l0.05,0.32l0.09,0.32l0.08,0.39l0.1,0.32l0.07,0.27l0.05,0.27l0.07,0.32l0.09,0.32l0.06,0.32l0.07,0.32l0.08,0.28l0.08,0.27l0.06,0.31l0.1,0.37l0.12,0.41l0.12,0.45l0.11,0.48l0.11,0.49l0.14,0.46l0.2,0.41l0.17,0.44l0.17,0.46l0.19,0.43l0.2,0.43l0.21,0.4l0.2,0.4l0.16,0.36l0.11,0.34l0.12,0.39l0.14,0.41l0.14,0.45l0.14,0.44l0.15,0.48l0.08,0.46l0.09,0.44l0.09,0.41l0.06,0.4l0.05,0.45l0.03,0.53l-0.09,0.66l-0.02,0.62l0.06,0.54l0.02,0.52l0.06,0.49l0.06,0.52l-0.01,0.61l0,0.61l0.04,0.55l0.02,0.54l0.02,0.54l0,0.58l0,0.55l0.05,0.52l0.08,0.48l0.05,0.5l0.02,0.49l0.05,0.49l0.06,0.49l0.05,0.5l0.03,0.49l0.03,0.49l0.02,0.45l0.05,0.45l0.08,0.41l0.1,0.39l0.11,0.39l0.06,0.4l0.05,0.4l0.05,0.43l0.05,0.4l0.05,0.43l0.05,0.45l0.05,0.44l0.03,0.48l0.04,0.46l0.05,0.41l0.04,0.43l0.03,0.44l0.04,0.48l0.06,0.43l0.08,0.43l0.05,0.44l0.02,0.44l0,0.45l0,0.46l-0.01,0.5l0.02,0.46l0.05,0.44l0.05,0.44l0.02,0.45l0.03,0.4l0.05,0.43l0.08,0.41l0.04,0.4l0.02,0.43l0.01,0.41l-0.01,0.43l-0.01,0.46l-0.03,0.46l-0.02,0.46l-0.01,0.44l-0.02,0.4l0.01,0.43l0.02,0.41l0,0.43l-0.02,0.41l-0.03,0.41l-0.05,0.44l-0.05,0.41l-0.01,0.4l-0.01,0.39l-0.05,0.37l-0.06,0.4l-0.06,0.45l-0.08,0.44l-0.08,0.44l-0.08,0.45l-0.08,0.4l-0.07,0.43l-0.06,0.45l-0.02,0.44l-0.04,0.44l-0.03,0.45l-0.05,0.44l-0.08,0.44l-0.09,0.44l-0.08,0.45l-0.06,0.41l-0.05,0.43l-0.05,0.44l-0.05,0.41l-0.06,0.43l-0.08,0.4l-0.09,0.4l-0.1,0.4l-0.1,0.43l-0.09,0.4l-0.11,0.4l-0.1,0.4l-0.11,0.39l-0.1,0.36l-0.08,0.39l-0.08,0.39l-0.08,0.4l-0.08,0.36l-0.05,0.35l-0.03,0.37l-0.05,0.39l-0.1,0.43l-0.11,0.41l-0.08,0.43l-0.08,0.44l-0.07,0.41l-0.06,0.43l-0.08,0.41l-0.08,0.43l-0.06,0.41l-0.02,0.39l-0.02,0.4l-0.02,0.39l-0.02,0.43l-0.05,0.44l-0.05,0.45l-0.03,0.44l-0.04,0.39l-0.05,0.35l-0.02,0.34l0.03,0.35l0.02,0.37l-0.01,0.36l-0.01,0.4l-0.04,0.45l-0.08,0.44l-0.08,0.48l-0.11,0.68l-0.04,0.22l-0.06,0.44l-0.07,0.41l-0.05,0.43l-0.05,0.39l-0.06,0.35l-0.05,0.5l0,0.18l0.03,0.35l0.03,0.31l0.01,0.26l-0.02,0.24l-0.06,0.26l-0.06,0.24l-0.04,0.34l-0.05,0.35l-0.03,0.35l-0.02,0.32l-0.05,0.36l-0.05,0.36l-0.04,0.35l-0.05,0.28l-0.07,0.34l-0.06,0.36l-0.08,0.37l-0.11,0.36l-0.11,0.4l-0.06,0.39l-0.05,0.4l-0.05,0.48l-0.12,0.5l-0.26,0.49l-0.29,0.45l-0.25,0.48l-0.24,0.46l-0.18,0.41l-0.23,0.48l-0.27,0.49l-0.39,0.53l-0.41,0.57l-0.33,0.44l-0.29,0.36l-0.31,0.35l-0.35,0.35l-0.34,0.31l-0.29,0.3l-0.28,0.3l-0.35,0.41l-0.36,0.44l-0.35,0.52l-0.39,0.53l-0.41,0.52l-0.39,0.58l-0.39,0.58l-0.44,0.53l-0.44,0.49l-0.38,0.4l-0.32,0.39l-0.27,0.45l-0.31,0.53l-0.35,0.5l-0.34,0.49l-0.32,0.53l-0.27,0.5l-0.2,0.44l-0.19,0.5l-0.19,0.5l-0.2,0.45l-0.22,0.46l-0.21,0.46l-0.18,0.41l-0.19,0.43l-0.24,0.59l-0.21,0.54l-0.21,0.44l-0.17,0.39l-0.12,0.31l-0.14,0.35l-0.2,0.63l-0.31,0.73l-0.37,0.76l-0.38,0.85l-0.29,0.79l-0.25,0.8l-0.2,0.75l-0.23,0.79l-0.22,0.77l-0.19,0.7l-0.18,0.79l-0.23,0.95l-0.21,0.94l-0.17,1.01l-0.2,1.17l-0.23,1.21l-0.17,1.08l-0.16,1.01l-0.19,1.02l-0.2,1.04l-0.19,1.04l-0.19,1.04l-0.2,1.03l-0.17,1.07l-0.14,1.01l-0.14,1.11l-0.07,1.1l-0.04,0.95l-0.02,1.13l0.02,1.21l0.04,1.11l0.23,1.5l0.35,1.7l0.35,1.7l-0.09,1.62l0.01,1.3l0.25,1.01l0.08,0.92l0.07,1.01l0.08,1.02l0.02,0.97l-0.02,1.07l-0.07,1.17l-0.09,1.15l-0.11,0.95l-0.28,1.15l-0.43,1.21l-0.3,0.85l-0.35,0.68l-0.38,0.58l-0.34,0.48l-0.31,0.41l-0.31,0.45l-0.37,0.49l-0.4,0.5l-0.44,0.43l-0.46,0.43l-0.48,0.46l-0.49,0.49l-0.47,0.49l-0.46,0.5l-0.45,0.52l-0.44,0.54l-0.46,0.57l-0.44,0.59l-0.42,0.59l-0.41,0.62l-0.41,0.63l-0.43,0.64l-0.4,0.63l-0.48,0.7l-0.48,0.66l-0.49,0.66l-0.52,0.66l-0.53,0.58l-0.46,0.49l-0.51,0.61l-0.56,0.62l-0.5,0.57l-0.5,0.57l-0.51,0.54l-0.51,0.54l-0.5,0.54l-0.5,0.61l-0.48,0.63l-0.45,0.67l-0.42,0.72l-0.4,0.82l-0.44,0.89l-0.49,0.92l-0.48,0.97l-0.49,0.98l-0.49,0.97l-0.47,0.95l-0.44,0.94l-0.51,0.97l-0.59,0.93l-0.67,0.82l-0.8,0.82l-0.83,0.77l-0.86,0.68l-0.85,0.63l-0.85,0.66l-0.84,0.7l-0.84,0.68l-0.84,0.72l-0.74,0.66l-0.79,0.67l-0.8,0.72l-0.7,0.72l-0.64,0.72l-0.62,0.73l-0.62,0.72l-0.59,0.71l-0.59,0.75l-0.6,0.73l-0.56,0.73l-0.59,0.73l-0.59,0.75l-0.59,0.71l-0.62,0.68l-0.65,0.72l-0.66,0.72l-0.69,0.68l-0.73,0.58l-0.75,0.55l-0.76,0.63l-0.72,0.57l-0.78,0.68l-0.81,0.76l-0.77,0.72l-0.7,0.76l-0.65,0.86l-0.6,0.94l-0.56,1.02l-0.54,1.08l-0.59,1.22l-0.62,1.25l-0.65,1.26l-0.6,1.13l-0.73,1.28l-0.9,1.43l-0.78,1.17l-0.72,1.07l-0.69,1.1l-0.67,1.13l-0.58,1.13l-0.5,1.25l-0.45,1.26l-0.44,1.25l-0.38,1.06l-0.44,1.22l-0.49,1.44l-0.49,1.44l-0.44,1.25l-0.54,1.21l-0.64,1.1l-0.69,0.93l-0.74,0.82l-0.76,0.73l-0.7,0.76l-0.52,0.82l-0.31,0.98l-0.07,1.03l0.17,1.08l0.32,1.15l0.44,1.19l0.47,1.13l0.45,1.08l0.49,1.25l0.47,1.26l0.38,1.25l0.27,1.31l0.15,1.31l0.06,1.35l0.01,1.33l-0.01,1.28l-0.05,1.2l-0.13,1.15l-0.23,1.15l-0.32,1.17l-0.35,1.2l-0.37,1.29l-0.29,1.28l-0.23,1.3l-0.19,1.26l-0.17,1.2l-0.13,1.15l-0.1,1.11l-0.07,1.11l-0.05,0.95l-0.05,1.13l0,1.5l0.12,1.16l0.2,1.02l0.23,0.75l0.35,0.77l0.48,0.82l0.44,0.72l0.42,0.77l0.34,0.8l0.24,0.81l0.14,0.88l-0.01,0.85l-0.12,0.81l-0.18,0.81l-0.22,0.81l-0.21,0.76l-0.2,0.79l-0.18,0.67l-0.22,0.73l-0.29,0.86l-0.26,0.71l-0.26,0.75l-0.27,0.77l-0.25,0.79l-0.23,0.76l-0.25,0.79l-0.25,0.76l-0.26,0.77l-0.29,0.81l-0.28,0.79l-0.26,0.79l-0.22,0.82l-0.21,0.8l-0.2,0.76l-0.2,0.71l-0.17,0.68l-0.15,0.63l-0.14,0.5l-0.08,0.41l-0.06,0.32l-0.1,0.32l-0.11,0.36l-0.08,0.31l-0.09,0.23l-0.09,0.3l-0.07,0.31l-0.07,0.3l-0.1,0.35l-0.12,0.39l-0.08,0.34l-0.07,0.34l-0.05,0.4l-0.02,0.44l0.01,0.5l0,0.53l-0.04,0.54l-0.06,0.57l-0.14,0.59l-0.17,0.62l-0.14,0.58l-0.14,0.59l-0.14,0.66l-0.15,0.59l-0.1,0.52l-0.11,0.59l-0.11,0.68l-0.11,0.63l-0.13,0.61l-0.1,0.62l-0.1,0.67l-0.09,0.62l-0.1,0.63l-0.11,0.61l-0.11,0.59l-0.1,0.59l-0.11,0.62l-0.13,0.61l-0.16,0.55l-0.14,0.57l-0.11,0.59l-0.09,0.55l-0.1,0.58l-0.11,0.57l-0.11,0.54l-0.1,0.54l-0.11,0.52l-0.1,0.52l-0.08,0.54l-0.08,0.5l-0.08,0.49l-0.07,0.5l-0.08,0.46l-0.1,0.46l-0.07,0.46l-0.04,0.48l-0.02,0.43l-0.03,0.43l-0.02,0.48l-0.02,0.46l0,0.44l0.01,0.46l-0.02,0.53l-0.05,0.5l-0.02,0.53l0,0.48l0.01,0.41l0.02,0.36l0.03,0.35l0.05,0.37l0.06,0.43l0.08,0.43l0.14,0.49l0.18,0.62l0.25,0.79l0.32,0.86l0.33,0.92l0.33,0.97l0.32,0.95l0.3,1.02l0.3,1.02l0.29,0.98l0.28,0.93l0.21,0.95l0.14,0.98l0.15,1.2l0.2,1.38l0.34,1.43l0.41,1.53l0.36,1.57l0.28,1.56l0.22,1.64l0.16,1.59l0.11,1.48l0.1,1.46l0.06,1.46l0.08,1.47l0.14,1.46l0.21,1.39l0.29,1.28l0.36,1.2l0.44,1.16l0.55,1.13l0.69,1.22l0.86,1.39l1.1,1.5l1.25,1.53l1.29,1.59l1.24,1.57l1.22,1.64l1.16,1.6l1.07,1.52l1.03,1.62l0.93,1.61l0.88,1.48l0.83,1.46l0.79,1.51l0.75,1.43l0.76,1.37l0.72,1.22l0.75,1.15l0.74,1.06l0.87,0.9l1.11,0.68l1.23,0.44l1.26,0.15l1.25,-0.01l1.28,-0.21l1.18,-0.43l1.05,-0.52l0.95,-0.48l0.93,-0.41l0.98,-0.27l0.99,-0.14l1.01,-0.06l1.02,0.01l1.04,0.09l1.05,0.13l1.08,0.14l1.09,0.14l1.08,0.09l1.04,0.08l1.02,0.1l1.01,0.06l0.96,0.21l0.87,0.41l0.75,0.76l0.69,0.94l0.66,0.98l0.69,0.94l0.79,0.88l0.92,0.75l1.05,0.62l1.14,0.5l1.21,0.48l1.14,0.55l1.02,0.68l0.94,0.71l0.92,0.66l1,0.63l0.96,0.61l0.91,0.62l0.84,0.71l0.79,0.77l0.75,0.75l0.68,0.81l0.64,0.77l0.59,0.8l0.55,0.76l0.52,0.71l0.5,0.66l0.52,0.67l0.53,0.66l0.52,0.67l0.48,0.72l0.41,0.73l0.34,0.73l0.17,0.82l-0.02,0.92l-0.14,0.92l-0.14,0.89l-0.11,0.92l-0.05,0.86l0.03,0.88l0.11,0.85l0.17,0.77l0.26,0.73l0.34,0.71l0.4,0.66l0.4,0.64l0.38,0.63l0.34,0.61l0.35,0.62l0.35,0.62l0.36,0.62l0.34,0.59l0.35,0.59l0.35,0.59l0.31,0.59l0.33,0.62l0.32,0.57l0.33,0.54l0.33,0.54l0.38,0.54l0.35,0.5l0.37,0.55l0.38,0.58l0.37,0.54l0.37,0.54l0.37,0.57l0.38,0.59l0.37,0.59l0.38,0.55l0.38,0.61l0.37,0.64l0.35,0.63l0.35,0.64l0.36,0.64l0.35,0.61l0.35,0.62l0.36,0.57l0.36,0.61l0.32,0.64l0.29,0.61l0.28,0.66l0.21,0.68l0.11,0.72l0.05,0.73l0.03,0.73l0.02,0.71l0.02,0.79l0.03,0.66l0.05,0.67l0.08,0.95l0.09,0.84l0.13,0.79l0.14,0.75l0.17,0.77l0.18,0.76l0.18,0.76l0.16,0.76l0.17,0.72l0.18,0.71l0.23,0.66l0.23,0.62l0.23,0.59l0.17,0.49l0.1,0.41l0.03,0.36l-0.06,0.26l-0.17,0.19l-0.28,0.23l-0.35,0.21l-0.43,0.17l-0.5,0.18l-0.52,0.17l-0.53,0.09l-0.52,0.08l-0.53,0.08l-0.53,0.08l-0.52,0.05l-0.53,0.12l-0.54,0.12l-0.54,0.1l-0.54,0.09l-0.55,0.13l-0.54,0.12l-0.55,0.13l-0.51,0.12l-0.56,0.1l-0.56,0.1l-0.53,0.09l-0.5,0.13l-0.5,0.12l-0.51,0.14l-0.52,0.12l-0.52,0.13l-0.5,0.12l-0.51,0.09l-0.53,0.13l-0.53,0.12l-0.55,0.13l-0.56,0.12l-0.55,0.17l-0.54,0.17l-0.52,0.12l-0.53,0.13l-0.52,0.17l-0.5,0.17l-0.5,0.15l-0.55,0.14l-0.55,0.15l-0.53,0.14l-0.53,0.15l-0.52,0.17l-0.52,0.17l-0.5,0.15l-0.49,0.12l-0.49,0.13l-0.49,0.18l-0.47,0.15l-0.5,0.15l-0.5,0.14l-0.51,0.15l-0.52,0.14l-0.53,0.18l-0.53,0.17l-0.52,0.18l-0.52,0.17l-0.53,0.18l-0.55,0.19l-0.55,0.19l-0.54,0.17l-0.55,0.18l-0.53,0.17l-0.53,0.14l-0.53,0.18l-0.53,0.19l-0.53,0.17l-0.52,0.14l-0.52,0.18l-0.51,0.17l-0.49,0.18l-0.47,0.14l-0.44,0.12l-0.52,0.14l-0.58,0.19l-0.57,0.19l-0.54,0.17l-0.55,0.18l-0.53,0.19l-0.53,0.19l-0.54,0.17l-0.56,0.18l-0.58,0.19l-0.58,0.17l-0.6,0.21l-0.61,0.22l-0.62,0.19l-0.65,0.21l-0.67,0.15l-0.65,0.18l-0.71,0.19l-0.72,0.18l-0.75,0.17l-0.75,0.17l-0.78,0.18l-0.81,0.17l-0.83,0.12l-0.84,0.09l-0.84,0.13l-0.86,0.15l-0.84,0.14l-0.83,0.12l-0.82,0.13l-0.84,0.12l-0.83,0.1l-0.83,0.15l-0.84,0.17l-0.83,0.15l-0.83,0.14l-0.81,0.18l-0.79,0.17l-0.78,0.18l-0.78,0.23l-0.78,0.21l-0.78,0.23l-0.8,0.21l-0.8,0.21l-0.78,0.22l-0.78,0.22l-0.78,0.23l-0.77,0.24l-0.75,0.22l-0.73,0.26l-0.69,0.23l-0.64,0.26l-0.59,0.23l-0.55,0.19l-0.52,0.23l-0.48,0.21l-0.42,0.21l-0.38,0.19l-0.36,0.23l-0.35,0.24l-0.37,0.18l-0.37,0.18l-0.4,0.19l-0.4,0.17l-0.37,0.18l-0.35,0.19l-0.33,0.19l-0.34,0.26l-0.31,0.27l-0.31,0.22l-0.34,0.21l-0.41,0.26l-0.44,0.28l-0.39,0.23l-0.36,0.19l-0.37,0.19l-0.42,0.17l-0.47,0.18l-0.46,0.23l-0.47,0.21l-0.44,0.17l-0.43,0.18l-0.41,0.19l-0.41,0.17l-0.44,0.21l-0.45,0.19l-0.47,0.18l-0.46,0.15l-0.45,0.18l-0.46,0.17l-0.46,0.18l-0.46,0.17l-0.48,0.18l-0.48,0.17l-0.49,0.17l-0.5,0.21l-0.5,0.22l-0.48,0.22l-0.47,0.22l-0.45,0.22l-0.44,0.23l-0.42,0.21l-0.4,0.23l-0.41,0.24l-0.41,0.28l-0.4,0.3l-0.38,0.3l-0.38,0.31l-0.41,0.32l-0.41,0.32l-0.37,0.35l-0.37,0.35l-0.35,0.37l-0.37,0.36l-0.35,0.37l-0.36,0.4l-0.37,0.36l-0.38,0.35l-0.38,0.34l-0.37,0.35l-0.38,0.34l-0.38,0.35l-0.38,0.35l-0.37,0.35l-0.37,0.31l-0.37,0.32l-0.38,0.32l-0.38,0.32l-0.38,0.31l-0.39,0.34l-0.4,0.31l-0.44,0.3l-0.47,0.28l-0.5,0.3l-0.53,0.34l-0.56,0.34l-0.59,0.35l-0.59,0.37l-0.65,0.4l-0.68,0.39l-0.69,0.43l-0.68,0.41l-0.66,0.43l-0.65,0.48l-0.62,0.45l-0.62,0.48l-0.63,0.46l-0.61,0.49l-0.62,0.52l-0.62,0.46l-0.62,0.45l-0.62,0.44l-0.64,0.41l-0.65,0.36l-0.65,0.35l-0.68,0.34l-0.67,0.35l-0.65,0.35l-0.65,0.31l-0.65,0.34l-0.65,0.31l-0.65,0.3l-0.63,0.3l-0.61,0.28l-0.61,0.3l-0.61,0.27l-0.6,0.27l-0.63,0.3l-0.63,0.26l-0.64,0.28l-0.63,0.27l-0.62,0.27l-0.62,0.3l-0.65,0.27l-0.64,0.24l-0.62,0.24l-0.62,0.21l-0.6,0.21l-0.58,0.22l-0.58,0.18l-0.59,0.22l-0.58,0.24l-0.54,0.26l-0.57,0.27l-0.59,0.26l-0.59,0.31l-0.59,0.28l-0.61,0.27l-0.6,0.3l-0.61,0.3l-0.61,0.3l-0.62,0.26l-0.63,0.26l-0.64,0.27l-0.64,0.26l-0.66,0.28l-0.69,0.26l-0.7,0.24l-0.7,0.26l-0.7,0.21l-0.72,0.21l-0.72,0.15l-0.75,0.15l-0.76,0.08l-0.78,0.09l-0.81,0.03l-0.83,0l-0.84,0l-0.84,-0.03l-0.84,-0.01l-0.84,-0.04l-0.84,-0.04l-0.84,-0.09l-0.85,-0.06l-0.84,-0.08l-0.85,-0.06l-0.83,-0.05l-0.84,-0.05l-0.83,0.01l-0.81,0.08l-0.78,0.13l-0.78,0.14l-0.76,0.22l-0.72,0.27l-0.66,0.32l-0.6,0.41l-0.55,0.48l-0.5,0.52l-0.44,0.54l-0.38,0.52l-0.32,0.46l-0.28,0.48l-0.2,0.5l-0.14,0.49l-0.12,0.44l-0.08,0.41l-0.08,0.45l-0.12,0.46l-0.11,0.52l-0.08,0.46l-0.08,0.48l-0.08,0.46l-0.06,0.48l-0.07,0.46l-0.12,0.4l-0.17,0.31l-0.19,0.27l-0.2,0.23l-0.19,0.21l-0.17,0.22l-0.15,0.19l-0.17,0.17l-0.18,0.14l-0.21,0.13l-0.26,0.12l-0.31,0.1l-0.32,0.06l-0.38,0.08l-0.4,0.22l-0.41,0.21l-0.45,0.18l-0.52,0.22l-0.5,0.24l-0.46,0.19l-0.44,0.18l-0.41,0.19l-0.41,0.19l-0.41,0.23l-0.43,0.24l-0.53,0.28l-0.6,0.26l-0.59,0.22l-0.56,0.19l-0.56,0.19l-0.56,0.17l-0.57,0.18l-0.56,0.17l-0.56,0.14l-0.57,0.15l-0.53,0.17l-0.54,0.17l-0.53,0.12l-0.51,0.13l-0.48,0.12l-0.47,0.13l-0.47,0.18l-0.45,0.23l-0.46,0.24l-0.47,0.24l-0.49,0.24l-0.49,0.27l-0.51,0.3l-0.53,0.3l-0.55,0.3l-0.55,0.23l-0.53,0.23l-0.5,0.27l-0.47,0.3l-0.47,0.32l-0.52,0.31l-0.57,0.31l-0.59,0.3l-0.56,0.3l-0.53,0.32l-0.53,0.35l-0.53,0.34l-0.51,0.35l-0.47,0.35l-0.41,0.34l-0.41,0.39l-0.36,0.36l-0.33,0.37l-0.34,0.43l-0.38,0.46l-0.37,0.55l-0.35,0.59l-0.34,0.59l-0.32,0.57l-0.32,0.61l-0.29,0.59l-0.23,0.66l-0.18,0.66l-0.2,0.67l-0.23,0.68l-0.21,0.66l-0.22,0.64l-0.21,0.67l-0.21,0.66l-0.23,0.66l-0.22,0.66l-0.23,0.68l-0.22,0.68l-0.23,0.72l-0.26,0.75l-0.27,0.73l-0.22,0.73l-0.2,0.76l-0.23,0.76l-0.25,0.77l-0.26,0.79l-0.26,0.75l-0.25,0.73l-0.25,0.75l-0.22,0.72l-0.22,0.71l-0.22,0.72l-0.19,0.7l-0.16,0.67l-0.15,0.67l-0.18,0.66l-0.18,0.62l-0.19,0.62l-0.18,0.59l-0.14,0.58l-0.14,0.61l-0.14,0.58l-0.17,0.59l-0.2,0.61l-0.18,0.59l-0.15,0.53l-0.15,0.61l-0.17,0.63l-0.17,0.59l-0.17,0.59l-0.17,0.58l-0.16,0.59l-0.17,0.59l-0.17,0.59l-0.17,0.62l-0.17,0.63l-0.17,0.67l-0.16,0.72l-0.16,0.77l-0.17,0.75l-0.19,0.8l-0.18,0.81l-0.21,0.79l-0.22,0.81l-0.21,0.84l-0.2,0.84l-0.21,0.86l-0.23,0.86l-0.26,0.86l-0.24,0.85l-0.23,0.84l-0.23,0.84l-0.25,0.85l-0.25,0.85l-0.24,0.81l-0.23,0.82l-0.21,0.77l-0.21,0.76l-0.21,0.72l-0.21,0.73l-0.2,0.71l-0.19,0.68l-0.19,0.66l-0.2,0.67l-0.2,0.62l-0.19,0.59l-0.17,0.59l-0.15,0.59l-0.17,0.55l-0.17,0.54l-0.15,0.54l-0.16,0.52l-0.16,0.52l-0.15,0.54l-0.15,0.52l-0.14,0.52l-0.11,0.52l-0.11,0.49l-0.11,0.53l-0.11,0.53l-0.13,0.55l-0.13,0.53l-0.16,0.54l-0.19,0.58l-0.17,0.59l-0.16,0.57l-0.17,0.57l-0.2,0.62l-0.18,0.58l-0.17,0.57l-0.16,0.59l-0.15,0.55l-0.18,0.57l-0.17,0.57l-0.18,0.57l-0.18,0.55l-0.14,0.58l-0.13,0.55l-0.15,0.5l-0.16,0.53l-0.15,0.58l-0.14,0.55l-0.14,0.54l-0.14,0.54l-0.15,0.54l-0.16,0.54l-0.17,0.5l-0.17,0.53l-0.14,0.52l-0.13,0.52l-0.12,0.52l-0.14,0.52l-0.14,0.54l-0.14,0.54l-0.16,0.57l-0.16,0.57l-0.15,0.53l-0.14,0.54l-0.16,0.58l-0.17,0.59l-0.17,0.59l-0.15,0.62l-0.15,0.63l-0.16,0.67l-0.17,0.63l-0.15,0.64l-0.14,0.66l-0.15,0.67l-0.16,0.67l-0.17,0.7l-0.15,0.71l-0.14,0.75l-0.13,0.79l-0.09,0.81l-0.07,0.94l-0.03,0.95l-0.04,1.03l-0.02,1.07l0.02,1.08l0.03,1.04l0,1.01l-0.01,1.02l0,0.97l0.03,0.97l0.06,0.93l0.05,0.85l0.04,0.86l0.02,0.81l0.02,0.76l0,0.71l0.02,0.66l0.05,0.61l0.03,0.63l0.04,0.61l0.05,0.59l0.05,0.59l0.02,0.58l0,0.57l0,0.57l0.03,0.57l0.05,0.57l0.04,0.55l0.05,0.58l0.05,0.58l0.04,0.59l0.03,0.59l0.04,0.59l0.03,0.59l0.03,0.58l0.03,0.59l0.02,0.59l0.02,0.58l0.04,0.55l0.03,0.58l0.02,0.55l0.02,0.54l0.02,0.54l0.01,0.58l0.02,0.53l0.02,0.53l0.02,0.53l0.02,0.54l0.04,0.58l0.05,0.55l0.05,0.54l0.02,0.54l0.02,0.57l0.05,0.57l0.06,0.54l0.1,0.54l0.11,0.57l0.12,0.53l0.11,0.52l0.14,0.54l0.12,0.52l0.1,0.53l0.08,0.54l0.07,0.54l0.05,0.54l0,0.5l-0.07,0.53l-0.08,0.5l-0.08,0.46l-0.08,0.46l-0.09,0.48l-0.09,0.41l-0.11,0.49l-0.14,0.52l-0.14,0.48l-0.15,0.46l-0.17,0.44l-0.21,0.48l-0.22,0.44l-0.26,0.48l-0.32,0.48l-0.29,0.44l-0.29,0.44l-0.29,0.41l-0.32,0.4l-0.31,0.4l-0.31,0.39l-0.32,0.36l-0.32,0.35l-0.32,0.31l-0.33,0.32l-0.33,0.35l-0.32,0.35l-0.32,0.34l-0.31,0.35l-0.31,0.32l-0.32,0.32l-0.31,0.31l-0.26,0.23l-0.29,0.23l-0.29,0.18l-0.28,0.18l-0.24,0.13l-0.21,0.13l-0.2,0.18l-0.23,0.17l-0.23,0.12l-0.26,0.17l-0.28,0.19l-0.3,0.19l-0.26,0.17l-0.26,0.18l-0.26,0.17l-0.26,0.14l-0.26,0.15l-0.25,0.12l-0.3,0.15l-0.29,0.19l-0.26,0.23l-0.3,0.22l-0.29,0.17l-0.31,0.14l-0.42,0.18l-0.41,0.17l-0.32,0.14l-0.29,0.14l-0.27,0.22l-0.28,0.15l-0.26,0.13l-0.25,0.14l-0.23,0.21l-0.22,0.23l-0.24,0.24l-0.26,0.23l-0.24,0.23l-0.24,0.22l-0.23,0.19l-0.25,0.22l-0.29,0.22l-0.28,0.22l-0.27,0.28l-0.29,0.3l-0.26,0.3l-0.27,0.3l-0.33,0.3l-0.29,0.32l-0.41,0.46l-0.47,0.49l-0.44,0.44l-0.4,0.46l-0.38,0.46l-0.44,0.44l-0.45,0.41l-0.4,0.43l-0.38,0.41l-0.38,0.43l-0.38,0.41l-0.36,0.36l-0.32,0.41l-0.31,0.41l-0.34,0.39l-0.36,0.34l-0.44,0.45l-0.47,0.45l-0.42,0.3l-0.38,0.28l-0.35,0.32l-0.32,0.34l-0.28,0.41l-0.25,0.44l-0.27,0.41l-0.26,0.4l-0.28,0.43l-0.26,0.44l-0.27,0.41l-0.3,0.43l-0.34,0.41l-0.32,0.45l-0.32,0.44l-0.32,0.41l-0.3,0.48l-0.29,0.46l-0.29,0.46l-0.31,0.5l-0.32,0.49l-0.32,0.45l-0.31,0.45l-0.27,0.45l-0.25,0.4l-0.23,0.46l-0.23,0.46l-0.26,0.43l-0.3,0.48l-0.33,0.5l-0.32,0.52l-0.35,0.52l-0.35,0.52l-0.36,0.52l-0.33,0.52l-0.32,0.52l-0.32,0.49l-0.3,0.53l-0.29,0.5l-0.29,0.49l-0.29,0.57l-0.27,0.55l-0.24,0.57l-0.23,0.57l-0.19,0.59l-0.17,0.63l-0.16,0.62l-0.14,0.62l-0.13,0.67l-0.13,0.66l-0.14,0.67l-0.17,0.68l-0.17,0.66l-0.15,0.67l-0.14,0.68l-0.14,0.7l-0.18,0.68l-0.17,0.68l-0.14,0.66l-0.1,0.68l-0.11,0.67l-0.11,0.67l-0.11,0.64l-0.11,0.67l-0.13,0.62l-0.11,0.66l-0.1,0.66l-0.07,0.64l-0.05,0.64l-0.04,0.59l-0.05,0.59l-0.04,0.68l0.01,0.67l0.07,0.67l0.11,0.73l0.17,0.77l0.2,0.81l0.23,0.86l0.26,1.01l0.28,1.12l0.32,1.1l0.26,1.12l0.17,1.16l0.08,1.11l0,1.04l-0.07,1.02l-0.03,0.95l0.08,0.89l0.21,0.8l0.32,0.77l0.35,0.73l0.35,0.72l0.31,0.66l0.32,0.58l0.39,0.44l0.48,0.34l0.56,0.14l0.61,-0.08l0.62,-0.14l0.62,-0.15l0.63,-0.17l0.65,-0.14l0.69,-0.13l0.69,-0.12l0.69,-0.1l0.69,-0.04l0.7,0l0.7,0l0.72,0.04l0.75,0.08l0.75,0.1l0.76,0.09l0.73,0.17l0.74,0.19l0.72,0.19l0.72,0.23l0.73,0.31l0.73,0.35l0.72,0.34l0.73,0.35l0.72,0.37l0.68,0.36l0.72,0.4l0.77,0.41l0.73,0.4l0.73,0.36l0.74,0.37l0.75,0.4l0.75,0.39l0.75,0.36l0.75,0.37l0.72,0.37l0.75,0.37l0.77,0.39l0.77,0.4l0.75,0.36l0.73,0.37l0.73,0.36l0.73,0.41l0.73,0.41l0.74,0.39l0.72,0.4l0.72,0.36l0.68,0.36l0.69,0.36l0.74,0.39l0.72,0.4l0.59,0.32l0.69,0.37l0.86,0.48l0.67,0.36l0.67,0.35l0.69,0.37l0.67,0.36l0.69,0.34l0.69,0.34l0.69,0.39l0.69,0.4l0.65,0.39l0.67,0.36l0.66,0.39l0.66,0.41l0.68,0.43l0.68,0.39l0.66,0.4l0.65,0.43l0.63,0.44l0.63,0.44l0.64,0.41l0.65,0.43l0.63,0.41l0.62,0.45l0.62,0.44l0.64,0.39l0.64,0.43l0.65,0.41l0.62,0.4l0.62,0.43l0.64,0.44l0.64,0.44l0.62,0.44l0.6,0.41l0.63,0.43l0.64,0.45l0.65,0.44l0.65,0.48l0.65,0.49l0.63,0.45l0.63,0.45l0.63,0.41l0.64,0.43l0.63,0.4l0.65,0.44l0.66,0.41l0.66,0.39l0.68,0.34l0.71,0.26l0.73,0.22l0.73,0.19l0.72,0.26l0.67,0.3l0.54,0.39l0.38,0.57l0.19,0.58l-0.05,0.54l-0.33,0.5l-0.54,0.43l-0.62,0.22l-0.65,0.1l-0.65,0.04l-0.7,0l-0.74,0.05l-0.73,0.17l-0.74,0.22l-0.77,0.28l-0.8,0.26l-0.84,0.31l-0.86,0.32l-0.87,0.31l-0.88,0.35l-0.9,0.31l-0.93,0.34l-0.92,0.35l-0.91,0.34l-0.93,0.34l-0.96,0.35l-0.93,0.32l-0.96,0.3l-0.93,0.34l-0.96,0.27l-0.96,0.28l-0.93,0.35l-0.94,0.4l-0.95,0.36l-0.9,0.35l-0.9,0.34l-0.92,0.32l-0.89,0.3l-0.86,0.32l-0.84,0.31l-0.82,0.32l-0.81,0.31l-0.83,0.32l-0.84,0.3l-0.85,0.27l-0.84,0.34l-0.83,0.34l-0.84,0.32l-0.87,0.28l-0.87,0.31l-0.93,0.32l-0.97,0.34l-0.94,0.35l-0.99,0.35l-0.99,0.34l-1.01,0.35l-1.01,0.32l-0.99,0.28l-0.96,0.3l-0.99,0.27l-0.96,0.27l-0.93,0.26l-0.96,0.26l-0.94,0.21l-0.95,0.23l-0.95,0.22l-0.94,0.23l-0.91,0.21l-0.93,0.19l-0.96,0.18l-0.94,0.18l-0.91,0.13l-0.93,0.13l-0.94,0.14l-0.94,0.15l-0.97,0.12l-0.95,0.12l-1,0.18l-1.01,0.17l-1.04,0.18l-1.05,0.17l-1.04,0.15l-1.07,0.17l-1.07,0.17l-1.08,0.18l-1.11,0.19l-1.13,0.17l-1.12,0.15l-1.16,0.14l-1.18,0.18l-1.16,0.22l-1.22,0.19l-1.24,0.18l-1.23,0.22l-1.23,0.22l-1.22,0.19l-1.24,0.23l-1.28,0.27l-1.26,0.26l-1.26,0.22l-1.23,0.17l-1.17,0.15l-1.16,0.12l-1.21,0.13l-1.23,0.18l-1.29,0.26l-1.32,0.3l-1.31,0.26l-1.3,0.35l-1.36,0.39l-1.25,0.36l-1.17,0.24l-1.2,0.28l-1.15,0.27l-1.11,0.22l-1.07,0.22l-1.05,0.22l-1.05,0.26l-1.03,0.24l-1.04,0.3l-1.02,0.37l-1.01,0.41l-0.96,0.44l-0.95,0.49l-0.92,0.49l-0.91,0.48l-0.95,0.5l-0.88,0.48l-0.9,0.48l-0.96,0.52l-0.96,0.5l-0.95,0.53l-0.91,0.54l-0.93,0.54l-0.92,0.55l-0.97,0.61l-0.98,0.59l-0.95,0.59l-0.94,0.63l-0.99,0.7l-1.02,0.8l-1,0.75l-0.97,0.7l-0.99,0.67l-0.97,0.72l-1,0.7l-1.05,0.62l-1.08,0.61l-1.12,0.71l-1.09,0.7l-1.05,0.67l-0.95,0.67l-0.96,0.73l-0.94,0.71l-0.89,0.62l-0.84,0.55l-0.81,0.54l-0.81,0.57l-0.78,0.59l-0.76,0.62l-0.72,0.61l-0.71,0.61l-0.69,0.62l-0.69,0.64l-0.68,0.64l-0.66,0.66l-0.64,0.73l-0.62,0.72l-0.59,0.68l-0.58,0.71l-0.59,0.71l-0.59,0.71l-0.57,0.7l-0.57,0.71l-0.59,0.71l-0.54,0.68l-0.53,0.62l-0.55,0.62l-0.5,0.61l-0.47,0.61l-0.45,0.57l-0.42,0.52l-0.4,0.49l-0.37,0.49l-0.35,0.46l-0.31,0.44l-0.25,0.39l-0.21,0.35l-0.19,0.37l-0.21,0.4l-0.27,0.35l-0.35,0.32l-0.41,0.32l-0.48,0.28l-0.54,0.22l-0.59,0.21l-0.61,0.13l-0.62,0.06l-0.59,0.05l-0.64,0.06l-0.74,0.12l-0.71,0.1l-0.69,0.15l-0.68,0.13l-0.7,0.08l-0.72,0.03l-0.73,0.03l-0.75,0.01l-0.75,-0.03l-0.77,-0.05l-0.75,-0.08l-0.75,-0.08l-0.75,-0.04l-0.75,-0.09l-0.75,-0.06l-0.75,-0.08l-0.75,-0.06l-0.76,-0.05l-0.74,-0.08l-0.79,-0.1l-0.79,-0.06l-0.76,-0.08l-0.78,-0.13l-0.78,-0.18l-0.77,-0.23l-0.74,-0.3l-0.75,-0.35l-0.75,-0.39l-0.72,-0.43l-0.69,-0.4l-0.69,-0.43l-0.66,-0.44l-0.65,-0.45l-0.67,-0.41l-0.69,-0.34l-0.73,-0.23l-0.78,-0.17l-0.78,-0.08l-0.77,-0.05l-0.78,0.01l-0.78,0.05l-0.79,0.01l-0.79,0.09l-0.78,0.18l-0.78,0.23l-0.75,0.28l-0.71,0.35l-0.68,0.39l-0.66,0.43l-0.66,0.45l-0.65,0.48l-0.66,0.49l-0.67,0.45l-0.69,0.45l-0.72,0.44l-0.73,0.41l-0.75,0.39l-0.77,0.34l-0.74,0.3l-0.73,0.3l-0.73,0.3l-0.72,0.3l-0.71,0.26l-0.7,0.28l-0.7,0.26l-0.68,0.24l-0.69,0.22l-0.69,0.23l-0.69,0.27l-0.66,0.28l-0.72,0.3l-0.72,0.31l-0.69,0.32l-0.69,0.35l-0.67,0.34l-0.68,0.35l-0.69,0.32l-0.66,0.28l-0.65,0.34l-0.67,0.31l-0.68,0.32l-0.69,0.31l-0.69,0.34l-0.67,0.34l-0.67,0.35l-0.62,0.3l-0.68,0.34l-0.69,0.32l-0.67,0.32l-0.66,0.35l-0.66,0.31l-0.65,0.34l-0.62,0.34l-0.61,0.39l-0.61,0.36l-0.62,0.37l-0.62,0.36l-0.62,0.31l-0.6,0.32l-0.59,0.35l-0.57,0.32l-0.54,0.32l-0.51,0.31l-0.5,0.3l-0.55,0.32l-0.56,0.31l-0.57,0.32l-0.61,0.39l-0.59,0.39l-0.53,0.37l-0.54,0.31l-0.56,0.26l-0.54,0.28l-0.53,0.26l-0.49,0.28l-0.49,0.23l-0.48,0.17l-0.47,0.18l-0.47,0.15l-0.44,0.15l-0.44,0.14l-0.44,0.09l-0.43,0.05l-0.4,-0.01l-0.38,-0.12l-0.4,-0.18l-0.47,-0.17l-0.51,-0.21l-0.53,-0.27l-0.53,-0.32l-0.54,-0.35l-0.59,-0.37l-0.64,-0.44l-0.64,-0.37l-0.68,-0.28l-0.72,-0.24l-0.75,-0.22l-0.74,-0.13l-0.72,-0.06l-0.72,-0.08l-0.68,-0.06l-0.66,-0.03l-0.63,0l-0.59,0.06l-0.59,0.06l-0.56,0.05l-0.53,0.05l-0.5,0.04l-0.47,0.09l-0.46,0.04l-0.45,0l-0.47,0.03l-0.46,0.08l-0.44,0.1l-0.44,0.06l-0.47,0.05l-0.5,0.08l-0.53,0.06l-0.52,0.05l-0.52,0.05l-0.53,0.08l-0.51,0.06l-0.5,0.08l-0.5,0.08l-0.5,0.08l-0.51,0.13l-0.5,0.12l-0.47,0.1l-0.5,0.09l-0.47,0.13l-0.46,0.15l-0.48,0.18l-0.49,0.19l-0.47,0.19l-0.52,0.23l-0.55,0.21l-0.53,0.21l-0.51,0.19l-0.53,0.19l-0.6,0.19l-0.66,0.17l-0.69,0.15l-0.74,0.14l-0.72,0.15l-0.69,0.17l-0.67,0.21l-0.65,0.17l-0.65,0.18l-0.66,0.19l-0.65,0.19l-0.65,0.17l-0.64,0.18l-0.62,0.22l-0.61,0.19l-0.59,0.18l-0.56,0.19l-0.59,0.13l-0.59,0.13l-0.57,0.12l-0.58,0.13l-0.56,0.09l-0.56,0.05l-0.56,0.05l-0.57,0.04l-0.6,0.05l-0.6,0.05l-0.59,0.05l-0.6,0.08l-0.59,0.17l-0.56,0.19l-0.51,0.15l-0.58,0.15l-0.62,0.12l-0.58,0.1l-0.58,0.09l-0.58,0.1l-0.56,0.06l-0.56,0.1l-0.59,0.06l-0.62,0.03l-0.62,0.05l-0.62,0.05l-0.65,0.08l-0.66,0.1l-0.65,0.1l-0.62,0.06l-0.62,0.01l-0.59,0l-0.6,0l-0.59,0.04l-0.59,0.1l-0.63,0.09l-0.64,0.08l-0.64,0.1l-0.63,0.09l-0.62,0.1l-0.62,0.1l-0.62,0.06l-0.62,0.08l-0.64,0.13l-0.63,0.12l-0.62,0.13l-0.6,0.15l-0.59,0.17l-0.59,0.17l-0.59,0.12l-0.59,0.17l-0.56,0.13l-0.57,0.1l-0.59,0.13l-0.59,0.14l-0.6,0.18l-0.61,0.17l-0.63,0.18l-0.62,0.19l-0.62,0.19l-0.62,0.17l-0.62,0.15l-0.62,0.14l-0.63,0.15l-0.61,0.18l-0.62,0.19l-0.59,0.17l-0.61,0.14l-0.62,0.14l-0.62,0.18l-0.62,0.17l-0.65,0.15l-0.65,0.14l-0.64,0.18l-0.63,0.19l-0.62,0.19l-0.64,0.21l-0.65,0.17l-0.68,0.14l-0.68,0.14l-0.67,0.18l-0.69,0.19l-0.65,0.19l-0.71,0.19l-0.76,0.21l-0.75,0.17l-0.75,0.15l-0.79,0.14l-0.81,0.18l-0.78,0.19l-0.79,0.19l-0.79,0.19l-0.8,0.21l-0.8,0.17l-0.81,0.12l-0.82,0.13l-0.82,0.12l-0.82,0.1l-0.81,0.09l-0.78,0.13l-0.77,0.12l-0.75,0.13l-0.74,0.12l-0.76,0.13l-0.78,0.12l-0.75,0.1l-0.74,0.1l-0.77,0.09l-0.78,0.13l-0.79,0.09l-0.8,0.08l-0.79,0.1l-0.78,0.09l-0.78,0.1l-0.75,0.1l-0.76,0.13l-0.79,0.18l-0.83,0.15l-0.84,0.18l-0.82,0.17l-0.84,0.14l-0.87,0.18l-0.88,0.17l-0.88,0.15l-0.9,0.14l-0.91,0.12l-0.9,0.13l-0.88,0.15l-0.84,0.12l-0.86,0.13l-0.87,0.14l-0.9,0.15l-0.89,0.14l-0.86,0.14l-0.93,0.15l-0.95,0.14l-0.9,0.12l-0.94,0.13l-0.95,0.15l-0.92,0.14l-0.96,0.15l-0.95,0.12l-0.9,0.12l-0.95,0.18l-0.95,0.21l-0.9,0.17l-0.9,0.14l-0.89,0.18l-0.87,0.21l-0.87,0.15l-0.87,0.12l-0.81,0.15l-0.9,0.17l-0.92,0.15l-0.87,0.15l-0.85,0.14l-0.84,0.12l-0.83,0.13l-0.83,0.18l-0.84,0.17l-0.84,0.18l-0.85,0.15l-0.84,0.15l-0.86,0.12l-0.85,0.13l-0.83,0.14l-0.84,0.18l-0.82,0.17l-0.81,0.14l-0.79,0.15l-0.82,0.12l-0.84,0.13l-0.84,0.12l-0.83,0.13l-0.84,0.15l-0.84,0.12l-0.84,0.13l-0.84,0.18l-0.82,0.19l-0.81,0.19l-0.81,0.19l-0.79,0.17l-0.77,0.15l-0.72,0.13l-0.76,0.13l-0.78,0.17l-0.75,0.13l-0.75,0.13l-0.78,0.12l-0.76,0.13l-0.75,0.14l-0.76,0.15l-0.75,0.14l-0.74,0.15l-0.74,0.12l-0.74,0.13l-0.72,0.18l-0.72,0.17l-0.71,0.17l-0.72,0.17l-0.74,0.15l-0.72,0.14l-0.72,0.18l-0.73,0.19l-0.74,0.17l-0.74,0.14l-0.75,0.18l-0.76,0.17l-0.75,0.18l-0.75,0.14l-0.75,0.03l-0.62,0l-0.7,0l-0.99,0.04l-0.79,0.05l-0.79,0.01l-0.79,0.06l-0.79,0.06l-0.81,0.01l-0.8,0l-0.8,0l-0.79,0.04l-0.78,0.05l-0.81,0.01l-0.78,0.04l-0.76,0.04l-0.78,0.03l-0.81,0.03l-0.83,0.03l-0.83,0.03l-0.86,0.01l-0.9,0l-0.88,0.04l-0.85,-0.01l-0.86,-0.05l-0.88,-0.05l-0.87,-0.01l-0.85,0l-0.85,-0.04l-0.86,-0.04l-0.86,-0.05l-0.77,-0.05l-0.84,-0.06l-0.92,-0.12l-0.81,-0.13l-0.78,-0.14l-0.78,-0.18l-0.76,-0.17l-0.76,-0.14l-0.74,-0.18l-0.77,-0.17l-0.75,-0.18l-0.75,-0.19l-0.75,-0.19l-0.73,-0.21l-0.72,-0.23l-0.72,-0.21l-0.7,-0.17l-0.69,-0.14l-0.66,-0.21l-0.66,-0.24l-0.7,-0.22l-0.69,-0.27l-0.69,-0.26l-0.68,-0.31l-0.66,-0.34l-0.65,-0.35l-0.66,-0.35l-0.63,-0.31l-0.6,-0.32l-0.58,-0.35l-0.56,-0.34l-0.61,-0.31l-0.64,-0.31l-0.59,-0.32l-0.62,-0.32l-0.56,-0.3l-0.63,-0.35l-0.7,-0.37l-0.68,-0.35l-0.69,-0.37l-0.72,-0.36l-0.75,-0.31l-0.75,-0.3l-0.75,-0.32l-0.74,-0.28l-0.7,-0.24l-0.69,-0.18l-0.67,-0.22l-0.63,-0.24l-0.59,-0.24l-0.58,-0.24l-0.56,-0.24l-0.56,-0.21l-0.57,-0.21l-0.59,-0.17l-0.61,-0.14l-0.59,-0.14l-0.6,-0.12l-0.62,-0.14l-0.63,-0.08l-0.63,-0.05l-0.63,-0.08l-0.62,-0.1l-0.62,-0.09l-0.62,-0.08l-0.62,-0.04l-0.65,-0.05l-0.66,-0.05l-0.67,-0.08l-0.69,-0.08l-0.68,-0.04l-0.69,-0.03l-0.71,-0.06l-0.72,-0.06l-0.74,-0.01l-0.72,0l-0.72,0l-0.71,0l-0.65,-0.06l-0.62,-0.1l-0.6,-0.13l-0.62,-0.14l-0.63,-0.09l-0.63,-0.1l-0.63,-0.18l-0.63,-0.17l-0.63,-0.15l-0.61,-0.17l-0.62,-0.17l-0.59,-0.18l-0.57,-0.22l-0.56,-0.22l-0.56,-0.17l-0.53,-0.18l-0.51,-0.17l-0.49,-0.18l-0.47,-0.19l-0.47,-0.17l-0.47,-0.18l-0.52,-0.23l-0.53,-0.24l-0.54,-0.21l-0.56,-0.23l-0.53,-0.18l-0.51,-0.18l-0.54,-0.23l-0.54,-0.24l-0.51,-0.21l-0.53,-0.23l-0.55,-0.24l-0.59,-0.22l-0.6,-0.23l-0.59,-0.21l-0.57,-0.26l-0.56,-0.23l-0.53,-0.23l-0.49,-0.22l-0.45,-0.19l-0.45,-0.22l-0.5,-0.22l-0.51,-0.23l-0.54,-0.21l-0.53,-0.23l-0.5,-0.22l-0.5,-0.22l-0.48,-0.28l-0.48,-0.26l-0.47,-0.22l-0.48,-0.19l-0.5,-0.21l-0.53,-0.19l-0.53,-0.17l-0.5,-0.14l-0.49,-0.18l-0.5,-0.19l-0.47,-0.21l-0.47,-0.19l-0.47,-0.23l-0.49,-0.21l-0.46,-0.23l-0.47,-0.21l-0.48,-0.23l-0.47,-0.22l-0.47,-0.19l-0.47,-0.19l-0.48,-0.17l-0.47,-0.18l-0.5,-0.17l-0.51,-0.14l-0.49,-0.18l-0.49,-0.17l-0.49,-0.18l-0.46,-0.19l-0.44,-0.26l-0.45,-0.23l-0.44,-0.19l-0.49,-0.21l-0.5,-0.19l-0.5,-0.19l-0.48,-0.14l-0.5,-0.09l-0.48,-0.1l-0.47,-0.13l-0.47,-0.15l-0.49,-0.14l-0.5,-0.18l-0.47,-0.19l-0.46,-0.19l-0.47,-0.19l-0.53,-0.17l-0.55,-0.13l-0.53,-0.15l-0.53,-0.17l-0.56,-0.14l-0.56,-0.18l-0.53,-0.17l-0.52,-0.14l-0.53,-0.18l-0.52,-0.17l-0.51,-0.21l-0.5,-0.19l-0.52,-0.14l-0.53,-0.15l-0.53,-0.17l-0.52,-0.21l-0.53,-0.19l-0.53,-0.19l-0.53,-0.17l-0.53,-0.18l-0.53,-0.17l-0.54,-0.18l-0.54,-0.13l-0.53,-0.13l-0.52,-0.14l-0.52,-0.18l-0.53,-0.17l-0.52,-0.14l-0.53,-0.18l-0.52,-0.14l-0.53,-0.13l-0.56,-0.12l-0.61,-0.13l-0.62,-0.14l-0.65,-0.15l-0.67,-0.14l-0.69,-0.15l-0.72,-0.14l-0.74,-0.15l-0.76,-0.14l-0.78,-0.18l-0.8,-0.17l-0.81,-0.14l-0.83,-0.18l-0.83,-0.17l-0.84,-0.18l-0.84,-0.17l-0.81,-0.12l-0.78,-0.15l-0.78,-0.17l-0.77,-0.14l-0.75,-0.13l-0.75,-0.13l-0.75,-0.12l-0.75,-0.09l-0.7,-0.13l-0.72,-0.15l-0.75,-0.17l-0.76,-0.23l-0.78,-0.28l-0.81,-0.32l-0.83,-0.31l-0.84,-0.34l-0.81,-0.31l-0.76,-0.3l-0.72,-0.3l-0.65,-0.26l-0.6,-0.24l-0.59,-0.31l-0.62,-0.28l-0.6,-0.21l-0.61,-0.23l-0.59,-0.24l-0.59,-0.24l-0.62,-0.24l-0.62,-0.26l-0.62,-0.21l-0.62,-0.21l-0.6,-0.22l-0.56,-0.22l-0.5,-0.19l-0.5,-0.19l-0.52,-0.21l-0.5,-0.15l-0.5,-0.18l-0.52,-0.17l-0.52,-0.15l-0.53,-0.17l-0.56,-0.17l-0.56,-0.15l-0.56,-0.14l-0.58,-0.12l-0.59,-0.13l-0.59,-0.12l-0.6,-0.13l-0.63,-0.12l-0.65,-0.1l-0.67,-0.1l-0.72,-0.13l-0.73,-0.08l-0.75,-0.09l-0.75,-0.09l-0.76,-0.06l-0.75,-0.05l-0.76,-0.08l-0.76,-0.08l-0.76,-0.08l-0.74,-0.06l-0.72,-0.08l-0.7,-0.08l-0.68,-0.04l-0.69,-0.05l-0.68,-0.05l-0.67,-0.01l-0.68,0l-0.69,0l-0.69,0l-0.69,0l-0.72,0l-0.75,0.03l-0.78,0.05l-0.78,0.01l-0.79,0.04l-0.78,0.08l-0.76,0.06l-0.73,0.05l-0.72,0.08l-0.74,0.06l-0.75,0.05l-0.77,0.05l-0.78,0.05l-0.76,0.01l-0.74,0l-0.74,0.04l-0.72,0.04l-0.74,0.05l-0.74,0.03l-0.78,0.03l-0.81,0.05l-0.87,0.05l-0.87,0.01l-0.93,0.03l-0.93,0.09l-0.91,0.06l-0.89,0.08l-0.87,0.06l-0.87,0.05l-0.85,0.03l-0.82,0.03l-0.8,0.08l-0.78,0.04l-0.78,0.03l-0.78,0.05l-0.77,0.03l-0.78,0l-0.79,0.03l-0.76,0.03l-0.74,0.03l-0.77,0.01l-0.78,0l-0.75,0l-0.72,0l-0.78,0.04l-0.81,0.01l-0.78,0l-0.8,0.06l-0.81,0.04l-0.81,0.03l-0.85,0.05l-0.87,0.05l-0.9,0.05l-0.92,0.01l-0.93,0.03l-0.94,0.05l-1.01,0.05l-1.05,0.01l-1.05,0l-1.11,0.04l-1.17,0.08l-1.21,0.1l-1.23,0.09l-1.21,0.08l-1.17,0.08l-1.2,0.09l-1.17,0.1l-1.09,0.06l-0.99,0.08l-0.95,0.01l-0.91,0.01l-0.86,0.01l-0.81,0.06l-0.75,0.06l-0.71,0.09l-0.66,0.15l-0.65,0.17l-0.63,0.12l-0.59,0.13l-0.56,0.21l-0.52,0.24l-0.51,0.22l-0.47,0.22l-0.46,0.28l-0.44,0.27l-0.38,0.21l-0.36,0.19l-0.38,0.23l-0.34,0.23l-0.36,0.26l-0.36,0.24l-0.35,0.28l-0.34,0.28l-0.34,0.31l-0.35,0.3l-0.35,0.26l-0.34,0.28l-0.32,0.26l-0.32,0.24l-0.34,0.24l-0.35,0.24l-0.33,0.24l-0.32,0.22l-0.34,0.22l-0.35,0.22l-0.32,0.19l-0.3,0.21l-0.29,0.19l-0.28,0.23l-0.3,0.21l-0.32,0.17l-0.35,0.15l-0.34,0.14l-0.32,0.15l-0.29,0.14l-0.29,0.14l-0.29,0.15l-0.3,0.14l-0.29,0.12l-0.3,0.1l-0.33,0.06l-0.36,0.03l-0.38,0.03l-0.38,0.05l-0.41,0.01l-0.43,-0.03l-0.42,-0.03l-0.43,-0.05l-0.44,-0.08l-0.43,-0.08l-0.42,-0.06l-0.43,-0.08l-0.43,-0.06l-0.44,-0.05l-0.43,-0.05l-0.42,-0.05l-0.41,-0.05l-0.41,-0.05l-0.41,-0.04l-0.41,-0.03l-0.41,-0.03l-0.43,-0.05l-0.46,-0.05l-0.47,-0.01l-0.47,-0.04l-0.48,-0.08l-0.49,-0.09l-0.48,-0.1l-0.46,-0.06l-0.44,-0.05l-0.47,-0.03l-0.47,-0.03l-0.45,-0.05l-0.43,-0.05l-0.45,-0.04l-0.45,-0.09l-0.44,-0.13l-0.45,-0.08l-0.47,-0.09l-0.47,-0.06l-0.45,-0.08l-0.45,-0.09l-0.48,-0.08l-0.47,-0.08l-0.47,-0.06l-0.49,-0.05l-0.5,-0.05l-0.5,-0.01l-0.5,-0.04l-0.49,-0.08l-0.47,-0.06l-0.49,-0.08l-0.53,-0.13l-0.53,-0.09l-0.56,-0.12l-0.57,-0.12l-0.58,-0.13l-0.57,-0.14l-0.53,-0.12l-0.54,-0.13l-0.53,-0.12l-0.53,-0.13l-0.55,-0.18l-0.56,-0.17l-0.54,-0.18l-0.55,-0.17l-0.53,-0.14l-0.56,-0.15l-0.56,-0.14l-0.58,-0.14l-0.56,-0.15l-0.56,-0.14l-0.56,-0.18l-0.57,-0.17l-0.56,-0.14l-0.55,-0.18l-0.54,-0.17l-0.59,-0.18l-0.61,-0.17l-0.59,-0.14l-0.61,-0.18l-0.59,-0.17l-0.56,-0.12l-0.56,-0.13l-0.54,-0.15l-0.55,-0.14l-0.56,-0.15l-0.54,-0.12l-0.54,-0.13l-0.52,-0.14l-0.5,-0.12l-0.5,-0.13l-0.48,-0.14l-0.5,-0.12l-0.52,-0.14l-0.53,-0.14l-0.53,-0.14l-0.54,-0.13l-0.53,-0.13l-0.51,-0.14l-0.47,-0.14l-0.47,-0.15l-0.47,-0.14l-0.49,-0.15l-0.5,-0.12l-0.46,-0.13l-0.45,-0.14l-0.47,-0.12l-0.48,-0.1l-0.49,-0.1l-0.5,-0.09l-0.5,-0.13l-0.47,-0.15l-0.48,-0.14l-0.5,-0.12l-0.51,-0.13l-0.5,-0.15l-0.51,-0.14l-0.52,-0.15l-0.52,-0.14l-0.52,-0.14l-0.51,-0.15l-0.5,-0.18l-0.5,-0.15l-0.51,-0.18l-0.51,-0.21l-0.5,-0.19l-0.52,-0.17l-0.51,-0.18l-0.5,-0.19l-0.5,-0.19l-0.5,-0.17l-0.49,-0.18l-0.48,-0.22l-0.5,-0.22l-0.52,-0.21l-0.52,-0.15l-0.53,-0.22l-0.53,-0.21l-0.55,-0.21l-0.55,-0.19l-0.55,-0.19l-0.53,-0.19l-0.55,-0.21l-0.55,-0.19l-0.55,-0.19l-0.54,-0.23l-0.55,-0.21l-0.56,-0.23l-0.55,-0.22l-0.55,-0.19l-0.55,-0.19l-0.53,-0.19l-0.55,-0.21l-0.55,-0.22l-0.54,-0.22l-0.53,-0.19l-0.53,-0.21l-0.54,-0.19l-0.55,-0.19l-0.56,-0.19l-0.56,-0.21l-0.55,-0.19l-0.51,-0.15l-0.59,-0.17l-0.62,-0.22l-0.57,-0.19l-0.56,-0.19l-0.57,-0.21l-0.57,-0.19l-0.56,-0.19l-0.56,-0.19l-0.58,-0.21l-0.58,-0.19l-0.6,-0.23l-0.62,-0.21l-0.61,-0.23l-0.62,-0.21l-0.65,-0.21l-0.65,-0.23l-0.64,-0.24l-0.65,-0.24l-0.65,-0.24l-0.65,-0.23l-0.66,-0.26l-0.69,-0.24l-0.69,-0.22l-0.68,-0.22l-0.65,-0.24l-0.65,-0.24l-0.65,-0.26l-0.64,-0.21l-0.65,-0.23l-0.65,-0.22l-0.67,-0.22l-0.66,-0.24l-0.65,-0.24l-0.65,-0.22l-0.65,-0.23l-0.66,-0.24l-0.67,-0.21l-0.68,-0.23l-0.71,-0.22l-0.69,-0.23l-0.7,-0.21l-0.68,-0.17l-0.69,-0.18l-0.69,-0.17l-0.68,-0.18l-0.65,-0.19l-0.65,-0.19l-0.68,-0.19l-0.69,-0.21l-0.69,-0.15l-0.69,-0.18l-0.68,-0.17l-0.68,-0.18l-0.68,-0.19l-0.67,-0.17l-0.65,-0.18l-0.65,-0.19l-0.65,-0.17l-0.65,-0.18l-0.68,-0.19l-0.69,-0.19l-0.7,-0.21l-0.71,-0.19l-0.69,-0.17l-0.69,-0.18l-0.65,-0.15l-0.65,-0.15l-0.65,-0.18l-0.64,-0.19l-0.63,-0.17l-0.64,-0.14l-0.61,-0.18l-0.62,-0.17l-0.61,-0.18l-0.61,-0.17l-0.59,-0.18l-0.59,-0.15l-0.56,-0.12l-0.64,-0.09l-0.73,-0.12l-0.69,-0.09l-0.72,-0.08l-0.72,-0.04l-0.7,0.01l-0.69,0.01l-0.7,0l-0.72,0l-0.71,0.03l-0.71,0.05l-0.73,0.09l-0.74,0.09l-0.74,0.13l-0.75,0.12l-0.76,0.1l-0.76,0.13l-0.81,0.14l-0.84,0.18l-0.84,0.17l-0.87,0.18l-0.91,0.19l-0.9,0.19l-0.91,0.21l-0.9,0.15l-0.9,0.18l-0.89,0.21l-0.91,0.19l-0.9,0.19l-0.92,0.23l-0.92,0.21l-0.92,0.17l-0.93,0.15l-0.93,0.14l-0.92,0.18l-0.9,0.17l-0.89,0.14l-0.86,0.12l-0.8,0.13l-0.78,0.18l-0.76,0.17l-0.75,0.12l-0.78,0.13l-0.8,0.18l-0.78,0.08l-0.81,-0.06l-0.78,-0.13l-0.78,-0.18l-0.78,-0.19l-0.74,-0.21l-0.66,-0.22l-0.59,-0.28l-0.55,-0.32l-0.54,-0.35l-0.51,-0.34l-0.49,-0.35l-0.46,-0.37l-0.45,-0.39l-0.44,-0.44l-0.41,-0.37l-0.37,-0.37l-0.34,-0.43l-0.32,-0.39l-0.33,-0.34l-0.32,-0.35l-0.3,-0.37l-0.29,-0.4l-0.31,-0.3l-0.32,-0.27l-0.39,-0.31l-0.53,-0.17l-0.54,-0.09l-0.45,-0.22l-0.43,-0.27l-0.47,-0.27l-0.5,-0.27l-0.48,-0.28l-0.46,-0.32l-0.45,-0.35l-0.43,-0.34l-0.46,-0.32l-0.59,-0.13l-0.58,-0.14l-0.53,-0.23l-0.49,-0.24l-0.43,-0.27l-0.41,-0.3l-0.42,-0.3l-0.43,-0.36l-0.42,-0.36l-0.41,-0.35l-0.41,-0.35l-0.42,-0.34l-0.42,-0.37l-0.44,-0.34l-0.54,-0.23l-0.55,-0.28l-0.48,-0.35l-0.5,-0.32l-0.5,-0.35l-0.5,-0.36l-0.47,-0.35l-0.44,-0.37l-0.47,-0.34l-0.48,-0.3l-0.46,-0.28l-0.44,-0.32l-0.44,-0.32l-0.43,-0.3l-0.43,-0.32l-0.43,-0.35l-0.44,-0.32l-0.43,-0.28l-0.41,-0.3l-0.39,-0.3l-0.38,-0.34l-0.39,-0.31l-0.4,-0.3l-0.4,-0.3l-0.4,-0.32l-0.38,-0.31l-0.38,-0.3l-0.37,-0.3l-0.37,-0.3l-0.35,-0.26l-0.32,-0.24l-0.31,-0.27l-0.31,-0.3l-0.32,-0.27l-0.32,-0.24l-0.32,-0.28l-0.35,-0.26l-0.32,-0.24l-0.31,-0.28l-0.35,-0.26l-0.39,-0.24l-0.39,-0.28l-0.37,-0.3l-0.35,-0.3l-0.35,-0.3l-0.32,-0.24l-0.33,-0.28l-0.35,-0.27l-0.35,-0.28l-0.4,-0.32l-0.42,-0.28l-0.41,-0.27l-0.39,-0.3l-0.42,-0.32l-0.43,-0.35l-0.44,-0.35l-0.45,-0.34l-0.44,-0.35l-0.44,-0.31l-0.46,-0.34l-0.47,-0.34l-0.47,-0.35l-0.47,-0.35l-0.47,-0.31l-0.46,-0.3l-0.47,-0.3l-0.5,-0.32l-0.51,-0.35l-0.5,-0.34l-0.5,-0.35l-0.52,-0.35l-0.52,-0.35l-0.5,-0.31l-0.49,-0.32l-0.5,-0.31l-0.5,-0.34l-0.48,-0.35l-0.48,-0.34l-0.49,-0.31l-0.51,-0.34l-0.53,-0.31l-0.53,-0.32l-0.53,-0.37l-0.52,-0.36l-0.5,-0.35l-0.5,-0.32l-0.5,-0.32l-0.48,-0.31l-0.49,-0.32l-0.5,-0.35l-0.5,-0.31l-0.5,-0.36l-0.5,-0.36l-0.48,-0.32l-0.47,-0.35l-0.49,-0.36l-0.49,-0.39l-0.49,-0.39l-0.5,-0.36l-0.5,-0.35l-0.52,-0.35l-0.51,-0.34l-0.5,-0.37l-0.5,-0.4l-0.49,-0.41l-0.47,-0.45l-0.47,-0.44l-0.45,-0.48l-0.41,-0.49l-0.38,-0.55l-0.36,-0.57l-0.35,-0.57l-0.31,-0.59l-0.29,-0.59l-0.29,-0.58l-0.29,-0.63l-0.3,-0.67l-0.31,-0.66l-0.32,-0.7l-0.35,-0.67l-0.35,-0.64l-0.32,-0.67l-0.32,-0.66l-0.32,-0.67l-0.33,-0.66l-0.33,-0.64l-0.29,-0.61l-0.27,-0.59l-0.28,-0.55l-0.29,-0.5l-0.29,-0.46l-0.23,-0.44l-0.19,-0.45l-0.2,-0.41l-0.2,-0.39l-0.2,-0.36l-0.2,-0.37l-0.19,-0.34l-0.19,-0.3l-0.21,-0.34l-0.2,-0.31l-0.17,-0.3l-0.19,-0.3l-0.2,-0.28l-0.16,-0.36l-0.13,-0.3l-0.14,-0.31l-0.16,-0.32l-0.19,-0.32l-0.17,-0.34l-0.2,-0.44l-0.23,-0.5l-0.22,-0.43l-0.22,-0.36l-0.2,-0.35l-0.17,-0.41l-0.17,-0.41l-0.18,-0.39l-0.29,-0.35l-0.3,-0.35l-0.29,-0.39l-0.28,-0.39l-0.27,-0.4l-0.27,-0.36l-0.29,-0.4l-0.32,-0.45l-0.3,-0.41l-0.32,-0.43l-0.31,-0.44l-0.25,-0.46l-0.24,-0.46l-0.29,-0.46l-0.34,-0.49l-0.32,-0.48l-0.34,-0.5l-0.35,-0.52l-0.35,-0.49l-0.34,-0.49l-0.35,-0.49l-0.35,-0.49l-0.35,-0.49l-0.36,-0.49l-0.34,-0.46l-0.33,-0.48l-0.33,-0.49l-0.33,-0.46l-0.32,-0.41l-0.35,-0.45l-0.35,-0.46l-0.32,-0.48l-0.33,-0.45l-0.32,-0.44l-0.32,-0.45l-0.31,-0.41l-0.3,-0.45l-0.31,-0.46l-0.33,-0.44l-0.33,-0.45l-0.32,-0.41l-0.32,-0.45l-0.32,-0.43l-0.32,-0.46l-0.31,-0.46l-0.31,-0.4l-0.31,-0.43l-0.29,-0.45l-0.29,-0.44l-0.29,-0.41l-0.3,-0.43l-0.31,-0.48l-0.31,-0.43l-0.3,-0.43l-0.31,-0.41l-0.33,-0.39l-0.3,-0.4l-0.29,-0.39l-0.28,-0.43l-0.28,-0.44l-0.32,-0.41l-0.32,-0.43l-0.3,-0.45l-0.3,-0.44l-0.31,-0.44l-0.31,-0.41l-0.31,-0.43l-0.31,-0.44l-0.32,-0.45l-0.32,-0.41l-0.32,-0.45l-0.3,-0.43l-0.31,-0.43l-0.31,-0.45l-0.32,-0.44l-0.35,-0.44l-0.34,-0.45l-0.29,-0.39l-0.32,-0.46l-0.38,-0.52l-0.34,-0.45l-0.32,-0.46l-0.32,-0.49l-0.33,-0.49l-0.37,-0.5l-0.36,-0.49l-0.36,-0.53l-0.36,-0.5l-0.36,-0.5l-0.4,-0.55l-0.41,-0.55l-0.41,-0.54l-0.41,-0.5l-0.42,-0.49l-0.43,-0.5l-0.41,-0.49l-0.41,-0.49l-0.41,-0.49l-0.41,-0.46l-0.47,-0.28l-0.5,0.03l-0.49,0.23l-0.47,0.3l-0.47,0.26l-0.47,0.26l-0.48,0.27l-0.48,0.3l-0.48,0.3l-0.48,0.26l-0.5,0.24l-0.49,0.26l-0.49,0.24l-0.49,0.24l-0.48,0.27l-0.5,0.3l-0.49,0.3l-0.49,0.26l-0.5,0.28l-0.47,0.3l-0.47,0.3l-0.47,0.26l-0.47,0.24l-0.47,0.28l-0.47,0.26l-0.45,0.28l-0.47,0.26l-0.46,0.24l-0.47,0.24l-0.46,0.28l-0.47,0.3l-0.47,0.26l-0.47,0.28l-0.48,0.26l-0.48,0.24l-0.47,0.27l-0.48,0.27l-0.47,0.24l-0.47,0.24l-0.46,0.24l-0.46,0.28l-0.47,0.26l-0.47,0.24l-0.46,0.26l-0.45,0.27l-0.45,0.27l-0.46,0.23l-0.46,0.28l-0.45,0.26l-0.47,0.24l-0.47,0.24l-0.47,0.28l-0.45,0.24l-0.49,0.28l-0.49,0.27l-0.49,0.28l-0.48,0.3l-0.48,0.26l-0.48,0.28l-0.47,0.26l-0.48,0.24l-0.49,0.28l-0.48,0.26l-0.48,0.28l-0.44,0.23l-0.5,0.28l-0.53,0.28l-0.5,0.24l-0.49,0.28l-0.5,0.26l-0.5,0.24l-0.5,0.28l-0.49,0.3l-0.47,0.3l-0.48,0.26l-0.49,0.24l-0.49,0.24l-0.49,0.28l-0.49,0.28l-0.5,0.27l-0.5,0.28l-0.48,0.28l-0.47,0.3l-0.5,0.27l-0.49,0.27l-0.49,0.3l-0.48,0.26l-0.49,0.26l-0.5,0.27l-0.5,0.3l-0.51,0.3l-0.51,0.27l-0.5,0.27l-0.49,0.3l-0.5,0.26l-0.5,0.24l-0.5,0.31l-0.51,0.35l-0.51,0.31l-0.51,0.27l-0.5,0.27l-0.5,0.3l-0.5,0.27l-0.49,0.27l-0.48,0.27l-0.48,0.27l-0.49,0.27l-0.49,0.27l-0.49,0.3l-0.44,0.26l-0.5,0.27l-0.57,0.31l-0.5,0.3l-0.51,0.26l-0.5,0.31l-0.51,0.28l-0.5,0.27l-0.5,0.3l-0.51,0.3l-0.51,0.26l-0.51,0.28l-0.5,0.3l-0.51,0.26l-0.5,0.28l-0.49,0.3l-0.5,0.3l-0.49,0.26l-0.49,0.28l-0.47,0.26l-0.47,0.24l-0.47,0.28l-0.46,0.26l-0.47,0.24l-0.47,0.24l-0.47,0.22l-0.49,0.23l-0.5,0.21l-0.51,0.21l-0.52,0.19l-0.53,0.17l-0.51,0.14l-0.54,0.15l-0.53,0.08l-0.55,0.09l-0.55,0.09l-0.56,0.1l-0.58,0.13l-0.58,0.08l-0.59,0.12l-0.59,0.09l-0.6,0.08l-0.6,0.1l-0.56,0.12l-0.6,0.12l-0.64,0.1l-0.62,0.1l-0.61,0.1l-0.62,0.09l-0.62,0.1l-0.63,0.09l-0.63,0.1l-0.62,0.1l-0.63,0.09l-0.64,0.1l-0.64,0.06l-0.61,0.12l-0.61,0.12l-0.61,0.09l-0.59,0.1l-0.59,0.1l-0.59,0.09l-0.59,0.1l-0.6,0.1l-0.6,0.09l-0.61,0.1l-0.62,0.1l-0.64,0.13l-0.66,0.12l-0.67,0.09l-0.67,0.1l-0.67,0.13l-0.66,0.14l-0.65,0.12l-0.63,0.1l-0.63,0.13l-0.62,0.12l-0.6,0.1l-0.62,0.13l-0.62,0.12l-0.62,0.09l-0.6,0.13l-0.61,0.09l-0.62,0.08l-0.61,0.13l-0.6,0.12l-0.59,0.1l-0.59,0.13l-0.59,0.12l-0.59,0.1l-0.6,0.09l-0.59,0.1l-0.59,0.1l-0.56,0.09l-0.55,0.13l-0.52,0.09l-0.53,0.08l-0.53,0.13l-0.54,0.09l-0.53,0.08l-0.53,0.1l-0.53,0.09l-0.53,0.1l-0.53,0.06l-0.54,0.05l-0.53,0.12l-0.51,0.12l-0.53,0.09l-0.53,0.1l-0.5,0.06l-0.52,0.05l-0.53,0.1l-0.53,0.13l-0.53,0.09l-0.53,0.06l-0.53,0.09l-0.56,0.09l-0.57,0.1l-0.58,0.13l-0.58,0.12l-0.53,0.12l-0.6,0.12l-0.62,0.14l-0.58,0.12l-0.56,0.1l-0.57,0.09l-0.58,0.1l-0.58,0.1l-0.58,0.09l-0.57,0.1l-0.58,0.13l-0.57,0.09l-0.56,0.08l-0.59,0.09l-0.56,0.1l-0.56,0.1l-0.54,0.09l-0.55,0.13l-0.55,0.12l-0.53,0.1l-0.56,0.1l-0.56,0.09l-0.52,0.1l-0.53,0.13l-0.52,0.09l-0.51,0.08l-0.51,0.09l-0.48,0.13l-0.48,0.09l-0.48,0.08l-0.5,0.13l-0.48,0.12l-0.49,0.1l-0.48,0.13l-0.47,0.18l-0.46,0.19l-0.48,0.19l-0.47,0.26l-0.48,0.27l-0.48,0.24l-0.5,0.24l-0.51,0.27l-0.51,0.26l-0.53,0.26l-0.53,0.27l-0.57,0.27l-0.59,0.31l-0.59,0.31l-0.62,0.32l-0.64,0.31l-0.64,0.3l-0.65,0.3l-0.62,0.34l-0.56,0.3l-0.59,0.27l-0.61,0.31l-0.62,0.32l-0.63,0.32l-0.62,0.31l-0.6,0.3l-0.59,0.3l-0.6,0.28l-0.6,0.34l-0.62,0.31l-0.62,0.3l-0.59,0.28l-0.54,0.28l-0.63,0.34l-0.69,0.36l-0.61,0.34l-0.65,0.32l-0.63,0.32l-0.64,0.31l-0.63,0.31l-0.62,0.32l-0.62,0.31l-0.61,0.34l-0.61,0.34l-0.61,0.32l-0.59,0.28l-0.6,0.32l-0.61,0.28l-0.6,0.31l-0.59,0.32l-0.56,0.26l-0.53,0.28l-0.53,0.26l-0.54,0.24l-0.53,0.27l-0.53,0.31l-0.53,0.28l-0.56,0.3l-0.59,0.3l-0.62,0.3l-0.64,0.34l-0.62,0.34l-0.64,0.32l-0.69,0.35l-0.71,0.36l-0.71,0.35l-0.72,0.35l-0.69,0.34l-0.7,0.35l-0.7,0.35l-0.69,0.37l-0.7,0.36l-0.69,0.35l-0.68,0.31l-0.71,0.27l-0.72,0.18l-0.74,0.09l-0.78,0.04l-0.8,0l-0.83,-0.09l-0.86,-0.15l-0.84,-0.22l-0.83,-0.28l-0.84,-0.32l-0.88,-0.41l-0.78,-0.43l-0.78,-0.5l-0.89,-0.66l-0.84,-0.7l-0.79,-0.66l-0.84,-0.68l-0.87,-0.76l-0.88,-0.76l-0.89,-0.73l-0.9,-0.73l-0.92,-0.73l-0.93,-0.72l-0.95,-0.72l-0.96,-0.71l-0.94,-0.66l-0.95,-0.61l-0.93,-0.59l-0.88,-0.58l-0.87,-0.55l-0.86,-0.5l-0.84,-0.53l-0.84,-0.52l-0.81,-0.5l-0.78,-0.49l-0.74,-0.4l-0.69,-0.31l-0.62,-0.21l-0.53,-0.12l-0.39,-0.06l-0.34,-0.12l-0.14,-0.09l-0.13,-0.08l-0.14,-0.09l-0.13,-0.09l-0.19,-0.26l-0.26,-0.35l-0.39,-0.31l-0.53,-0.27l-0.57,-0.22l-0.57,-0.19l-0.53,-0.22l-0.51,-0.22l-0.53,-0.23l-0.56,-0.18l-0.56,-0.18l-0.56,-0.17l-0.55,-0.14l-0.56,-0.12l-0.56,-0.13l-0.55,-0.06l-0.54,-0.03l-0.56,-0.03l-0.6,0.04l-0.58,0.08l-0.55,0.06l-0.53,0.12l-0.52,0.08l-0.5,0.09l-0.51,0.06l-0.53,0.08l-0.53,0.06l-0.53,0.05l-0.52,0.08l-0.5,0.08l-0.47,0.04l-0.46,0.05l-0.46,0.05l-0.47,0.03l-0.47,0.03l-0.47,0.05l-0.51,0.05l-0.51,0.04l-0.53,0.09l-0.54,0.06l-0.56,0.05l-0.58,0.08l-0.56,0.09l-0.55,0.06l-0.58,0.09l-0.59,0.06l-0.57,0.08l-0.55,0.08l-0.56,0.1l-0.52,0.09l-0.57,0.08l-0.59,0.06l-0.56,0.12l-0.56,0.09l-0.55,0.08l-0.56,0.04l-0.56,0.05l-0.55,0.08l-0.56,0.01l-0.57,0.06l-0.57,0.09l-0.58,0.08l-0.61,0.08l-0.62,0.1l-0.59,0.06l-0.54,0.04l-0.6,0.05l-0.65,0.09l-0.59,0.06l-0.56,0.04l-0.55,0.05l-0.63,0.05l-0.62,0.03l-0.59,0.05l-0.59,0.08l-0.59,0.1l-0.59,0.12l-0.57,0.1l-0.57,0.09l-0.59,0.1l-0.59,0.13l-0.53,0.1l-0.61,0.1l-0.72,0.1l-0.69,0.1l-0.72,0.1l-0.78,0.09l-0.76,0.13l-0.77,0.14l-0.82,0.15l-0.81,0.15l-0.81,0.14l-0.81,0.15l-0.78,0.14l-0.8,0.12l-0.81,0.13l-0.79,0.18l-0.8,0.14l-0.8,0.15l-0.8,0.14l-0.81,0.13l-0.82,0.14l-0.83,0.14l-0.84,0.15l-0.84,0.18l-0.87,0.17l-0.87,0.18l-0.83,0.15l-0.84,0.15l-0.8,0.14l-0.8,0.15l-0.77,0.12l-0.75,0.13l-0.72,0.08l-0.69,0.12l-0.67,0.09l-0.65,-0.01l-0.64,-0.05l-0.61,-0.12l-0.62,-0.14l-0.6,-0.18l-0.57,-0.22l-0.61,-0.24l-0.63,-0.26l-0.63,-0.24l-0.64,-0.22l-0.63,-0.19l-0.6,-0.22l-0.63,-0.19l-0.64,-0.18l-0.65,-0.17l-0.64,-0.12l-0.62,-0.15l-0.61,-0.23l-0.59,-0.23l-0.62,-0.26l-0.61,-0.21l-0.63,-0.21l-0.62,-0.22l-0.58,-0.26l-0.57,-0.24l-0.55,-0.21l-0.57,-0.26l-0.54,-0.27l-0.53,-0.24l-0.52,-0.27l-0.52,-0.27l-0.5,-0.27l-0.5,-0.3l-0.5,-0.3l-0.53,-0.3l-0.53,-0.32l-0.51,-0.32l-0.5,-0.32l-0.52,-0.28l-0.5,-0.27l-0.5,-0.23l-0.5,-0.14l-0.53,-0.09l-0.54,-0.08l-0.54,-0.01l-0.55,0l-0.56,0.03l-0.55,0.03l-0.53,0l-0.53,0.03l-0.51,0.03l-0.5,0l-0.52,0l-0.53,0l-0.55,0l-0.54,0l-0.53,0l-0.52,0l-0.53,0.03l-0.52,0.01l-0.5,0.06l-0.47,0.06l-0.46,0.08l-0.48,0.08l-0.47,0.08l-0.44,0.1l-0.43,0.06l-0.43,0.05l-0.44,0.05l-0.44,0.04l-0.46,0.09l-0.44,0.09l-0.45,0.1l-0.46,0.13l-0.44,0.12l-0.44,0.1l-0.46,0.09l-0.46,0.1l-0.46,0.06l-0.47,0.03l-0.47,0l-0.47,0.03l-0.5,0.01l-0.51,0l-0.5,0l-0.47,0.03l-0.51,0.09l-0.5,0.06l-0.47,0.12l-0.43,0.18l-0.39,0.19l-0.35,0.26l-0.36,0.26l-0.35,0.24l-0.36,0.28l-0.36,0.26l-0.34,0.31l-0.34,0.32l-0.33,0.28l-0.32,0.3l-0.29,0.32l-0.28,0.32l-0.29,0.26l-0.32,0.28l-0.44,0.62l-0.49,0.81l-0.49,0.81l-0.45,0.58l-0.25,-0.43l-0.3,0.15l-0.26,0.22l-0.28,0.22l-0.3,0.15l-0.31,0.15l-0.33,0.21l-0.35,0.24l-0.35,0.22l-0.36,0.23l-0.36,0.21l-0.38,0.21l-0.38,0.19l-0.36,0.17l-0.37,0.17l-0.38,0.21l-0.36,0.22l-0.36,0.24l-0.38,0.26l-0.38,0.24l-0.37,0.21l-0.37,0.23l-0.36,0.24l-0.35,0.18l-0.36,0.21l-0.38,0.26l-0.4,0.21l-0.39,0.23l-0.4,0.22l-0.4,0.17l-0.4,0.14l-0.4,0.18l-0.41,0.19l-0.43,0.19l-0.42,0.17l-0.41,0.18l-0.38,0.19l-0.39,0.17l-0.41,0.15l-0.41,0.14l-0.41,0.21l-0.42,0.19l-0.43,0.14l-0.44,0.14l-0.44,0.18l-0.42,0.19l-0.44,0.17l-0.44,0.18l-0.45,0.17l-0.46,0.15l-0.46,0.17l-0.46,0.17l-0.46,0.15l-0.47,0.18l-0.49,0.19l-0.5,0.1l-0.5,0.1l-0.49,0.15l-0.5,0.14l-0.51,0.15l-0.49,0.14l-0.47,0.15l-0.48,0.12l-0.48,0.09l-0.49,0.1l-0.5,0.06l-0.49,0.05l-0.48,0.08l-0.5,0.1l-0.5,0.06l-0.52,0.08l-0.55,0.1l-0.56,0.1l-0.57,0.06l-0.56,0.05l-0.58,0.04l-0.56,0.09l-0.55,0.06l-0.53,0.01l-0.5,0l-0.49,-0.03l-0.48,-0.05l-0.47,-0.01l-0.45,-0.04l-0.41,-0.08l-0.4,-0.06l-0.41,-0.12l-0.46,-0.14l-0.46,-0.18l-0.46,-0.19l-0.47,-0.23l-0.49,-0.22l-0.5,-0.19l-0.5,-0.19l-0.5,-0.17l-0.5,-0.18l-0.5,-0.17l-0.5,-0.18l-0.5,-0.22l-0.5,-0.24l-0.52,-0.27l-0.54,-0.34l-0.65,-0.31l-0.67,-0.3l-0.62,-0.32l-0.58,-0.32l-0.59,-0.32l-0.62,-0.24l-0.65,-0.27l-0.65,-0.23l-0.62,-0.26l-0.62,-0.26l-0.64,-0.28l-0.65,-0.26l-0.66,-0.24l-0.7,-0.28l-0.72,-0.28l-0.75,-0.4l-0.73,-0.48l-0.65,-0.52l-0.59,-0.61l-0.56,-0.61l-0.59,-0.62l-0.64,-0.58l-0.67,-0.54l-0.7,-0.53l-0.78,-0.49l-0.78,-0.48l-0.78,-0.49l-0.79,-0.49l-0.81,-0.53l-0.81,-0.5l-0.82,-0.53l-0.81,-0.54l-0.82,-0.59l-0.82,-0.64l-0.81,-0.71l-0.78,-0.71l-0.75,-0.73l-0.72,-0.76l-0.75,-0.77l-0.8,-0.8l-0.81,-0.77l-0.81,-0.7l-0.82,-0.71l-0.81,-0.63l-0.8,-0.59l-0.75,-0.53l-0.75,-0.55l-0.78,-0.57l-0.74,-0.55l-0.7,-0.61l-0.74,-0.64l-0.74,-0.62l-0.71,-0.59l-0.67,-0.58l-0.66,-0.62l-0.68,-0.62l-0.69,-0.63l-0.64,-0.68l-0.61,-0.75l-0.59,-0.79l-0.5,-0.85l-0.37,-0.98l-0.24,-1.07l-0.17,-1.13l-0.17,-1.19l-0.17,-1.29l-0.12,-1.25l-0.09,-1.24l-0.08,-1.29l-0.1,-1.24l-0.12,-1.31l-0.17,-1.26l-0.18,-1.34l-0.18,-1.4l-0.17,-1.37l-0.14,-1.35l-0.16,-1.42l-0.19,-1.46l-0.21,-1.42l-0.21,-1.42l-0.2,-1.39l-0.17,-1.31l-0.17,-1.31l-0.17,-1.3l-0.16,-1.21l-0.14,-1.19l-0.14,-1.16l-0.12,-1.12l-0.11,-1.11l-0.13,-1.17l-0.16,-1.2l-0.18,-1.17l-0.18,-1.15l-0.16,-1.16l-0.12,-1.17l-0.11,-1.24l-0.12,-1.21l-0.15,-1.19l-0.14,-1.16l-0.15,-1.19l-0.15,-1.21l-0.15,-1.2l-0.15,-1.22l-0.15,-1.19l-0.16,-1.28l-0.16,-1.25l-0.19,-1.28l-0.2,-1.28l-0.18,-1.24l-0.2,-1.24l-0.25,-1.26l-0.29,-1.24l-0.32,-1.29l-0.35,-1.28l-0.36,-1.28l-0.38,-1.3l-0.37,-1.26l-0.34,-1.17l-0.34,-1.2l-0.4,-1.33l-0.41,-1.31l-0.41,-1.29l-0.38,-1.25l-0.38,-1.22l-0.38,-1.22l-0.35,-1.22l-0.35,-1.2l-0.32,-1.15l-0.32,-1.22l-0.36,-1.29l-0.36,-1.21l-0.39,-1.3l-0.39,-1.34l-0.38,-1.38l-0.4,-1.33l-0.43,-1.39l-0.42,-1.38l-0.41,-1.34l-0.43,-1.42l-0.41,-1.39l-0.38,-1.33l-0.38,-1.33l-0.38,-1.34l-0.38,-1.33l-0.37,-1.28l-0.37,-1.22l-0.38,-1.29l-0.38,-1.26l-0.35,-1.19l-0.38,-1.2l-0.4,-1.21l-0.35,-1.17l-0.35,-1.19l-0.36,-1.19l-0.35,-1.17l-0.37,-1.19l-0.36,-1.19l-0.35,-1.22l-0.36,-1.21l-0.35,-1.19l-0.33,-1.15l-0.33,-1.08l-0.38,-1.15l-0.39,-1.17l-0.38,-1.08l-0.41,-1.16l-0.41,-1.16l-0.32,-1.13l-0.2,-1.12l-0.02,-1.19l0.17,-1.2l0.32,-1.15l0.38,-1.08l0.32,-1.15l0.22,-1.2l0.16,-1.22l0.13,-1.22l0.11,-1.15l0.11,-1.17l0.09,-1.13l0.09,-1.2l0.1,-1.24l0.11,-1.15l0.11,-1.15l0.13,-1.19l0.14,-1.22l0.13,-1.17l0.11,-1.13l0.14,-1.2l0.19,-1.22l0.2,-1.16l0.2,-1.2l0.16,-1.21l0.14,-1.19l0.18,-1.19l0.27,-1.2l0.28,-1.19l0.26,-1.2l0.32,-1.21l0.37,-1.2l0.33,-1.2l0.26,-1.19l0.26,-1.16l0.29,-1.13l0.32,-1.15l0.31,-1.16l0.3,-1.07l0.24,-1.1l0.26,-1.15l0.25,-1.21l0.18,-1.16l0.17,-1.08l0.2,-1.1l0.21,-1.11l0.21,-1.1l0.22,-1.11l0.2,-1.06l0.22,-1.08l0.25,-1.13l0.26,-1.08l0.29,-1.06l0.23,-0.98l0.2,-0.94l0.17,-0.93l0.09,-0.92l0.06,-0.92l0.04,-0.97l0.02,-0.98l0.02,-1.04l-0.01,-1.11l-0.05,-1.12l-0.05,-1.19l-0.05,-1.24l-0.05,-1.17l-0.06,-1.13l-0.09,-1.13l-0.14,-1.13l-0.17,-1.16l-0.19,-1.17l-0.25,-1.21l-0.32,-1.2l-0.36,-1.21l-0.37,-1.2l-0.31,-1.17l-0.25,-1.25l-0.21,-1.25l-0.13,-1.13l-0.14,-1.07l-0.24,-1.03l-0.35,-0.82l-0.45,-0.68l-0.61,-0.41l-0.79,-0.23l-0.94,-0.17l-0.95,-0.22l-0.9,-0.24l-0.87,-0.24l-0.81,-0.27l-0.78,-0.27l-0.75,-0.24l-0.72,-0.21l-0.73,-0.01l-0.78,0.24l-0.82,0.48l-0.87,0.53l-0.91,0.54l-0.87,0.54l-0.86,0.54l-0.79,0.55l-0.72,0.54l-0.7,0.5l-0.66,0.49l-0.68,0.53l-0.74,0.62l-0.83,0.7l-0.9,0.66l-0.95,0.61l-0.93,0.54l-0.89,0.52l-0.87,0.52l-0.87,0.45l-0.85,0.45l-0.83,0.44l-0.81,0.46l-0.78,0.59l-0.73,0.73l-0.66,0.82l-0.59,0.82l-0.53,0.77l-0.47,0.73l-0.39,0.64l-0.37,0.57l-0.43,0.3l-0.45,-0.19l-0.3,-0.55l-0.11,-0.76l-0.05,-0.86l-0.14,-0.95l-0.29,-0.99l-0.41,-1.04l-0.44,-0.98l-0.41,-0.93l-0.39,-0.93l-0.32,-0.94l-0.23,-0.97l-0.15,-0.99l-0.11,-0.95l-0.08,-0.84l-0.08,-0.72l-0.08,-0.68l-0.11,-0.72l-0.16,-0.8l-0.2,-0.84l-0.2,-0.84l-0.21,-0.84l-0.26,-0.92l-0.32,-1.06l-0.39,-1.15l-0.43,-1.24l-0.36,-1.16l-0.29,-1.02l-0.26,-0.89l-0.29,-0.8l-0.33,-0.76l-0.38,-0.76l-0.45,-0.81l-0.54,-0.72l-0.6,-0.58l-0.65,-0.45l-0.63,-0.45l-0.62,-0.58l-0.6,-0.77l-0.47,-0.95l-0.31,-1.12l-0.18,-1.13l-0.1,-1.11l-0.08,-1.1l-0.08,-1.08l-0.09,-1.11l-0.16,-1.16l-0.36,-1.2l-0.41,-1.21l-0.34,-1.11l-0.29,-1.15l-0.27,-1.16l-0.25,-1.16l-0.24,-1.19l-0.24,-1.21l-0.2,-1.16l-0.19,-1.13l-0.17,-1.19l-0.11,-1.2l-0.06,-1.25l-0.01,-1.34l0.05,-1.37l0.09,-1.25l0.08,-1.19l0.07,-1.08l0.1,-1.01l0.11,-0.95l0.16,-0.97l0.24,-0.89l0.38,-0.86l0.55,-0.86l0.69,-0.8l0.8,-0.72l0.83,-0.72l0.85,-0.64l0.84,-0.55l0.85,-0.52l0.81,-0.49l0.75,-0.49l0.67,-0.52l0.62,-0.54l0.61,-0.54l0.65,-0.58l0.67,-0.66l0.62,-0.75l0.55,-0.79l0.49,-0.79l0.49,-0.81l0.47,-0.81l0.45,-0.79l0.43,-0.75l0.41,-0.75l0.37,-0.76l0.26,-0.81l0.16,-0.85l0.18,-0.86l0.3,-0.89l0.5,-0.76l0.62,-0.66l0.63,-0.61l0.59,-0.62l0.48,-0.7l0.35,-0.73l0.27,-0.68l0.21,-0.61l0.15,-0.53l0.14,-0.49l0.13,-0.46l0.14,-0.44l0.17,-0.37l0.17,-0.32l0.15,-0.3l0.16,-0.3l0.17,-0.32l0.16,-0.31l0.08,-0.3l0.06,-0.3l0.08,-0.3l0.06,-0.27l0.02,-0.21l0.02,-0.17l0.05,-0.12l0.06,-0.13l0.1,-0.15l0.12,-0.17l0.14,-0.3l0.12,-0.31l0.14,-0.34l0.2,-0.31l0.26,-0.3l0.32,-0.3l0.34,-0.26l0.34,-0.28l0.34,-0.32l0.33,-0.35l0.35,-0.34l0.36,-0.37l0.35,-0.37l0.35,-0.37l0.35,-0.39l0.37,-0.4l0.38,-0.35l0.41,-0.39l0.44,-0.36l0.45,-0.37l0.44,-0.4l0.42,-0.39l0.41,-0.39l0.41,-0.45l0.44,-0.48l0.48,-0.44l0.49,-0.48l0.48,-0.45l0.48,-0.49l0.47,-0.45l0.5,-0.48l0.54,-0.49l0.53,-0.49l0.51,-0.49l0.55,-0.5l0.55,-0.49l0.54,-0.52l0.49,-0.54l0.5,-0.54l0.53,-0.54l0.52,-0.54l0.49,-0.54l0.52,-0.5l0.57,-0.5l0.59,-0.49l0.59,-0.52l0.62,-0.54l0.64,-0.52l0.62,-0.5l0.62,-0.52l0.62,-0.5l0.59,-0.49l0.62,-0.49l0.62,-0.5l0.65,-0.52l0.66,-0.54l0.62,-0.52l0.72,-0.58l0.77,-0.61l0.73,-0.59l0.75,-0.55l0.78,-0.58l0.78,-0.58l0.76,-0.59l0.78,-0.59l0.78,-0.58l0.81,-0.59l0.81,-0.63l0.82,-0.63l0.8,-0.58l0.85,-0.63l0.87,-0.68l0.87,-0.7l0.87,-0.72l0.85,-0.73l0.83,-0.77l0.81,-0.77l0.81,-0.82l0.81,-0.85l0.79,-0.84l0.75,-0.86l0.71,-0.9l0.65,-0.97l0.6,-0.99l0.55,-1.01l0.51,-1.03l0.47,-1.03l0.46,-1.04l0.46,-1.02l0.49,-1.01l0.5,-0.98l0.54,-0.97l0.58,-0.99l0.59,-0.97l0.61,-0.97l0.68,-0.95l0.82,-0.9l0.84,-0.8l0.87,-0.8l0.9,-0.8l0.92,-0.76l0.99,-0.73l0.96,-0.73l0.99,-0.62l0.99,-0.59l1.05,-0.61l1.09,-0.59l1.09,-0.55l1.1,-0.55l1.11,-0.59l1.1,-0.58l1.11,-0.52l1.14,-0.49l1.12,-0.46l1.12,-0.44l1.11,-0.41l1.12,-0.39l1.1,-0.36l1.12,-0.39l1.14,-0.43l1.17,-0.41l1.22,-0.41l1.19,-0.41l1.21,-0.4l1.19,-0.45l1.14,-0.49l1.11,-0.53l1.09,-0.57l1.07,-0.59l1.08,-0.55l1.11,-0.54l1.1,-0.58l1.04,-0.55l0.95,-0.5l1.03,-0.55l1.07,-0.5l1.02,-0.44l1.02,-0.44l1.02,-0.48l1.03,-0.46l1.03,-0.45l1.02,-0.44l1.01,-0.44l0.95,-0.44l0.94,-0.45l0.9,-0.44l0.88,-0.45l0.86,-0.44l0.86,-0.44l0.81,-0.48l0.8,-0.49l0.83,-0.49l0.85,-0.49l0.84,-0.5l0.74,-0.44l0.85,-0.5l0.9,-0.53l0.84,-0.46l0.81,-0.44l0.8,-0.46l0.81,-0.46l0.8,-0.45l0.78,-0.44l0.75,-0.48l0.74,-0.43l0.77,-0.46l0.75,-0.45l0.72,-0.41l0.72,-0.36l0.72,-0.35l0.76,-0.35l0.77,-0.34l0.8,-0.32l0.85,-0.3l0.88,-0.3l0.91,-0.32l0.92,-0.31l0.92,-0.32l0.93,-0.41l0.96,-0.44l0.98,-0.48l0.96,-0.49l0.96,-0.46l0.99,-0.48l0.99,-0.49l1,-0.52l1.02,-0.54l1.06,-0.61l0.96,-0.55l1.04,-0.63l1.05,-0.68l0.93,-0.67l0.95,-0.62l0.95,-0.63l0.95,-0.57l0.94,-0.57l0.96,-0.54l0.9,-0.45l0.87,-0.45l0.84,-0.44l0.84,-0.48l0.82,-0.53l0.82,-0.59l0.81,-0.64l0.77,-0.61l0.74,-0.62l0.72,-0.61l0.65,-0.57l0.56,-0.5l0.35,-0.19l0.08,-0.05l-0.07,-0.04l-0.12,0l-0.14,0l-0.12,0l-0.11,-0.04l-0.08,-0.01l-0.03,0l0,0l0,0l0,0l0,0l0,0l-0.05,-0.19l-0.15,-0.1l-0.19,-0.06l-0.2,-0.04l-0.21,0l-0.23,0.04l-0.2,0.01l-0.21,0.04l-0.26,0.04l-0.31,0.09l-0.31,0.06l-0.28,0.1l-0.25,0.18l-0.26,0.17l-0.31,0.09l-0.33,0.05l-0.35,0.04l-0.37,0.05l-0.33,0.05l-0.32,0.08l-0.29,0.04l-0.29,0l-0.32,0.04l-0.29,0.04l-0.3,0.05l-0.31,0.03l-0.28,0l-0.27,0.05l-0.29,0.13l-0.31,0.12l-0.31,0.1l-0.32,0.1l-0.35,0.13l-0.33,0.14l-0.3,0.12l-0.29,0.13l-0.32,0.18l-0.32,0.17l-0.28,0.14l-0.27,0.18l-0.29,0.17l-0.32,0.12l-0.33,0.1l-0.32,0.09l-0.35,0.1l-0.34,0.1l-0.32,0.09l-0.31,0.06l-0.31,0.09l-0.29,0.09l-0.27,0.08l-0.26,0.08l-0.29,0.09l-0.28,0.04l-0.27,0.06"/>
  </g>
</svg>